M48
;Layer_Color=9474304
;FILE_FORMAT=4:3
METRIC,LZ
;TYPE=PLATED
T1F00S00C0.300
T2F00S00C0.400
T3F00S00C0.500
T4F00S00C0.800
T5F00S00C1.000
T7F00S00C2.000
%
T01
X0082103Y0048816
X0084008Y0055293
X0086827Y0054937
X0088453Y0056563
X0086294Y0058976
X0093914Y006177
X0092009Y0051229
X0085405Y0070025
X0084643Y0072565
X0085133Y0073437
X0084616Y0074116
X0085638Y0074851
X0086801Y0073689
X0088453Y0076375
X0090123Y007701
X0081604Y0078236
X0079835Y0076266
X0082484Y0074597
X0082227Y0073581
X0081773Y0072692
X0081253Y0072015
X0077836Y0071891
X0077912Y0070279
X0078293Y0069263
X0074871Y0071149
X0075773Y0072672
X0076558Y0077984
X0076261Y005034
X007588Y0047165
X0068006Y005542
X0063243Y0058595
X0066482Y0081709
X0065466Y0083233
X007461Y0081201
X0079182Y0080439
X0079817Y0082979
X0080706Y0082217
T02
X0089952Y0071397
X011144Y0077899
X0111948Y0058214
Y005669
X007588Y0062659
X007207Y0067104
X0070038Y0065453
X0071689Y0071149
X008263Y0081093
X0083484Y0082159
X011144Y0079931
T03
X0091774Y0044498
T04
X0110551Y004907
X0113091
X0115631
X0058481Y0050995
Y0053495
X0051369Y0061516
X004794Y0061897
Y0066977
X0051369Y0067485
X0052578Y0074549
Y0077089
X0058247Y0074597
X0060747
X0062291Y004159
X0054671Y0041577
T05
X0080579Y0041577
X0083119
X0085659
X0088199
X0090739
X0093279
X0095819
X0104963Y0051229
Y0053769
Y0056309
Y0058849
X0118679Y0059357
Y0061897
Y0056436
Y0053896
Y0050975
Y0048435
X008985Y0078788
X0046274Y0073607
X0041224Y0076096
X0040828Y0067739
Y0065199
X0078039Y0041577
X008985Y0081328
Y0083868
Y0086408
T07
X0049972Y0036751
X011017
M30
