G04*
G04 #@! TF.GenerationSoftware,Altium Limited,Altium Designer,23.6.0 (18)*
G04*
G04 Layer_Color=32768*
%FSLAX44Y44*%
%MOMM*%
G71*
G04*
G04 #@! TF.SameCoordinates,157544A1-0EA0-4F56-A15C-28E52037D784*
G04*
G04*
G04 #@! TF.FilePolarity,Positive*
G04*
G01*
G75*
%ADD15C,0.1000*%
%ADD17C,0.1270*%
%ADD124C,0.0500*%
%ADD126C,0.2540*%
%ADD130C,0.5080*%
D15*
X495330Y379610D02*
G03*
X497330Y377610I2000J-0D01*
G01*
Y366610D02*
G03*
X495330Y364610I0J-2000D01*
G01*
X467330Y364610D02*
G03*
X465330Y366610I-2000J0D01*
G01*
Y377610D02*
G03*
X467330Y379610I0J2000D01*
G01*
X477600Y344170D02*
X487600D01*
X482600Y339170D02*
Y349170D01*
X496042Y33805D02*
X506042D01*
X501042Y28805D02*
Y38805D01*
X298530Y133350D02*
X308530D01*
X303530Y128350D02*
Y138350D01*
X497330Y366610D02*
Y377610D01*
X467330Y364610D02*
X495330D01*
X465330Y366610D02*
Y377610D01*
X467330Y379610D02*
X495330D01*
X296860Y289120D02*
Y361120D01*
X383860Y289120D02*
Y361120D01*
X296860D02*
X383860D01*
X296860Y289120D02*
X383860D01*
X335360Y325120D02*
X345360D01*
X340360Y320120D02*
Y330120D01*
D17*
X249780Y63500D02*
G03*
X249780Y63500I-41500J0D01*
G01*
X259940Y287020D02*
G03*
X259940Y287020I-41500J0D01*
G01*
D124*
X494950Y305200D02*
Y318800D01*
Y305200D02*
X502050D01*
Y298100D02*
Y305200D01*
Y298100D02*
X515650D01*
Y235300D02*
Y298100D01*
X502050Y235300D02*
X515650D01*
X502050Y228200D02*
Y235300D01*
X494950Y228200D02*
X502050D01*
X494950Y214600D02*
Y228200D01*
X432150Y214600D02*
X494950D01*
X432150D02*
Y228200D01*
X425050D02*
X432150D01*
X425050D02*
Y235300D01*
X411450D02*
X425050D01*
X411450D02*
Y298100D01*
X425050D01*
Y305200D01*
X432150D01*
Y318800D01*
X494950D01*
X544040Y178490D02*
Y423490D01*
Y178490D02*
X731040D01*
Y423490D01*
X544040D02*
X731040D01*
X501600Y329170D02*
Y359170D01*
X463600D02*
X501600D01*
X463600Y329170D02*
Y359170D01*
Y329170D02*
X501600D01*
X298450Y366090D02*
Y375590D01*
X293700Y370840D02*
X303200D01*
X284480Y363340D02*
X312420D01*
X284480Y378340D02*
X312420Y378340D01*
Y363340D02*
Y378340D01*
X284480Y363340D02*
Y378340D01*
X461672Y5305D02*
Y62305D01*
X540412Y5305D02*
Y62305D01*
X461672D02*
X540412D01*
X461672Y5305D02*
X540412D01*
X497840Y-26550D02*
Y-11550D01*
X525780Y-26550D02*
Y-11550D01*
X497840D02*
X525780D01*
X497840Y-26550D02*
X525780D01*
X507060Y-19050D02*
X516560D01*
X511810Y-23800D02*
Y-14300D01*
X488010Y408940D02*
X497510D01*
X492760Y404190D02*
Y413690D01*
X485260Y394970D02*
Y422910D01*
X500260Y394970D02*
Y422910D01*
X485260Y394970D02*
X500260D01*
X485260Y422910D02*
X500260D01*
X468960Y408940D02*
X478460D01*
X473710Y404190D02*
Y413690D01*
X481210Y394970D02*
Y422910D01*
X466210Y394970D02*
Y422910D01*
X481210D01*
X466210Y394970D02*
X481210D01*
X447370Y408940D02*
X456870D01*
X452120Y404190D02*
Y413690D01*
X444620Y394970D02*
Y422910D01*
X459620Y394970D02*
Y422910D01*
X444620Y394970D02*
X459620D01*
X444620Y422910D02*
X459620D01*
X370840Y366090D02*
Y375590D01*
X366090Y370840D02*
X375590D01*
X356870Y378340D02*
X384810D01*
X356870Y363340D02*
X384810D01*
X356870D02*
Y378340D01*
X384810Y363340D02*
Y378340D01*
X525780Y-11310D02*
X525780Y3690D01*
X497840Y-11310D02*
X497840Y3690D01*
X497840Y-11310D02*
X525780D01*
X497840Y3690D02*
X525780D01*
X507060Y-3810D02*
X516560D01*
X511810Y-8560D02*
X511810Y940D01*
X435730Y358140D02*
X450730Y358140D01*
X435730Y386080D02*
X450730Y386080D01*
X435730Y358140D02*
Y386080D01*
X450730Y358140D02*
Y386080D01*
X443230Y367360D02*
Y376860D01*
X438480Y372110D02*
X447980Y372110D01*
D126*
X373380Y128270D02*
D03*
X215900Y234950D02*
D03*
X372110Y154940D02*
D03*
X325120Y226060D02*
D03*
X372110Y210820D02*
D03*
X295910Y226060D02*
D03*
X267970Y226060D02*
D03*
X372110Y181610D02*
D03*
D130*
X339090Y274320D02*
D03*
X207672Y374165D02*
D03*
M02*
