G04*
G04 #@! TF.GenerationSoftware,Altium Limited,Altium Designer,23.6.0 (18)*
G04*
G04 Layer_Color=16711935*
%FSLAX44Y44*%
%MOMM*%
G71*
G04*
G04 #@! TF.SameCoordinates,157544A1-0EA0-4F56-A15C-28E52037D784*
G04*
G04*
G04 #@! TF.FilePolarity,Negative*
G04*
G01*
G75*
%ADD92O,1.8542X2.7432*%
%ADD93R,1.8542X2.7432*%
%ADD94C,1.8000*%
%ADD95C,2.2032*%
%ADD96R,1.7032X1.7032*%
%ADD97C,1.7032*%
%ADD98R,4.2672X2.7432*%
%ADD99R,2.7432X4.2672*%
%ADD100C,1.9812*%
%ADD101R,1.7032X1.7032*%
%ADD102R,1.8000X1.8000*%
%ADD103R,1.7232X1.7232*%
%ADD104C,1.7232*%
%ADD105C,0.8032*%
%ADD106C,1.1032*%
D92*
X779780Y31750D02*
D03*
X754380D02*
D03*
D93*
X728980D02*
D03*
D94*
X403860Y-43180D02*
D03*
X429260D02*
D03*
X454660D02*
D03*
X480060D02*
D03*
X505460D02*
D03*
X530860D02*
D03*
X556260D02*
D03*
X581660D02*
D03*
X31750Y193040D02*
D03*
Y218440D02*
D03*
X810260Y25400D02*
D03*
Y50800D02*
D03*
Y80010D02*
D03*
Y105410D02*
D03*
Y160020D02*
D03*
Y134620D02*
D03*
X673100Y129540D02*
D03*
Y104140D02*
D03*
Y78740D02*
D03*
Y53340D02*
D03*
X86210Y277113D02*
D03*
D95*
X725170Y-91440D02*
D03*
X123190D02*
D03*
D96*
X170180Y-43180D02*
D03*
X230940Y287020D02*
D03*
D97*
X246380Y-43053D02*
D03*
X149252Y286535D02*
D03*
X208280Y51000D02*
D03*
X205940Y287020D02*
D03*
D98*
X115570Y33020D02*
D03*
D99*
X77470Y83820D02*
D03*
X140970D02*
D03*
D100*
X102870Y160020D02*
D03*
Y210820D02*
D03*
X137160Y215900D02*
D03*
Y156210D02*
D03*
D101*
X149252Y311935D02*
D03*
X208280Y76000D02*
D03*
D102*
X35710Y302007D02*
D03*
D103*
X521970Y328930D02*
D03*
D104*
Y354330D02*
D03*
Y379730D02*
D03*
Y405130D02*
D03*
D105*
X436001Y261195D02*
D03*
X441200Y267970D02*
D03*
X445740Y276860D02*
D03*
X448310Y287020D02*
D03*
X469632Y282208D02*
D03*
X474800Y275410D02*
D03*
X469900Y266700D02*
D03*
X486410Y130810D02*
D03*
X463550Y93980D02*
D03*
X382270Y12700D02*
D03*
X406400Y233680D02*
D03*
X477520Y241300D02*
D03*
X522990Y255020D02*
D03*
X562610Y158750D02*
D03*
X444500Y29210D02*
D03*
X491738Y90418D02*
D03*
X508000Y106680D02*
D03*
Y304800D02*
D03*
X288290Y358140D02*
D03*
X389048Y320882D02*
D03*
X421819Y303710D02*
D03*
X421640Y370840D02*
D03*
X449770Y351980D02*
D03*
X458310Y362640D02*
D03*
X479854Y289560D02*
D03*
X369570Y353060D02*
D03*
X524700Y311150D02*
D03*
X278130Y373380D02*
D03*
X430530Y363220D02*
D03*
X402590Y243840D02*
D03*
X381206Y267764D02*
D03*
X401835Y259954D02*
D03*
X344170Y212090D02*
D03*
X372180Y252540D02*
D03*
X491477Y277937D02*
D03*
X415290Y345440D02*
D03*
X439510Y323401D02*
D03*
X386080Y44450D02*
D03*
X382270Y167640D02*
D03*
X737870Y340360D02*
D03*
X742950Y123190D02*
D03*
Y107950D02*
D03*
X303530Y95250D02*
D03*
X323850Y195580D02*
D03*
X340360Y252540D02*
D03*
X543560Y53340D02*
D03*
X255900Y127000D02*
D03*
D106*
X541210Y-13970D02*
D03*
M02*
