G04*
G04 #@! TF.GenerationSoftware,Altium Limited,Altium Designer,23.6.0 (18)*
G04*
G04 Layer_Color=16711935*
%FSLAX44Y44*%
%MOMM*%
G71*
G04*
G04 #@! TF.SameCoordinates,157544A1-0EA0-4F56-A15C-28E52037D784*
G04*
G04*
G04 #@! TF.FilePolarity,Positive*
G04*
G01*
G75*
%ADD15C,0.1000*%
%ADD124C,0.0500*%
G36*
X34290Y215911D02*
X34279D01*
X34234D01*
X34168D01*
X34079Y215922D01*
X33979Y215933D01*
X33868Y215956D01*
X33757Y215978D01*
X33635Y216022D01*
X33624D01*
X33613Y216033D01*
X33546Y216055D01*
X33446Y216100D01*
X33313Y216166D01*
X33158Y216255D01*
X32980Y216366D01*
X32803Y216488D01*
X32614Y216644D01*
X32603D01*
X32592Y216666D01*
X32525Y216721D01*
X32425Y216821D01*
X32281Y216966D01*
X32114Y217132D01*
X31915Y217343D01*
X31693Y217598D01*
X31460Y217876D01*
X31449Y217887D01*
X31415Y217931D01*
X31360Y217998D01*
X31293Y218076D01*
X31204Y218176D01*
X31104Y218298D01*
X30993Y218420D01*
X30871Y218564D01*
X30605Y218841D01*
X30338Y219119D01*
X30205Y219252D01*
X30072Y219374D01*
X29950Y219485D01*
X29828Y219574D01*
X29817D01*
X29806Y219596D01*
X29772Y219618D01*
X29728Y219641D01*
X29606Y219718D01*
X29462Y219807D01*
X29284Y219885D01*
X29095Y219963D01*
X28884Y220007D01*
X28685Y220029D01*
X28674D01*
X28662D01*
X28596Y220018D01*
X28485Y220007D01*
X28363Y219974D01*
X28207Y219929D01*
X28052Y219851D01*
X27896Y219752D01*
X27741Y219618D01*
X27719Y219596D01*
X27675Y219541D01*
X27619Y219463D01*
X27541Y219341D01*
X27475Y219186D01*
X27408Y219008D01*
X27364Y218797D01*
X27353Y218564D01*
Y218497D01*
X27364Y218453D01*
X27375Y218320D01*
X27408Y218164D01*
X27452Y217998D01*
X27530Y217809D01*
X27630Y217632D01*
X27763Y217465D01*
X27785Y217443D01*
X27841Y217398D01*
X27930Y217332D01*
X28063Y217265D01*
X28218Y217188D01*
X28418Y217121D01*
X28640Y217077D01*
X28895Y217054D01*
X28796Y216089D01*
X28784D01*
X28751Y216100D01*
X28696D01*
X28618Y216111D01*
X28529Y216133D01*
X28429Y216155D01*
X28307Y216189D01*
X28185Y216222D01*
X27919Y216311D01*
X27652Y216444D01*
X27519Y216522D01*
X27386Y216621D01*
X27264Y216721D01*
X27153Y216832D01*
X27142Y216843D01*
X27131Y216866D01*
X27097Y216899D01*
X27064Y216954D01*
X27020Y217021D01*
X26975Y217099D01*
X26920Y217188D01*
X26864Y217299D01*
X26809Y217421D01*
X26753Y217554D01*
X26709Y217698D01*
X26664Y217854D01*
X26631Y218020D01*
X26598Y218198D01*
X26587Y218386D01*
X26576Y218586D01*
Y218697D01*
X26587Y218775D01*
X26598Y218864D01*
X26609Y218975D01*
X26631Y219097D01*
X26653Y219219D01*
X26731Y219507D01*
X26842Y219796D01*
X26909Y219940D01*
X26986Y220085D01*
X27086Y220218D01*
X27197Y220340D01*
X27208Y220351D01*
X27219Y220373D01*
X27264Y220395D01*
X27308Y220440D01*
X27364Y220495D01*
X27441Y220551D01*
X27519Y220606D01*
X27619Y220673D01*
X27830Y220784D01*
X28096Y220895D01*
X28229Y220939D01*
X28385Y220961D01*
X28540Y220984D01*
X28707Y220995D01*
X28729D01*
X28784D01*
X28873Y220984D01*
X28995Y220973D01*
X29129Y220950D01*
X29284Y220906D01*
X29451Y220862D01*
X29617Y220795D01*
X29639Y220784D01*
X29695Y220762D01*
X29783Y220717D01*
X29906Y220651D01*
X30039Y220562D01*
X30205Y220451D01*
X30372Y220318D01*
X30561Y220162D01*
X30583Y220140D01*
X30649Y220085D01*
X30705Y220029D01*
X30760Y219974D01*
X30827Y219907D01*
X30916Y219818D01*
X31005Y219729D01*
X31104Y219618D01*
X31215Y219507D01*
X31337Y219374D01*
X31460Y219230D01*
X31604Y219074D01*
X31748Y218897D01*
X31904Y218719D01*
X31915Y218708D01*
X31937Y218686D01*
X31970Y218642D01*
X32015Y218586D01*
X32081Y218520D01*
X32148Y218442D01*
X32292Y218264D01*
X32459Y218076D01*
X32625Y217898D01*
X32769Y217743D01*
X32825Y217676D01*
X32880Y217621D01*
X32891Y217609D01*
X32925Y217576D01*
X32969Y217532D01*
X33036Y217476D01*
X33113Y217421D01*
X33191Y217354D01*
X33380Y217221D01*
Y221006D01*
X34290D01*
Y215911D01*
D02*
G37*
G36*
Y192387D02*
X28285D01*
X28296Y192376D01*
X28340Y192320D01*
X28407Y192254D01*
X28485Y192143D01*
X28585Y192021D01*
X28696Y191865D01*
X28818Y191688D01*
X28940Y191488D01*
Y191477D01*
X28951Y191466D01*
X28995Y191399D01*
X29051Y191288D01*
X29118Y191155D01*
X29195Y191000D01*
X29273Y190833D01*
X29351Y190667D01*
X29417Y190500D01*
X28507D01*
Y190511D01*
X28485Y190533D01*
X28474Y190578D01*
X28440Y190633D01*
X28407Y190700D01*
X28363Y190777D01*
X28252Y190966D01*
X28130Y191188D01*
X27974Y191410D01*
X27797Y191643D01*
X27608Y191876D01*
X27597Y191887D01*
X27586Y191899D01*
X27552Y191932D01*
X27519Y191976D01*
X27408Y192076D01*
X27275Y192209D01*
X27120Y192343D01*
X26942Y192487D01*
X26764Y192609D01*
X26576Y192720D01*
Y193330D01*
X34290D01*
Y192387D01*
D02*
G37*
G36*
X812800Y48271D02*
X812789D01*
X812745D01*
X812678D01*
X812589Y48282D01*
X812489Y48293D01*
X812378Y48316D01*
X812267Y48338D01*
X812145Y48382D01*
X812134D01*
X812123Y48393D01*
X812056Y48415D01*
X811956Y48460D01*
X811823Y48526D01*
X811668Y48615D01*
X811490Y48726D01*
X811313Y48848D01*
X811124Y49004D01*
X811113D01*
X811102Y49026D01*
X811035Y49081D01*
X810935Y49181D01*
X810791Y49326D01*
X810624Y49492D01*
X810425Y49703D01*
X810203Y49958D01*
X809970Y50236D01*
X809958Y50247D01*
X809925Y50291D01*
X809870Y50358D01*
X809803Y50436D01*
X809714Y50535D01*
X809614Y50658D01*
X809503Y50780D01*
X809381Y50924D01*
X809115Y51201D01*
X808848Y51479D01*
X808715Y51612D01*
X808582Y51734D01*
X808460Y51845D01*
X808338Y51934D01*
X808327D01*
X808316Y51956D01*
X808282Y51978D01*
X808238Y52001D01*
X808116Y52078D01*
X807972Y52167D01*
X807794Y52245D01*
X807605Y52323D01*
X807394Y52367D01*
X807195Y52389D01*
X807184D01*
X807172D01*
X807106Y52378D01*
X806995Y52367D01*
X806873Y52334D01*
X806717Y52289D01*
X806562Y52211D01*
X806406Y52112D01*
X806251Y51978D01*
X806229Y51956D01*
X806184Y51901D01*
X806129Y51823D01*
X806051Y51701D01*
X805985Y51546D01*
X805918Y51368D01*
X805874Y51157D01*
X805863Y50924D01*
Y50857D01*
X805874Y50813D01*
X805885Y50680D01*
X805918Y50524D01*
X805963Y50358D01*
X806040Y50169D01*
X806140Y49992D01*
X806273Y49825D01*
X806295Y49803D01*
X806351Y49759D01*
X806440Y49692D01*
X806573Y49625D01*
X806728Y49548D01*
X806928Y49481D01*
X807150Y49437D01*
X807405Y49414D01*
X807306Y48449D01*
X807294D01*
X807261Y48460D01*
X807206D01*
X807128Y48471D01*
X807039Y48493D01*
X806939Y48515D01*
X806817Y48549D01*
X806695Y48582D01*
X806429Y48671D01*
X806162Y48804D01*
X806029Y48882D01*
X805896Y48981D01*
X805774Y49081D01*
X805663Y49192D01*
X805652Y49204D01*
X805641Y49226D01*
X805607Y49259D01*
X805574Y49314D01*
X805530Y49381D01*
X805485Y49459D01*
X805430Y49548D01*
X805374Y49659D01*
X805319Y49781D01*
X805263Y49914D01*
X805219Y50058D01*
X805174Y50214D01*
X805141Y50380D01*
X805108Y50558D01*
X805097Y50746D01*
X805086Y50946D01*
Y51057D01*
X805097Y51135D01*
X805108Y51224D01*
X805119Y51335D01*
X805141Y51457D01*
X805163Y51579D01*
X805241Y51867D01*
X805352Y52156D01*
X805419Y52300D01*
X805496Y52445D01*
X805596Y52578D01*
X805707Y52700D01*
X805718Y52711D01*
X805729Y52733D01*
X805774Y52755D01*
X805818Y52800D01*
X805874Y52855D01*
X805951Y52911D01*
X806029Y52966D01*
X806129Y53033D01*
X806340Y53144D01*
X806606Y53255D01*
X806740Y53299D01*
X806895Y53321D01*
X807050Y53344D01*
X807217Y53355D01*
X807239D01*
X807294D01*
X807383Y53344D01*
X807505Y53333D01*
X807639Y53310D01*
X807794Y53266D01*
X807961Y53222D01*
X808127Y53155D01*
X808149Y53144D01*
X808205Y53122D01*
X808294Y53077D01*
X808416Y53011D01*
X808549Y52922D01*
X808715Y52811D01*
X808882Y52678D01*
X809071Y52522D01*
X809093Y52500D01*
X809159Y52445D01*
X809215Y52389D01*
X809270Y52334D01*
X809337Y52267D01*
X809426Y52178D01*
X809514Y52089D01*
X809614Y51978D01*
X809725Y51867D01*
X809847Y51734D01*
X809970Y51590D01*
X810114Y51434D01*
X810258Y51257D01*
X810414Y51079D01*
X810425Y51068D01*
X810447Y51046D01*
X810480Y51002D01*
X810525Y50946D01*
X810591Y50880D01*
X810658Y50802D01*
X810802Y50624D01*
X810968Y50436D01*
X811135Y50258D01*
X811279Y50103D01*
X811335Y50036D01*
X811390Y49981D01*
X811401Y49969D01*
X811435Y49936D01*
X811479Y49892D01*
X811546Y49836D01*
X811623Y49781D01*
X811701Y49714D01*
X811890Y49581D01*
Y53366D01*
X812800D01*
Y48271D01*
D02*
G37*
G36*
Y24747D02*
X806795D01*
X806806Y24736D01*
X806851Y24680D01*
X806917Y24614D01*
X806995Y24503D01*
X807095Y24381D01*
X807206Y24225D01*
X807328Y24048D01*
X807450Y23848D01*
Y23837D01*
X807461Y23826D01*
X807505Y23759D01*
X807561Y23648D01*
X807627Y23515D01*
X807705Y23359D01*
X807783Y23193D01*
X807861Y23026D01*
X807927Y22860D01*
X807017D01*
Y22871D01*
X806995Y22893D01*
X806984Y22938D01*
X806950Y22993D01*
X806917Y23060D01*
X806873Y23138D01*
X806762Y23326D01*
X806640Y23548D01*
X806484Y23770D01*
X806307Y24003D01*
X806118Y24236D01*
X806107Y24248D01*
X806096Y24259D01*
X806062Y24292D01*
X806029Y24336D01*
X805918Y24436D01*
X805785Y24569D01*
X805630Y24703D01*
X805452Y24847D01*
X805274Y24969D01*
X805086Y25080D01*
Y25690D01*
X812800D01*
Y24747D01*
D02*
G37*
G36*
Y102881D02*
X812789D01*
X812745D01*
X812678D01*
X812589Y102892D01*
X812489Y102903D01*
X812378Y102926D01*
X812267Y102948D01*
X812145Y102992D01*
X812134D01*
X812123Y103003D01*
X812056Y103025D01*
X811956Y103070D01*
X811823Y103136D01*
X811668Y103225D01*
X811490Y103336D01*
X811313Y103458D01*
X811124Y103614D01*
X811113D01*
X811102Y103636D01*
X811035Y103691D01*
X810935Y103791D01*
X810791Y103936D01*
X810624Y104102D01*
X810425Y104313D01*
X810203Y104568D01*
X809970Y104846D01*
X809958Y104857D01*
X809925Y104901D01*
X809870Y104968D01*
X809803Y105046D01*
X809714Y105146D01*
X809614Y105268D01*
X809503Y105390D01*
X809381Y105534D01*
X809115Y105811D01*
X808848Y106089D01*
X808715Y106222D01*
X808582Y106344D01*
X808460Y106455D01*
X808338Y106544D01*
X808327D01*
X808316Y106566D01*
X808282Y106588D01*
X808238Y106611D01*
X808116Y106688D01*
X807972Y106777D01*
X807794Y106855D01*
X807605Y106932D01*
X807394Y106977D01*
X807195Y106999D01*
X807184D01*
X807172D01*
X807106Y106988D01*
X806995Y106977D01*
X806873Y106944D01*
X806717Y106899D01*
X806562Y106821D01*
X806406Y106722D01*
X806251Y106588D01*
X806229Y106566D01*
X806184Y106511D01*
X806129Y106433D01*
X806051Y106311D01*
X805985Y106156D01*
X805918Y105978D01*
X805874Y105767D01*
X805863Y105534D01*
Y105467D01*
X805874Y105423D01*
X805885Y105290D01*
X805918Y105134D01*
X805963Y104968D01*
X806040Y104779D01*
X806140Y104602D01*
X806273Y104435D01*
X806295Y104413D01*
X806351Y104368D01*
X806440Y104302D01*
X806573Y104235D01*
X806728Y104158D01*
X806928Y104091D01*
X807150Y104047D01*
X807405Y104024D01*
X807306Y103059D01*
X807294D01*
X807261Y103070D01*
X807206D01*
X807128Y103081D01*
X807039Y103103D01*
X806939Y103125D01*
X806817Y103159D01*
X806695Y103192D01*
X806429Y103281D01*
X806162Y103414D01*
X806029Y103492D01*
X805896Y103591D01*
X805774Y103691D01*
X805663Y103802D01*
X805652Y103813D01*
X805641Y103836D01*
X805607Y103869D01*
X805574Y103925D01*
X805530Y103991D01*
X805485Y104069D01*
X805430Y104158D01*
X805374Y104269D01*
X805319Y104391D01*
X805263Y104524D01*
X805219Y104668D01*
X805174Y104824D01*
X805141Y104990D01*
X805108Y105168D01*
X805097Y105356D01*
X805086Y105556D01*
Y105667D01*
X805097Y105745D01*
X805108Y105834D01*
X805119Y105945D01*
X805141Y106067D01*
X805163Y106189D01*
X805241Y106477D01*
X805352Y106766D01*
X805419Y106910D01*
X805496Y107055D01*
X805596Y107188D01*
X805707Y107310D01*
X805718Y107321D01*
X805729Y107343D01*
X805774Y107365D01*
X805818Y107410D01*
X805874Y107465D01*
X805951Y107521D01*
X806029Y107576D01*
X806129Y107643D01*
X806340Y107754D01*
X806606Y107865D01*
X806740Y107909D01*
X806895Y107931D01*
X807050Y107954D01*
X807217Y107965D01*
X807239D01*
X807294D01*
X807383Y107954D01*
X807505Y107943D01*
X807639Y107920D01*
X807794Y107876D01*
X807961Y107832D01*
X808127Y107765D01*
X808149Y107754D01*
X808205Y107732D01*
X808294Y107687D01*
X808416Y107621D01*
X808549Y107532D01*
X808715Y107421D01*
X808882Y107288D01*
X809071Y107132D01*
X809093Y107110D01*
X809159Y107055D01*
X809215Y106999D01*
X809270Y106944D01*
X809337Y106877D01*
X809426Y106788D01*
X809514Y106699D01*
X809614Y106588D01*
X809725Y106477D01*
X809847Y106344D01*
X809970Y106200D01*
X810114Y106045D01*
X810258Y105867D01*
X810414Y105689D01*
X810425Y105678D01*
X810447Y105656D01*
X810480Y105612D01*
X810525Y105556D01*
X810591Y105490D01*
X810658Y105412D01*
X810802Y105234D01*
X810968Y105046D01*
X811135Y104868D01*
X811279Y104713D01*
X811335Y104646D01*
X811390Y104591D01*
X811401Y104579D01*
X811435Y104546D01*
X811479Y104502D01*
X811546Y104446D01*
X811623Y104391D01*
X811701Y104324D01*
X811890Y104191D01*
Y107976D01*
X812800D01*
Y102881D01*
D02*
G37*
G36*
Y79357D02*
X806795D01*
X806806Y79346D01*
X806851Y79290D01*
X806917Y79224D01*
X806995Y79113D01*
X807095Y78991D01*
X807206Y78835D01*
X807328Y78658D01*
X807450Y78458D01*
Y78447D01*
X807461Y78436D01*
X807505Y78369D01*
X807561Y78258D01*
X807627Y78125D01*
X807705Y77969D01*
X807783Y77803D01*
X807861Y77636D01*
X807927Y77470D01*
X807017D01*
Y77481D01*
X806995Y77503D01*
X806984Y77548D01*
X806950Y77603D01*
X806917Y77670D01*
X806873Y77748D01*
X806762Y77936D01*
X806640Y78158D01*
X806484Y78380D01*
X806307Y78613D01*
X806118Y78846D01*
X806107Y78857D01*
X806096Y78869D01*
X806062Y78902D01*
X806029Y78946D01*
X805918Y79046D01*
X805785Y79179D01*
X805630Y79313D01*
X805452Y79457D01*
X805274Y79579D01*
X805086Y79690D01*
Y80300D01*
X812800D01*
Y79357D01*
D02*
G37*
G36*
X807931Y137138D02*
X808031Y137127D01*
X808142Y137105D01*
X808253Y137082D01*
X808375Y137038D01*
X808386D01*
X808397Y137027D01*
X808464Y137005D01*
X808564Y136960D01*
X808697Y136894D01*
X808852Y136805D01*
X809030Y136694D01*
X809207Y136572D01*
X809396Y136416D01*
X809407D01*
X809418Y136394D01*
X809485Y136339D01*
X809585Y136239D01*
X809729Y136094D01*
X809896Y135928D01*
X810095Y135717D01*
X810317Y135462D01*
X810550Y135184D01*
X810562Y135173D01*
X810595Y135129D01*
X810650Y135062D01*
X810717Y134984D01*
X810806Y134885D01*
X810906Y134762D01*
X811017Y134640D01*
X811139Y134496D01*
X811405Y134219D01*
X811672Y133941D01*
X811805Y133808D01*
X811938Y133686D01*
X812060Y133575D01*
X812182Y133486D01*
X812193D01*
X812204Y133464D01*
X812238Y133442D01*
X812282Y133419D01*
X812404Y133342D01*
X812548Y133253D01*
X812726Y133175D01*
X812915Y133097D01*
X813126Y133053D01*
X813325Y133031D01*
X813336D01*
X813348D01*
X813414Y133042D01*
X813525Y133053D01*
X813647Y133086D01*
X813803Y133131D01*
X813958Y133209D01*
X814113Y133308D01*
X814269Y133442D01*
X814291Y133464D01*
X814335Y133519D01*
X814391Y133597D01*
X814469Y133719D01*
X814535Y133875D01*
X814602Y134052D01*
X814646Y134263D01*
X814657Y134496D01*
Y134563D01*
X814646Y134607D01*
X814635Y134740D01*
X814602Y134896D01*
X814557Y135062D01*
X814480Y135251D01*
X814380Y135428D01*
X814247Y135595D01*
X814224Y135617D01*
X814169Y135661D01*
X814080Y135728D01*
X813947Y135795D01*
X813792Y135872D01*
X813592Y135939D01*
X813370Y135983D01*
X813114Y136006D01*
X813214Y136971D01*
X813225D01*
X813259Y136960D01*
X813314D01*
X813392Y136949D01*
X813481Y136927D01*
X813581Y136905D01*
X813703Y136871D01*
X813825Y136838D01*
X814091Y136749D01*
X814358Y136616D01*
X814491Y136538D01*
X814624Y136439D01*
X814746Y136339D01*
X814857Y136228D01*
X814868Y136216D01*
X814879Y136194D01*
X814913Y136161D01*
X814946Y136105D01*
X814990Y136039D01*
X815035Y135961D01*
X815090Y135872D01*
X815146Y135761D01*
X815201Y135639D01*
X815257Y135506D01*
X815301Y135362D01*
X815346Y135206D01*
X815379Y135040D01*
X815412Y134862D01*
X815423Y134674D01*
X815434Y134474D01*
Y134363D01*
X815423Y134285D01*
X815412Y134196D01*
X815401Y134085D01*
X815379Y133963D01*
X815357Y133841D01*
X815279Y133553D01*
X815168Y133264D01*
X815101Y133120D01*
X815024Y132975D01*
X814924Y132842D01*
X814813Y132720D01*
X814802Y132709D01*
X814791Y132687D01*
X814746Y132665D01*
X814702Y132620D01*
X814646Y132565D01*
X814569Y132509D01*
X814491Y132454D01*
X814391Y132387D01*
X814180Y132276D01*
X813914Y132165D01*
X813781Y132121D01*
X813625Y132099D01*
X813470Y132076D01*
X813303Y132065D01*
X813281D01*
X813225D01*
X813137Y132076D01*
X813015Y132087D01*
X812881Y132110D01*
X812726Y132154D01*
X812560Y132198D01*
X812393Y132265D01*
X812371Y132276D01*
X812315Y132298D01*
X812226Y132343D01*
X812104Y132409D01*
X811971Y132498D01*
X811805Y132609D01*
X811638Y132742D01*
X811450Y132898D01*
X811427Y132920D01*
X811361Y132975D01*
X811305Y133031D01*
X811250Y133086D01*
X811183Y133153D01*
X811094Y133242D01*
X811005Y133331D01*
X810906Y133442D01*
X810795Y133553D01*
X810673Y133686D01*
X810550Y133830D01*
X810406Y133986D01*
X810262Y134163D01*
X810107Y134341D01*
X810095Y134352D01*
X810073Y134374D01*
X810040Y134418D01*
X809995Y134474D01*
X809929Y134540D01*
X809862Y134618D01*
X809718Y134796D01*
X809551Y134984D01*
X809385Y135162D01*
X809241Y135317D01*
X809185Y135384D01*
X809130Y135440D01*
X809119Y135451D01*
X809085Y135484D01*
X809041Y135528D01*
X808974Y135584D01*
X808897Y135639D01*
X808819Y135706D01*
X808630Y135839D01*
Y132054D01*
X807720D01*
Y137149D01*
X807731D01*
X807775D01*
X807842D01*
X807931Y137138D01*
D02*
G37*
G36*
X813503Y162549D02*
X813525Y162527D01*
X813536Y162482D01*
X813570Y162427D01*
X813603Y162360D01*
X813647Y162283D01*
X813758Y162094D01*
X813880Y161872D01*
X814036Y161650D01*
X814213Y161417D01*
X814402Y161184D01*
X814413Y161173D01*
X814424Y161161D01*
X814458Y161128D01*
X814491Y161084D01*
X814602Y160984D01*
X814735Y160851D01*
X814891Y160717D01*
X815068Y160573D01*
X815246Y160451D01*
X815434Y160340D01*
Y159730D01*
X807720D01*
Y160673D01*
X813725D01*
X813714Y160684D01*
X813670Y160740D01*
X813603Y160806D01*
X813525Y160917D01*
X813425Y161039D01*
X813314Y161195D01*
X813192Y161372D01*
X813070Y161572D01*
Y161583D01*
X813059Y161594D01*
X813015Y161661D01*
X812959Y161772D01*
X812893Y161905D01*
X812815Y162061D01*
X812737Y162227D01*
X812659Y162393D01*
X812593Y162560D01*
X813503D01*
Y162549D01*
D02*
G37*
D15*
X90816Y336258D02*
G03*
X91328Y336742I-27087J29172D01*
G01*
X91328Y336741D02*
G03*
X91886Y337289I-27268J28346D01*
G01*
X757434Y338492D02*
G03*
X757916Y337977I29292J26925D01*
G01*
D02*
G03*
X758461Y337416I28652J27288D01*
G01*
X758571Y337305D02*
G03*
X759130Y336757I27798J27770D01*
G01*
Y336757D02*
G03*
X759642Y336273I27577J28669D01*
G01*
X110341Y429956D02*
X740099Y430055D01*
X132080Y250730D02*
Y254730D01*
X130080Y252730D02*
X134080D01*
X850051Y318889D02*
X850271Y318889D01*
X271D02*
X491Y318889D01*
X1482D01*
X1592Y318889D01*
X1812D01*
X1922Y318889D01*
X2032D01*
X2252Y318889D01*
X2362D01*
X2472Y318889D01*
X2582Y318889D01*
X2692Y318889D01*
X2802Y318889D01*
X2912Y318889D01*
X3133Y318889D01*
X3243Y318889D01*
X3353Y318889D01*
X3463Y318890D01*
X3573Y318890D01*
X3683Y318890D01*
X3793Y318890D01*
X3903Y318890D01*
X4013Y318890D01*
X4123Y318890D01*
X4233Y318890D01*
X4343Y318890D01*
X4453Y318890D01*
X4563Y318890D01*
X4673Y318890D01*
X4783Y318890D01*
X4893Y318890D01*
X5003Y318890D01*
X5113Y318891D01*
X5332Y318891D01*
X5442Y318891D01*
X5662Y318891D01*
X5772Y318891D01*
X5882Y318892D01*
X5992Y318892D01*
X6102Y318892D01*
X6212Y318892D01*
X6322Y318892D01*
X6432Y318892D01*
X6542Y318892D01*
X6651Y318893D01*
X6761Y318893D01*
X6871Y318893D01*
X7091Y318893D01*
X7420Y318894D01*
X7530Y318894D01*
X7640Y318895D01*
X7970Y318895D01*
X8079Y318896D01*
X8189Y318896D01*
X8299Y318896D01*
X8409Y318897D01*
X8518Y318897D01*
X8628Y318897D01*
X8738Y318897D01*
X8848Y318898D01*
X9067Y318899D01*
X9177Y318899D01*
X9287Y318899D01*
X9396Y318900D01*
X9506Y318900D01*
X9616Y318900D01*
X9835Y318901D01*
X10054Y318902D01*
X10274Y318903D01*
X10383Y318903D01*
X10493Y318904D01*
X10602Y318904D01*
X10712Y318905D01*
X10821Y318905D01*
X10931Y318906D01*
X11041Y318906D01*
X11150Y318907D01*
X11260Y318908D01*
X11369Y318908D01*
X11479Y318909D01*
X11588Y318909D01*
X11698Y318910D01*
X11917Y318911D01*
X12135Y318912D01*
X12354Y318914D01*
X12573Y318915D01*
X12792Y318916D01*
X13010Y318918D01*
X13229Y318919D01*
X13448Y318921D01*
X13666Y318923D01*
X13885Y318924D01*
X14103Y318926D01*
X14322Y318928D01*
X14540Y318930D01*
X14758Y318932D01*
X14976Y318934D01*
X15194Y318936D01*
X15412Y318938D01*
X15631Y318940D01*
X15848Y318942D01*
X16066Y318944D01*
X16284Y318947D01*
X16502Y318949D01*
X16720Y318951D01*
X16937Y318954D01*
X17155Y318957D01*
X17372Y318959D01*
X17590Y318962D01*
X17807Y318965D01*
X18024Y318968D01*
X18242Y318971D01*
X18459Y318974D01*
X18676Y318977D01*
X18893Y318980D01*
X19110Y318983D01*
X19327Y318986D01*
X19543Y318990D01*
X19760Y318993D01*
X19977Y318997D01*
X20193Y319001D01*
X20410Y319004D01*
X20626Y319008D01*
X20842Y319012D01*
X21058Y319016D01*
X21275Y319020D01*
X21491Y319024D01*
X21707Y319028D01*
X21923Y319033D01*
X22138Y319037D01*
X22354Y319042D01*
X22570Y319046D01*
X22785Y319051D01*
X23001Y319056D01*
X23216Y319060D01*
X23431Y319065D01*
X23646Y319070D01*
X23861Y319076D01*
X24076Y319081D01*
X24291Y319086D01*
X24506Y319091D01*
X24720Y319097D01*
X24935Y319103D01*
X25150Y319108D01*
X25364Y319114D01*
X25578Y319120D01*
X25792Y319126D01*
X26113Y319135D01*
X26434Y319145D01*
X26755Y319155D01*
X27075Y319165D01*
X27395Y319175D01*
X27715Y319185D01*
X28035Y319196D01*
X28354Y319207D01*
X28673Y319218D01*
X28992Y319230D01*
X29311Y319241D01*
X29629Y319253D01*
X29947Y319266D01*
X30265Y319278D01*
X30582Y319291D01*
X30899Y319304D01*
X31216Y319317D01*
X31533Y319331D01*
X31849Y319345D01*
X32165Y319359D01*
X32481Y319374D01*
X32797Y319389D01*
X33112Y319404D01*
X33427Y319419D01*
X33741Y319435D01*
X34056Y319451D01*
X34370Y319468D01*
X34683Y319484D01*
X34997Y319501D01*
X35310Y319519D01*
X35622Y319536D01*
X35935Y319554D01*
X36247Y319573D01*
X36559Y319591D01*
X36870Y319610D01*
X37181Y319629D01*
X37492Y319649D01*
X37802Y319669D01*
X38112Y319690D01*
X38422Y319710D01*
X38731Y319731D01*
X39040Y319753D01*
X39349Y319774D01*
X39657Y319797D01*
X39965Y319819D01*
X40273Y319842D01*
X40580Y319865D01*
X40887Y319889D01*
X41193Y319913D01*
X41499Y319937D01*
X41805Y319962D01*
X42110Y319987D01*
X42415Y320013D01*
X42719Y320038D01*
X43024Y320065D01*
X43327Y320092D01*
X43631Y320119D01*
X43934Y320146D01*
X44236Y320174D01*
X44538Y320202D01*
X44840Y320231D01*
X45141Y320260D01*
X45442Y320290D01*
X45743Y320320D01*
X46043Y320350D01*
X46342Y320381D01*
X46641Y320413D01*
X46940Y320444D01*
X47238Y320477D01*
X47536Y320509D01*
X47834Y320542D01*
X48131Y320576D01*
X48427Y320610D01*
X48724Y320644D01*
X49019Y320679D01*
X49314Y320714D01*
X49609Y320750D01*
X49903Y320787D01*
X50197Y320823D01*
X50490Y320860D01*
X50783Y320898D01*
X51076Y320936D01*
X51368Y320975D01*
X51659Y321014D01*
X51950Y321054D01*
X52241Y321094D01*
X52531Y321134D01*
X52820Y321175D01*
X53109Y321217D01*
X53398Y321259D01*
X53686Y321301D01*
X53973Y321344D01*
X54260Y321388D01*
X54547Y321432D01*
X54833Y321477D01*
X55118Y321522D01*
X55403Y321568D01*
X55688Y321614D01*
X55971Y321660D01*
X56255Y321708D01*
X56538Y321755D01*
X56820Y321804D01*
X57102Y321853D01*
X57383Y321902D01*
X57664Y321952D01*
X57944Y322002D01*
X58224Y322053D01*
X58503Y322105D01*
X58781Y322157D01*
X59059Y322210D01*
X59337Y322263D01*
X59613Y322317D01*
X59890Y322371D01*
X60166Y322426D01*
X60441Y322482D01*
X60715Y322538D01*
X61080Y322614D01*
X61445Y322691D01*
X61808Y322769D01*
X62170Y322848D01*
X62531Y322928D01*
X62891Y323008D01*
X63250Y323091D01*
X63608Y323174D01*
X63964Y323258D01*
X64320Y323344D01*
X64675Y323430D01*
X65028Y323518D01*
X65380Y323606D01*
X65732Y323696D01*
X66082Y323787D01*
X66431Y323879D01*
X66778Y323973D01*
X67125Y324067D01*
X67471Y324163D01*
X67815Y324259D01*
X68158Y324357D01*
X68500Y324456D01*
X68841Y324557D01*
X69181Y324658D01*
X69519Y324761D01*
X69857Y324865D01*
X70193Y324970D01*
X70528Y325076D01*
X70861Y325184D01*
X71194Y325293D01*
X71525Y325403D01*
X71855Y325514D01*
X72183Y325627D01*
X72511Y325741D01*
X72837Y325856D01*
X73162Y325972D01*
X73486Y326090D01*
X73808Y326209D01*
X74129Y326329D01*
X74449Y326451D01*
X74767Y326574D01*
X75084Y326698D01*
X75400Y326824D01*
X75715Y326951D01*
X76028Y327079D01*
X76339Y327209D01*
X76650Y327340D01*
X76959Y327472D01*
X77267Y327606D01*
X77573Y327741D01*
X77878Y327878D01*
X78182Y328016D01*
X78484Y328155D01*
X78784Y328296D01*
X79084Y328438D01*
X79382Y328582D01*
X79678Y328727D01*
X79974Y328873D01*
X80267Y329021D01*
X80560Y329170D01*
X80850Y329321D01*
X81140Y329473D01*
X81428Y329627D01*
X81714Y329782D01*
X81999Y329939D01*
X82282Y330097D01*
X82635Y330297D01*
X82985Y330499D01*
X83332Y330704D01*
X83677Y330911D01*
X84020Y331121D01*
X84360Y331333D01*
X84698Y331547D01*
X85034Y331763D01*
X85367Y331983D01*
X85698Y332204D01*
X86026Y332429D01*
X86352Y332655D01*
X86739Y332931D01*
X87123Y333209D01*
X87503Y333492D01*
X87880Y333778D01*
X88253Y334068D01*
X88622Y334362D01*
X89049Y334710D01*
X89469Y335062D01*
X89885Y335420D01*
X90354Y335836D01*
X90816Y336258D01*
X91886Y337289D02*
X91996Y337400D01*
X92433Y337848D01*
X92809Y338245D01*
X93128Y338590D01*
X93442Y338939D01*
X93753Y339292D01*
X94060Y339648D01*
X94363Y340008D01*
X94662Y340372D01*
X94909Y340677D01*
X95153Y340986D01*
X95394Y341296D01*
X95633Y341610D01*
X95869Y341925D01*
X96103Y342243D01*
X96334Y342563D01*
X96562Y342886D01*
X96788Y343210D01*
X97012Y343537D01*
X97233Y343866D01*
X97452Y344198D01*
X97668Y344531D01*
X97882Y344867D01*
X98093Y345205D01*
X98302Y345545D01*
X98509Y345887D01*
X98713Y346231D01*
X98915Y346576D01*
X99115Y346924D01*
X99272Y347204D01*
X99429Y347485D01*
X99584Y347767D01*
X99737Y348050D01*
X99889Y348335D01*
X100040Y348621D01*
X100189Y348908D01*
X100337Y349196D01*
X100483Y349485D01*
X100628Y349775D01*
X100771Y350066D01*
X100913Y350359D01*
X101054Y350652D01*
X101193Y350947D01*
X101330Y351242D01*
X101467Y351539D01*
X101602Y351836D01*
X101735Y352135D01*
X101868Y352435D01*
X101999Y352735D01*
X102128Y353037D01*
X102256Y353339D01*
X102383Y353643D01*
X102508Y353947D01*
X102633Y354252D01*
X102755Y354558D01*
X102877Y354865D01*
X102997Y355173D01*
X103116Y355482D01*
X103234Y355791D01*
X103350Y356101D01*
X103465Y356413D01*
X103579Y356725D01*
X103692Y357037D01*
X103803Y357351D01*
X103913Y357665D01*
X104022Y357980D01*
X104129Y358295D01*
X104236Y358612D01*
X104341Y358929D01*
X104445Y359246D01*
X104547Y359565D01*
X104649Y359883D01*
X104749Y360203D01*
X104848Y360523D01*
X104946Y360844D01*
X105043Y361166D01*
X105139Y361488D01*
X105233Y361810D01*
X105326Y362133D01*
X105418Y362457D01*
X105509Y362781D01*
X105599Y363106D01*
X105688Y363431D01*
X105776Y363756D01*
X105862Y364082D01*
X105948Y364409D01*
X106032Y364736D01*
X106115Y365063D01*
X106198Y365391D01*
X106279Y365719D01*
X106359Y366047D01*
X106457Y366458D01*
X106554Y366870D01*
X106649Y367282D01*
X106743Y367695D01*
X106835Y368108D01*
X106926Y368521D01*
X107015Y368935D01*
X107102Y369350D01*
X107188Y369764D01*
X107272Y370179D01*
X107355Y370594D01*
X107436Y371010D01*
X107516Y371425D01*
X107594Y371841D01*
X107671Y372257D01*
X107747Y372673D01*
X107821Y373090D01*
X107893Y373506D01*
X107964Y373923D01*
X108034Y374339D01*
X108103Y374756D01*
X108169Y375172D01*
X108235Y375589D01*
X108300Y376005D01*
X108363Y376421D01*
X108424Y376837D01*
X108485Y377253D01*
X108544Y377669D01*
X108602Y378085D01*
X108658Y378500D01*
X108714Y378915D01*
X108768Y379330D01*
X108820Y379744D01*
X108872Y380158D01*
X108923Y380572D01*
X108972Y380985D01*
X109020Y381398D01*
X109067Y381810D01*
X109113Y382222D01*
X109158Y382633D01*
X109202Y383044D01*
X109244Y383454D01*
X109286Y383864D01*
X109326Y384273D01*
X109366Y384681D01*
X109404Y385089D01*
X109442Y385496D01*
X109478Y385902D01*
X109513Y386307D01*
X109548Y386712D01*
X109581Y387116D01*
X109614Y387519D01*
X109645Y387921D01*
X109676Y388322D01*
X109705Y388722D01*
X109734Y389121D01*
X109762Y389519D01*
X109789Y389916D01*
X109815Y390313D01*
X109841Y390708D01*
X109865Y391102D01*
X109889Y391494D01*
X109912Y391886D01*
X109934Y392277D01*
X109955Y392666D01*
X109976Y393054D01*
X109996Y393441D01*
X110015Y393826D01*
X110030Y394133D01*
X110044Y394440D01*
X110058Y394746D01*
X110071Y395050D01*
X110084Y395354D01*
X110097Y395657D01*
X110109Y395959D01*
X110121Y396260D01*
X110132Y396560D01*
X110143Y396859D01*
X110154Y397158D01*
X110164Y397455D01*
X110174Y397751D01*
X110183Y398046D01*
X110192Y398340D01*
X110201Y398633D01*
X110209Y398925D01*
X110217Y399215D01*
X110225Y399505D01*
X110230Y399722D01*
X110236Y399938D01*
X110241Y400153D01*
X110246Y400367D01*
X110251Y400581D01*
X110256Y400795D01*
X110260Y401007D01*
X110264Y401219D01*
X110269Y401430D01*
X110273Y401641D01*
X110277Y401851D01*
X110280Y402060D01*
X110284Y402269D01*
X110287Y402476D01*
X110291Y402683D01*
X110294Y402890D01*
X110297Y403096D01*
X110300Y403300D01*
X110302Y403504D01*
X110304Y403640D01*
X110306Y403776D01*
X110308Y403911D01*
X110309Y404045D01*
X110311Y404180D01*
X110312Y404314D01*
X110314Y404447D01*
X110315Y404581D01*
X110317Y404714D01*
X110318Y404846D01*
X110319Y404979D01*
X110320Y405111D01*
X110322Y405242D01*
X110323Y405373D01*
X110324Y405504D01*
X110325Y405635D01*
X110326Y405765D01*
X110327Y405895D01*
X110328Y406024D01*
X110329Y406153D01*
X110329Y406282D01*
X110330Y406410D01*
X110331Y406538D01*
X110332Y406666D01*
X110332Y406793D01*
X110333Y406920D01*
X110334Y407047D01*
X110334Y407173D01*
X110335Y407235D01*
X110335Y407298D01*
X110335Y407361D01*
X110335Y407424D01*
X110336Y407486D01*
X110336Y407549D01*
X110336Y407611D01*
X110336Y407673D01*
X110336Y407735D01*
X110337Y407797D01*
X110337Y407859D01*
X110337Y407921D01*
X110337Y407983D01*
X110337Y408045D01*
X110338Y408106D01*
X110338Y408167D01*
X110338Y408229D01*
X110338Y408290D01*
X110338Y408351D01*
X110338Y408412D01*
X110339Y408473D01*
X110339Y408534D01*
X110339Y408595D01*
X110339Y408656D01*
X110339Y408716D01*
X110339Y408777D01*
X110339Y408837D01*
X110339Y408897D01*
X110340Y408957D01*
X110340Y409017D01*
X110340Y409077D01*
X110340Y409137D01*
X110340Y409197D01*
X110340Y409257D01*
X110340Y409316D01*
X110340Y409376D01*
X110340Y409435D01*
X110340Y409494D01*
X110340Y409553D01*
X110340Y409612D01*
X110340Y409671D01*
X110340Y409730D01*
X110341Y409789D01*
X110341Y409847D01*
X110341Y409906D01*
X110341Y409964D01*
X110341Y410023D01*
X110341Y410081D01*
X110341Y410139D01*
X110341Y410197D01*
X110341Y410255D01*
Y410312D01*
X110341Y410370D01*
X110341Y410428D01*
X110341Y410485D01*
Y410542D01*
X110341Y410600D01*
Y410657D01*
X110341Y410714D01*
Y410827D01*
X110341Y410884D01*
Y429956D01*
X740099Y429388D02*
Y430055D01*
Y429388D02*
X740099Y429277D01*
Y428832D02*
Y429277D01*
Y428832D02*
X740099Y428721D01*
Y428499D02*
Y428721D01*
Y428499D02*
X740099Y428388D01*
Y428276D02*
Y428388D01*
Y428276D02*
X740099Y428165D01*
Y428054D02*
Y428165D01*
Y428054D02*
X740099Y427721D01*
X740099Y427610D01*
X740099Y427498D01*
X740099Y427387D01*
X740099Y427276D01*
X740099Y427165D01*
X740099Y427054D01*
X740099Y426943D01*
X740099Y426832D01*
X740100Y426609D01*
X740100Y426387D01*
X740100Y426276D01*
X740100Y426165D01*
X740100Y425943D01*
X740100Y425832D01*
X740100Y425721D01*
X740100Y425610D01*
X740100Y425499D01*
X740100Y425387D01*
X740100Y425276D01*
X740101Y425165D01*
X740101Y425054D01*
X740101Y424943D01*
X740101Y424832D01*
X740101Y424721D01*
X740101Y424610D01*
X740101Y424499D01*
X740101Y424388D01*
X740102Y424166D01*
X740102Y424055D01*
X740102Y423944D01*
X740102Y423833D01*
X740102Y423722D01*
X740103Y423611D01*
X740103Y423500D01*
X740103Y423389D01*
X740103Y423278D01*
X740103Y423167D01*
X740104Y423056D01*
X740104Y422945D01*
X740104Y422834D01*
X740104Y422723D01*
X740105Y422502D01*
X740105Y422280D01*
X740106Y422169D01*
X740106Y422058D01*
X740106Y421947D01*
X740106Y421836D01*
X740107Y421725D01*
X740107Y421615D01*
X740107Y421504D01*
X740108Y421393D01*
X740108Y421282D01*
X740108Y421171D01*
X740109Y421060D01*
X740109Y420839D01*
X740110Y420617D01*
X740111Y420507D01*
X740111Y420396D01*
X740111Y420285D01*
X740112Y420064D01*
X740113Y419953D01*
X740113Y419842D01*
X740114Y419621D01*
X740115Y419510D01*
X740116Y419289D01*
X740117Y419068D01*
X740117Y418957D01*
X740118Y418736D01*
X740120Y418515D01*
X740121Y418293D01*
X740122Y418073D01*
X740123Y417851D01*
X740125Y417631D01*
X740126Y417410D01*
X740128Y417189D01*
X740129Y416968D01*
X740131Y416747D01*
X740132Y416526D01*
X740134Y416306D01*
X740136Y416085D01*
X740137Y415865D01*
X740139Y415644D01*
X740141Y415424D01*
X740143Y415203D01*
X740145Y414983D01*
X740147Y414763D01*
X740149Y414543D01*
X740152Y414323D01*
X740154Y414103D01*
X740156Y413882D01*
X740158Y413663D01*
X740161Y413443D01*
X740163Y413223D01*
X740166Y413003D01*
X740169Y412784D01*
X740171Y412564D01*
X740174Y412344D01*
X740177Y412125D01*
X740180Y411906D01*
X740183Y411686D01*
X740186Y411467D01*
X740189Y411248D01*
X740192Y411029D01*
X740196Y410810D01*
X740199Y410591D01*
X740203Y410372D01*
X740206Y410153D01*
X740210Y409935D01*
X740213Y409716D01*
X740217Y409497D01*
X740221Y409279D01*
X740225Y409061D01*
X740229Y408842D01*
X740233Y408624D01*
X740237Y408406D01*
X740241Y408188D01*
X740246Y407970D01*
X740250Y407752D01*
X740255Y407534D01*
X740259Y407317D01*
X740264Y407099D01*
X740269Y406882D01*
X740274Y406664D01*
X740279Y406447D01*
X740284Y406230D01*
X740289Y406013D01*
X740294Y405796D01*
X740300Y405579D01*
X740305Y405362D01*
X740311Y405145D01*
X740317Y404929D01*
X740322Y404712D01*
X740331Y404388D01*
X740340Y404063D01*
X740350Y403739D01*
X740359Y403415D01*
X740369Y403092D01*
X740379Y402769D01*
X740389Y402445D01*
X740400Y402122D01*
X740411Y401800D01*
X740422Y401478D01*
X740433Y401156D01*
X740445Y400834D01*
X740456Y400512D01*
X740469Y400191D01*
X740481Y399870D01*
X740493Y399549D01*
X740506Y399229D01*
X740520Y398908D01*
X740533Y398588D01*
X740547Y398269D01*
X740561Y397949D01*
X740575Y397630D01*
X740590Y397312D01*
X740605Y396993D01*
X740620Y396675D01*
X740636Y396357D01*
X740651Y396040D01*
X740667Y395723D01*
X740684Y395406D01*
X740701Y395089D01*
X740718Y394773D01*
X740735Y394457D01*
X740753Y394141D01*
X740771Y393826D01*
X740789Y393511D01*
X740808Y393196D01*
X740827Y392882D01*
X740846Y392568D01*
X740866Y392255D01*
X740886Y391941D01*
X740907Y391628D01*
X740928Y391316D01*
X740949Y391004D01*
X740970Y390692D01*
X740992Y390380D01*
X741014Y390069D01*
X741037Y389759D01*
X741060Y389448D01*
X741083Y389138D01*
X741107Y388829D01*
X741131Y388519D01*
X741155Y388210D01*
X741180Y387902D01*
X741205Y387594D01*
X741231Y387286D01*
X741257Y386979D01*
X741283Y386672D01*
X741310Y386366D01*
X741337Y386060D01*
X741365Y385754D01*
X741393Y385449D01*
X741421Y385144D01*
X741450Y384839D01*
X741479Y384535D01*
X741509Y384232D01*
X741539Y383929D01*
X741569Y383626D01*
X741600Y383324D01*
X741631Y383022D01*
X741663Y382720D01*
X741695Y382419D01*
X741728Y382119D01*
X741761Y381819D01*
X741795Y381519D01*
X741829Y381220D01*
X741863Y380921D01*
X741898Y380623D01*
X741933Y380325D01*
X741969Y380027D01*
X742005Y379730D01*
X742042Y379434D01*
X742079Y379138D01*
X742117Y378843D01*
X742155Y378548D01*
X742194Y378253D01*
X742233Y377959D01*
X742272Y377666D01*
X742313Y377373D01*
X742353Y377080D01*
X742394Y376788D01*
X742436Y376496D01*
X742478Y376205D01*
X742520Y375915D01*
X742563Y375625D01*
X742607Y375335D01*
X742651Y375046D01*
X742696Y374758D01*
X742741Y374470D01*
X742786Y374182D01*
X742833Y373895D01*
X742879Y373609D01*
X742927Y373323D01*
X742974Y373038D01*
X743023Y372753D01*
X743071Y372469D01*
X743121Y372185D01*
X743171Y371902D01*
X743221Y371619D01*
X743272Y371337D01*
X743324Y371056D01*
X743376Y370775D01*
X743428Y370494D01*
X743500Y370121D01*
X743572Y369749D01*
X743645Y369379D01*
X743719Y369009D01*
X743794Y368640D01*
X743870Y368272D01*
X743947Y367905D01*
X744026Y367540D01*
X744105Y367175D01*
X744185Y366811D01*
X744267Y366449D01*
X744349Y366088D01*
X744433Y365727D01*
X744518Y365368D01*
X744604Y365010D01*
X744690Y364653D01*
X744778Y364297D01*
X744867Y363942D01*
X744958Y363589D01*
X745049Y363236D01*
X745142Y362885D01*
X745235Y362535D01*
X745330Y362186D01*
X745426Y361838D01*
X745523Y361491D01*
X745622Y361146D01*
X745721Y360802D01*
X745822Y360459D01*
X745924Y360117D01*
X746027Y359776D01*
X746131Y359437D01*
X746237Y359099D01*
X746343Y358761D01*
X746451Y358426D01*
X746561Y358091D01*
X746671Y357758D01*
X746783Y357426D01*
X746896Y357095D01*
X747010Y356766D01*
X747125Y356438D01*
X747242Y356111D01*
X747360Y355785D01*
X747480Y355461D01*
X747600Y355138D01*
X747722Y354817D01*
X747846Y354496D01*
X747970Y354178D01*
X748096Y353860D01*
X748223Y353544D01*
X748352Y353229D01*
X748482Y352915D01*
X748613Y352603D01*
X748746Y352292D01*
X748880Y351983D01*
X749015Y351675D01*
X749152Y351368D01*
X749290Y351063D01*
X749430Y350759D01*
X749571Y350457D01*
X749714Y350156D01*
X749857Y349856D01*
X750003Y349558D01*
X750149Y349262D01*
X750297Y348967D01*
X750447Y348673D01*
X750598Y348381D01*
X750751Y348090D01*
X750905Y347801D01*
X751060Y347513D01*
X751217Y347226D01*
X751376Y346942D01*
X751535Y346658D01*
X751738Y346306D01*
X751942Y345957D01*
X752149Y345610D01*
X752358Y345265D01*
X752570Y344923D01*
X752784Y344583D01*
X753000Y344245D01*
X753219Y343910D01*
X753440Y343578D01*
X753664Y343248D01*
X753891Y342920D01*
X754119Y342596D01*
X754397Y342209D01*
X754679Y341826D01*
X754964Y341447D01*
X755253Y341072D01*
X755546Y340700D01*
X755892Y340271D01*
X756243Y339847D01*
X756600Y339429D01*
X757013Y338957D01*
X757434Y338492D01*
X758461Y337416D02*
X758571Y337305D01*
X759642Y336273D02*
X760104Y335850D01*
X760574Y335435D01*
X760990Y335076D01*
X761411Y334724D01*
X761838Y334376D01*
X762207Y334082D01*
X762581Y333791D01*
X762958Y333505D01*
X763338Y333222D01*
X763723Y332943D01*
X764111Y332667D01*
X764437Y332440D01*
X764765Y332216D01*
X765096Y331994D01*
X765430Y331775D01*
X765765Y331558D01*
X766104Y331343D01*
X766444Y331131D01*
X766787Y330922D01*
X767133Y330714D01*
X767481Y330509D01*
X767831Y330307D01*
X768184Y330107D01*
X768467Y329949D01*
X768753Y329792D01*
X769039Y329636D01*
X769327Y329482D01*
X769617Y329330D01*
X769908Y329179D01*
X770201Y329030D01*
X770495Y328882D01*
X770790Y328735D01*
X771087Y328590D01*
X771385Y328446D01*
X771685Y328304D01*
X771986Y328163D01*
X772288Y328024D01*
X772592Y327886D01*
X772897Y327749D01*
X773204Y327614D01*
X773512Y327480D01*
X773821Y327347D01*
X774132Y327216D01*
X774444Y327086D01*
X774758Y326958D01*
X775072Y326831D01*
X775388Y326705D01*
X775706Y326581D01*
X776025Y326458D01*
X776345Y326336D01*
X776666Y326216D01*
X776989Y326096D01*
X777312Y325979D01*
X777638Y325862D01*
X777964Y325747D01*
X778292Y325633D01*
X778621Y325520D01*
X778951Y325409D01*
X779283Y325298D01*
X779615Y325190D01*
X779949Y325082D01*
X780284Y324975D01*
X780621Y324870D01*
X780958Y324766D01*
X781297Y324663D01*
X781637Y324562D01*
X781978Y324461D01*
X782321Y324362D01*
X782664Y324264D01*
X783009Y324167D01*
X783355Y324072D01*
X783702Y323977D01*
X784050Y323884D01*
X784399Y323791D01*
X784750Y323700D01*
X785101Y323610D01*
X785454Y323522D01*
X785808Y323434D01*
X786163Y323347D01*
X786519Y323262D01*
X786876Y323178D01*
X787234Y323094D01*
X787593Y323012D01*
X787953Y322931D01*
X788315Y322851D01*
X788677Y322772D01*
X789041Y322694D01*
X789405Y322617D01*
X789771Y322541D01*
X790046Y322485D01*
X790321Y322430D01*
X790597Y322374D01*
X790873Y322320D01*
X791151Y322266D01*
X791428Y322213D01*
X791706Y322160D01*
X791985Y322108D01*
X792265Y322056D01*
X792544Y322005D01*
X792825Y321955D01*
X793106Y321905D01*
X793387Y321855D01*
X793670Y321806D01*
X793952Y321758D01*
X794235Y321710D01*
X794519Y321663D01*
X794803Y321616D01*
X795088Y321570D01*
X795373Y321524D01*
X795659Y321479D01*
X795945Y321434D01*
X796232Y321390D01*
X796519Y321347D01*
X796807Y321303D01*
X797095Y321261D01*
X797384Y321219D01*
X797673Y321177D01*
X797963Y321136D01*
X798253Y321096D01*
X798544Y321055D01*
X798835Y321016D01*
X799127Y320977D01*
X799419Y320938D01*
X799712Y320900D01*
X800005Y320862D01*
X800299Y320825D01*
X800593Y320788D01*
X800887Y320752D01*
X801182Y320716D01*
X801478Y320681D01*
X801774Y320646D01*
X802070Y320611D01*
X802367Y320577D01*
X802664Y320544D01*
X802962Y320511D01*
X803260Y320478D01*
X803559Y320446D01*
X803858Y320414D01*
X804157Y320383D01*
X804457Y320352D01*
X804757Y320321D01*
X805058Y320291D01*
X805359Y320262D01*
X805661Y320232D01*
X805963Y320204D01*
X806265Y320175D01*
X806568Y320147D01*
X806871Y320120D01*
X807175Y320093D01*
X807479Y320066D01*
X807783Y320039D01*
X808088Y320014D01*
X808393Y319988D01*
X808699Y319963D01*
X809005Y319938D01*
X809311Y319914D01*
X809618Y319890D01*
X809925Y319866D01*
X810232Y319843D01*
X810540Y319820D01*
X810848Y319797D01*
X811157Y319775D01*
X811466Y319753D01*
X811775Y319732D01*
X812085Y319711D01*
X812395Y319690D01*
X812705Y319670D01*
X813016Y319650D01*
X813327Y319630D01*
X813638Y319611D01*
X813950Y319592D01*
X814262Y319573D01*
X814574Y319555D01*
X814887Y319537D01*
X815200Y319519D01*
X815513Y319502D01*
X815827Y319485D01*
X816141Y319468D01*
X816455Y319452D01*
X816770Y319436D01*
X817085Y319420D01*
X817400Y319404D01*
X817715Y319389D01*
X818031Y319374D01*
X818347Y319360D01*
X818663Y319346D01*
X818980Y319332D01*
X819297Y319318D01*
X819614Y319305D01*
X819932Y319291D01*
X820250Y319279D01*
X820568Y319266D01*
X820886Y319254D01*
X821205Y319242D01*
X821524Y319230D01*
X821843Y319218D01*
X822162Y319207D01*
X822482Y319196D01*
X822802Y319186D01*
X823122Y319175D01*
X823442Y319165D01*
X823763Y319155D01*
X824084Y319145D01*
X824405Y319136D01*
X824726Y319126D01*
X824940Y319120D01*
X825155Y319114D01*
X825369Y319109D01*
X825584Y319103D01*
X825799Y319097D01*
X826014Y319092D01*
X826229Y319086D01*
X826444Y319081D01*
X826659Y319076D01*
X826874Y319071D01*
X827089Y319065D01*
X827305Y319061D01*
X827521Y319056D01*
X827736Y319051D01*
X827952Y319046D01*
X828168Y319042D01*
X828383Y319037D01*
X828599Y319033D01*
X828816Y319028D01*
X829032Y319024D01*
X829248Y319020D01*
X829464Y319016D01*
X829681Y319012D01*
X829897Y319008D01*
X830114Y319004D01*
X830330Y319001D01*
X830547Y318997D01*
X830764Y318993D01*
X830981Y318990D01*
X831198Y318987D01*
X831415Y318983D01*
X831632Y318980D01*
X831849Y318977D01*
X832066Y318974D01*
X832284Y318971D01*
X832501Y318968D01*
X832719Y318965D01*
X832936Y318962D01*
X833154Y318959D01*
X833372Y318957D01*
X833589Y318954D01*
X833807Y318951D01*
X834025Y318949D01*
X834243Y318947D01*
X834461Y318944D01*
X834679Y318942D01*
X834897Y318940D01*
X835116Y318938D01*
X835334Y318936D01*
X835552Y318934D01*
X835770Y318932D01*
X835989Y318930D01*
X836208Y318928D01*
X836426Y318926D01*
X836645Y318924D01*
X836863Y318923D01*
X837082Y318921D01*
X837301Y318920D01*
X837520Y318918D01*
X837739Y318916D01*
X837958Y318915D01*
X838176Y318914D01*
X838396Y318912D01*
X838615Y318911D01*
X838834Y318910D01*
X838943Y318909D01*
X839163Y318908D01*
X839272Y318908D01*
X839382Y318907D01*
X839601Y318906D01*
X839711Y318905D01*
X839930Y318904D01*
X840040Y318904D01*
X840150Y318903D01*
X840259Y318903D01*
X840369Y318902D01*
X840479Y318902D01*
X840808Y318901D01*
X840918Y318900D01*
X841137Y318900D01*
X841357Y318899D01*
X841467Y318899D01*
X841577Y318898D01*
X841686Y318898D01*
X841796Y318897D01*
X841906Y318897D01*
X842016Y318897D01*
X842126Y318897D01*
X842236Y318896D01*
X842455Y318896D01*
X842675Y318895D01*
X842785Y318895D01*
X843005Y318894D01*
X843225Y318894D01*
X843445Y318893D01*
X843555Y318893D01*
X843775Y318893D01*
X843995Y318892D01*
X844105Y318892D01*
X844215Y318892D01*
X844325Y318892D01*
X844435Y318892D01*
X844545Y318892D01*
X844655Y318892D01*
X844765Y318891D01*
X844875Y318891D01*
X844985Y318891D01*
X845205Y318891D01*
X845425Y318891D01*
X845535Y318890D01*
X845645Y318890D01*
X845865Y318890D01*
X846086Y318890D01*
X846196Y318890D01*
X846306Y318890D01*
X846526Y318890D01*
X846636Y318890D01*
X846746Y318890D01*
X846856Y318890D01*
X846966Y318890D01*
X847076Y318890D01*
X847187Y318889D01*
X847407Y318889D01*
X847627Y318889D01*
X847737Y318889D01*
X847847Y318889D01*
X847958Y318889D01*
X848068Y318889D01*
X848178Y318889D01*
X848288D01*
X848508Y318889D01*
X848618D01*
X848729Y318889D01*
X848949D01*
X849059Y318889D01*
X850051D01*
D124*
X44550Y228340D02*
G03*
X41750Y231140I-2800J0D01*
G01*
X21750Y231140D02*
G03*
X18950Y228340I0J-2800D01*
G01*
X41750Y180340D02*
G03*
X44550Y182740I200J2600D01*
G01*
X18950D02*
G03*
X21750Y180340I2600J200D01*
G01*
X39750Y193040D02*
G03*
X39750Y193040I-8000J0D01*
G01*
Y218440D02*
G03*
X39750Y218440I-8000J0D01*
G01*
X823060Y60700D02*
G03*
X820260Y63500I-2800J0D01*
G01*
X800260Y63500D02*
G03*
X797460Y60700I0J-2800D01*
G01*
X820260Y12700D02*
G03*
X823060Y15100I200J2600D01*
G01*
X797460D02*
G03*
X800260Y12700I2600J200D01*
G01*
X818260Y25400D02*
G03*
X818260Y25400I-8000J0D01*
G01*
Y50800D02*
G03*
X818260Y50800I-8000J0D01*
G01*
X823060Y115310D02*
G03*
X820260Y118110I-2800J0D01*
G01*
X800260Y118110D02*
G03*
X797460Y115310I0J-2800D01*
G01*
X820260Y67310D02*
G03*
X823060Y69710I200J2600D01*
G01*
X797460D02*
G03*
X800260Y67310I2600J200D01*
G01*
X818260Y80010D02*
G03*
X818260Y80010I-8000J0D01*
G01*
Y105410D02*
G03*
X818260Y105410I-8000J0D01*
G01*
X797460Y124720D02*
G03*
X800260Y121920I2800J0D01*
G01*
X820260Y121920D02*
G03*
X823060Y124720I0J2800D01*
G01*
X800260Y172720D02*
G03*
X797460Y170320I-200J-2600D01*
G01*
X823060D02*
G03*
X820260Y172720I-2600J-200D01*
G01*
X818260Y160020D02*
G03*
X818260Y160020I-8000J0D01*
G01*
Y134620D02*
G03*
X818260Y134620I-8000J0D01*
G01*
X21750Y231140D02*
X41750D01*
X21750Y180340D02*
X41750D01*
X18950Y182740D02*
Y203200D01*
X44550Y182740D02*
Y203100D01*
X18950Y228600D02*
X19050D01*
X44450D02*
X44550D01*
Y208280D02*
Y228600D01*
X18950Y208280D02*
Y228600D01*
X19050Y208280D02*
X21590Y205740D01*
X19050Y203200D02*
X21590Y205740D01*
X42010D02*
X44550Y208280D01*
X41910Y205740D02*
X42010D01*
X41910D02*
X44450Y203200D01*
X21590Y205740D02*
X42010D01*
X800260Y63500D02*
X820260D01*
X800260Y12700D02*
X820260D01*
X797460Y15100D02*
Y35560D01*
X823060Y15100D02*
Y35460D01*
X797460Y60960D02*
X797560D01*
X822960D02*
X823060D01*
Y40640D02*
Y60960D01*
X797460Y40640D02*
Y60960D01*
X797560Y40640D02*
X800100Y38100D01*
X797560Y35560D02*
X800100Y38100D01*
X820520D02*
X823060Y40640D01*
X820420Y38100D02*
X820520D01*
X820420D02*
X822960Y35560D01*
X800100Y38100D02*
X820520D01*
X800260Y118110D02*
X820260D01*
X800260Y67310D02*
X820260D01*
X797460Y69710D02*
Y90170D01*
X823060Y69710D02*
Y90070D01*
X797460Y115570D02*
X797560D01*
X822960D02*
X823060D01*
Y95250D02*
Y115570D01*
X797460Y95250D02*
Y115570D01*
X797560Y95250D02*
X800100Y92710D01*
X797560Y90170D02*
X800100Y92710D01*
X820520D02*
X823060Y95250D01*
X820420Y92710D02*
X820520D01*
X820420D02*
X822960Y90170D01*
X800100Y92710D02*
X820520D01*
X800260Y121920D02*
X820260D01*
X800260Y172720D02*
X820260D01*
X823060Y149860D02*
Y170320D01*
X797460Y149960D02*
Y170320D01*
X822960Y124460D02*
X823060D01*
X797460D02*
X797560D01*
X797460D02*
Y144780D01*
X823060Y124460D02*
Y144780D01*
X820420Y147320D02*
X822960Y144780D01*
X820420Y147320D02*
X822960Y149860D01*
X797460Y144780D02*
X800000Y147320D01*
X800100D01*
X797560Y149860D02*
X800100Y147320D01*
X800000D02*
X820420D01*
X23253Y206240D02*
X31250D01*
X27251D01*
Y211572D01*
X23253D01*
X31250D01*
X23253Y214237D02*
X31250D01*
Y218236D01*
X29917Y219569D01*
X24585D01*
X23253Y218236D01*
Y214237D01*
X24585Y222235D02*
X23253Y223568D01*
Y226234D01*
X24585Y227566D01*
X25918D01*
X28584Y224901D01*
X29917D02*
X31250D01*
X818757Y146820D02*
X810760D01*
X814759D01*
Y141488D01*
X818757D01*
X810760D01*
X818757Y138823D02*
X810760D01*
Y134824D01*
X812093Y133491D01*
X817424D01*
X818757Y134824D01*
Y138823D01*
X817424Y130825D02*
X818757Y129492D01*
Y126826D01*
X817424Y125494D01*
X816092D01*
X813426Y128159D01*
X812093D02*
X810760D01*
X801763Y38600D02*
X809760D01*
X805761D01*
Y43932D01*
X801763D01*
X809760D01*
X801763Y46597D02*
X809760D01*
Y50596D01*
X808427Y51929D01*
X803095D01*
X801763Y50596D01*
Y46597D01*
X803095Y54595D02*
X801763Y55928D01*
Y58594D01*
X803095Y59926D01*
X804428D01*
X807094Y57261D01*
X808427D02*
X809760D01*
X801763Y93210D02*
X809760D01*
X805761D01*
Y98542D01*
X801763D01*
X809760D01*
X801763Y101207D02*
X809760D01*
Y105206D01*
X808427Y106539D01*
X803095D01*
X801763Y105206D01*
Y101207D01*
X803095Y109205D02*
X801763Y110538D01*
Y113203D01*
X803095Y114536D01*
X804428D01*
X807094Y111871D01*
X808427D02*
X809760D01*
M02*
