G04*
G04 #@! TF.GenerationSoftware,Altium Limited,Altium Designer,23.6.0 (18)*
G04*
G04 Layer_Color=255*
%FSLAX44Y44*%
%MOMM*%
G71*
G04*
G04 #@! TF.SameCoordinates,157544A1-0EA0-4F56-A15C-28E52037D784*
G04*
G04*
G04 #@! TF.FilePolarity,Positive*
G04*
G01*
G75*
%ADD36C,2.0000*%
%ADD56C,1.5000*%
%ADD94C,1.8000*%
%ADD102R,1.8000X1.8000*%
%ADD112O,1.6510X2.5400*%
%ADD113R,1.6510X2.5400*%
%ADD114C,1.6000*%
%ADD115R,1.5000X1.5000*%
%ADD116R,4.0640X2.5400*%
%ADD117R,2.5400X4.0640*%
%ADD118C,1.7780*%
%ADD119R,1.5000X1.5000*%
%ADD120R,1.5200X1.5200*%
%ADD121C,1.5200*%
D36*
X725170Y-91440D02*
D03*
X123190D02*
D03*
D56*
X246380Y-43053D02*
D03*
X149252Y286535D02*
D03*
X208280Y51000D02*
D03*
X205940Y287020D02*
D03*
D94*
X86210Y277113D02*
D03*
D102*
X35710Y302007D02*
D03*
D112*
X779780Y31750D02*
D03*
X754380D02*
D03*
D113*
X728980D02*
D03*
D114*
X403860Y-43180D02*
D03*
X429260D02*
D03*
X454660D02*
D03*
X480060D02*
D03*
X505460D02*
D03*
X530860D02*
D03*
X556260D02*
D03*
X581660D02*
D03*
X31750Y193040D02*
D03*
Y218440D02*
D03*
X810260Y25400D02*
D03*
Y50800D02*
D03*
Y80010D02*
D03*
Y105410D02*
D03*
Y160020D02*
D03*
Y134620D02*
D03*
X673100Y129540D02*
D03*
Y104140D02*
D03*
Y78740D02*
D03*
Y53340D02*
D03*
D115*
X170180Y-43180D02*
D03*
X230940Y287020D02*
D03*
D116*
X115570Y33020D02*
D03*
D117*
X77470Y83820D02*
D03*
X140970D02*
D03*
D118*
X102870Y160020D02*
D03*
Y210820D02*
D03*
X137160Y215900D02*
D03*
Y156210D02*
D03*
D119*
X149252Y311935D02*
D03*
X208280Y76000D02*
D03*
D120*
X521970Y328930D02*
D03*
D121*
Y354330D02*
D03*
Y379730D02*
D03*
Y405130D02*
D03*
M02*
