G04*
G04 #@! TF.GenerationSoftware,Altium Limited,Altium Designer,23.6.0 (18)*
G04*
G04 Layer_Color=8388736*
%FSLAX44Y44*%
%MOMM*%
G71*
G04*
G04 #@! TF.SameCoordinates,157544A1-0EA0-4F56-A15C-28E52037D784*
G04*
G04*
G04 #@! TF.FilePolarity,Negative*
G04*
G01*
G75*
%ADD36C,2.0000*%
%ADD43R,0.9500X0.9000*%
G04:AMPARAMS|DCode=50|XSize=2.794mm|YSize=1.8mm|CornerRadius=0.225mm|HoleSize=0mm|Usage=FLASHONLY|Rotation=180.000|XOffset=0mm|YOffset=0mm|HoleType=Round|Shape=RoundedRectangle|*
%AMROUNDEDRECTD50*
21,1,2.7940,1.3500,0,0,180.0*
21,1,2.3440,1.8000,0,0,180.0*
1,1,0.4500,-1.1720,0.6750*
1,1,0.4500,1.1720,0.6750*
1,1,0.4500,1.1720,-0.6750*
1,1,0.4500,-1.1720,-0.6750*
%
%ADD50ROUNDEDRECTD50*%
%ADD56C,1.5000*%
G04:AMPARAMS|DCode=59|XSize=0.4832mm|YSize=1.7632mm|CornerRadius=0.1716mm|HoleSize=0mm|Usage=FLASHONLY|Rotation=0.000|XOffset=0mm|YOffset=0mm|HoleType=Round|Shape=RoundedRectangle|*
%AMROUNDEDRECTD59*
21,1,0.4832,1.4200,0,0,0.0*
21,1,0.1400,1.7632,0,0,0.0*
1,1,0.3432,0.0700,-0.7100*
1,1,0.3432,-0.0700,-0.7100*
1,1,0.3432,-0.0700,0.7100*
1,1,0.3432,0.0700,0.7100*
%
%ADD59ROUNDEDRECTD59*%
G04:AMPARAMS|DCode=60|XSize=0.4832mm|YSize=1.7632mm|CornerRadius=0.1716mm|HoleSize=0mm|Usage=FLASHONLY|Rotation=270.000|XOffset=0mm|YOffset=0mm|HoleType=Round|Shape=RoundedRectangle|*
%AMROUNDEDRECTD60*
21,1,0.4832,1.4200,0,0,270.0*
21,1,0.1400,1.7632,0,0,270.0*
1,1,0.3432,-0.7100,-0.0700*
1,1,0.3432,-0.7100,0.0700*
1,1,0.3432,0.7100,0.0700*
1,1,0.3432,0.7100,-0.0700*
%
%ADD60ROUNDEDRECTD60*%
%ADD61R,1.1032X0.8032*%
%ADD62R,2.4032X1.1032*%
%ADD63R,4.9032X4.9032*%
%ADD64R,1.6032X1.4032*%
%ADD65R,0.8032X1.1032*%
%ADD66R,1.1032X1.2032*%
%ADD67R,1.4032X1.0032*%
%ADD68O,2.0032X0.8032*%
G04:AMPARAMS|DCode=69|XSize=1.1032mm|YSize=1.4032mm|CornerRadius=0.2141mm|HoleSize=0mm|Usage=FLASHONLY|Rotation=90.000|XOffset=0mm|YOffset=0mm|HoleType=Round|Shape=RoundedRectangle|*
%AMROUNDEDRECTD69*
21,1,1.1032,0.9750,0,0,90.0*
21,1,0.6750,1.4032,0,0,90.0*
1,1,0.4282,0.4875,0.3375*
1,1,0.4282,0.4875,-0.3375*
1,1,0.4282,-0.4875,-0.3375*
1,1,0.4282,-0.4875,0.3375*
%
%ADD69ROUNDEDRECTD69*%
%ADD70R,2.5531X0.8221*%
G04:AMPARAMS|DCode=71|XSize=2.5531mm|YSize=0.8221mm|CornerRadius=0.4111mm|HoleSize=0mm|Usage=FLASHONLY|Rotation=180.000|XOffset=0mm|YOffset=0mm|HoleType=Round|Shape=RoundedRectangle|*
%AMROUNDEDRECTD71*
21,1,2.5531,0.0000,0,0,180.0*
21,1,1.7310,0.8221,0,0,180.0*
1,1,0.8221,-0.8655,0.0000*
1,1,0.8221,0.8655,0.0000*
1,1,0.8221,0.8655,0.0000*
1,1,0.8221,-0.8655,0.0000*
%
%ADD71ROUNDEDRECTD71*%
%ADD72R,1.5000X2.5000*%
G04:AMPARAMS|DCode=73|XSize=1.5532mm|YSize=1.8232mm|CornerRadius=0.2704mm|HoleSize=0mm|Usage=FLASHONLY|Rotation=90.000|XOffset=0mm|YOffset=0mm|HoleType=Round|Shape=RoundedRectangle|*
%AMROUNDEDRECTD73*
21,1,1.5532,1.2825,0,0,90.0*
21,1,1.0125,1.8232,0,0,90.0*
1,1,0.5407,0.6413,0.5063*
1,1,0.5407,0.6413,-0.5063*
1,1,0.5407,-0.6413,-0.5063*
1,1,0.5407,-0.6413,0.5063*
%
%ADD73ROUNDEDRECTD73*%
%ADD74R,1.2032X2.0032*%
%ADD75R,1.2032X1.1032*%
%ADD76R,1.4732X1.8542*%
%ADD77R,1.1532X1.1032*%
%ADD78R,1.5532X0.7532*%
%ADD79R,0.7532X1.5532*%
%ADD80R,2.4892X2.5032*%
%ADD81R,1.6002X1.4732*%
%ADD82R,1.8542X1.7272*%
G04:AMPARAMS|DCode=83|XSize=1.5532mm|YSize=1.8232mm|CornerRadius=0.2704mm|HoleSize=0mm|Usage=FLASHONLY|Rotation=180.000|XOffset=0mm|YOffset=0mm|HoleType=Round|Shape=RoundedRectangle|*
%AMROUNDEDRECTD83*
21,1,1.5532,1.2825,0,0,180.0*
21,1,1.0125,1.8232,0,0,180.0*
1,1,0.5407,-0.5063,0.6413*
1,1,0.5407,0.5063,0.6413*
1,1,0.5407,0.5063,-0.6413*
1,1,0.5407,-0.5063,-0.6413*
%
%ADD83ROUNDEDRECTD83*%
G04:AMPARAMS|DCode=84|XSize=2.6924mm|YSize=1.6984mm|CornerRadius=0.1742mm|HoleSize=0mm|Usage=FLASHONLY|Rotation=180.000|XOffset=0mm|YOffset=0mm|HoleType=Round|Shape=RoundedRectangle|*
%AMROUNDEDRECTD84*
21,1,2.6924,1.3500,0,0,180.0*
21,1,2.3440,1.6984,0,0,180.0*
1,1,0.3484,-1.1720,0.6750*
1,1,0.3484,1.1720,0.6750*
1,1,0.3484,1.1720,-0.6750*
1,1,0.3484,-1.1720,-0.6750*
%
%ADD84ROUNDEDRECTD84*%
%ADD85R,2.6032X1.2032*%
%ADD86R,2.6032X3.5032*%
G04:AMPARAMS|DCode=87|XSize=2.1968mm|YSize=4.7968mm|CornerRadius=0.1984mm|HoleSize=0mm|Usage=FLASHONLY|Rotation=90.000|XOffset=0mm|YOffset=0mm|HoleType=Round|Shape=RoundedRectangle|*
%AMROUNDEDRECTD87*
21,1,2.1968,4.4000,0,0,90.0*
21,1,1.8000,4.7968,0,0,90.0*
1,1,0.3968,2.2000,0.9000*
1,1,0.3968,2.2000,-0.9000*
1,1,0.3968,-2.2000,-0.9000*
1,1,0.3968,-2.2000,0.9000*
%
%ADD87ROUNDEDRECTD87*%
%ADD88R,1.4732X1.6002*%
G04:AMPARAMS|DCode=89|XSize=1.1032mm|YSize=1.3732mm|CornerRadius=0.2141mm|HoleSize=0mm|Usage=FLASHONLY|Rotation=90.000|XOffset=0mm|YOffset=0mm|HoleType=Round|Shape=RoundedRectangle|*
%AMROUNDEDRECTD89*
21,1,1.1032,0.9450,0,0,90.0*
21,1,0.6750,1.3732,0,0,90.0*
1,1,0.4282,0.4725,0.3375*
1,1,0.4282,0.4725,-0.3375*
1,1,0.4282,-0.4725,-0.3375*
1,1,0.4282,-0.4725,0.3375*
%
%ADD89ROUNDEDRECTD89*%
G04:AMPARAMS|DCode=90|XSize=3.2512mm|YSize=2.0032mm|CornerRadius=0.3266mm|HoleSize=0mm|Usage=FLASHONLY|Rotation=0.000|XOffset=0mm|YOffset=0mm|HoleType=Round|Shape=RoundedRectangle|*
%AMROUNDEDRECTD90*
21,1,3.2512,1.3500,0,0,0.0*
21,1,2.5980,2.0032,0,0,0.0*
1,1,0.6532,1.2990,-0.6750*
1,1,0.6532,-1.2990,-0.6750*
1,1,0.6532,-1.2990,0.6750*
1,1,0.6532,1.2990,0.6750*
%
%ADD90ROUNDEDRECTD90*%
G04:AMPARAMS|DCode=91|XSize=1.1032mm|YSize=1.3732mm|CornerRadius=0.2141mm|HoleSize=0mm|Usage=FLASHONLY|Rotation=180.000|XOffset=0mm|YOffset=0mm|HoleType=Round|Shape=RoundedRectangle|*
%AMROUNDEDRECTD91*
21,1,1.1032,0.9450,0,0,180.0*
21,1,0.6750,1.3732,0,0,180.0*
1,1,0.4282,-0.3375,0.4725*
1,1,0.4282,0.3375,0.4725*
1,1,0.4282,0.3375,-0.4725*
1,1,0.4282,-0.3375,-0.4725*
%
%ADD91ROUNDEDRECTD91*%
%ADD92O,1.8542X2.7432*%
%ADD93R,1.8542X2.7432*%
%ADD94C,1.8000*%
%ADD95C,2.2032*%
%ADD96R,1.7032X1.7032*%
%ADD97C,1.7032*%
%ADD98R,4.2672X2.7432*%
%ADD99R,2.7432X4.2672*%
%ADD100C,1.9812*%
%ADD101R,1.7032X1.7032*%
%ADD102R,1.8000X1.8000*%
%ADD103R,1.7232X1.7232*%
%ADD104C,1.7232*%
%ADD105C,0.8032*%
%ADD106C,1.1032*%
D36*
X294640Y260350D02*
D03*
D43*
X412950Y33680D02*
D03*
D50*
X361696Y274320D02*
D03*
D56*
X396240Y339090D02*
D03*
X271780Y317500D02*
D03*
D59*
X491050Y308500D02*
D03*
X486050D02*
D03*
X481050D02*
D03*
X476050D02*
D03*
X471050D02*
D03*
X466050D02*
D03*
X461050D02*
D03*
X456050D02*
D03*
X451050D02*
D03*
X446050D02*
D03*
X441050D02*
D03*
X436050D02*
D03*
Y224900D02*
D03*
X441050D02*
D03*
X446050D02*
D03*
X451050D02*
D03*
X456050D02*
D03*
X461050D02*
D03*
X466050D02*
D03*
X471050D02*
D03*
X476050D02*
D03*
X481050D02*
D03*
X486050D02*
D03*
X491050D02*
D03*
D60*
X421750Y294200D02*
D03*
Y289200D02*
D03*
Y284200D02*
D03*
Y279200D02*
D03*
Y274200D02*
D03*
Y269200D02*
D03*
Y264200D02*
D03*
Y259200D02*
D03*
Y254200D02*
D03*
Y249200D02*
D03*
Y244200D02*
D03*
Y239200D02*
D03*
X505350D02*
D03*
Y244200D02*
D03*
Y249200D02*
D03*
Y254200D02*
D03*
Y259200D02*
D03*
Y264200D02*
D03*
Y269200D02*
D03*
Y274200D02*
D03*
Y279200D02*
D03*
Y284200D02*
D03*
Y289200D02*
D03*
Y294200D02*
D03*
D61*
X453389Y131188D02*
D03*
X453390Y113029D02*
D03*
X472441Y112652D02*
D03*
X472440Y130811D02*
D03*
X435610Y113029D02*
D03*
X435609Y131188D02*
D03*
X528319Y303908D02*
D03*
X528320Y285749D02*
D03*
X395632Y19836D02*
D03*
X395633Y1677D02*
D03*
X410872Y19836D02*
D03*
X410873Y1677D02*
D03*
X426112Y2054D02*
D03*
X426111Y20213D02*
D03*
X394971Y35182D02*
D03*
X394970Y53341D02*
D03*
X355600Y248921D02*
D03*
X355601Y230762D02*
D03*
X441352Y19836D02*
D03*
X441353Y1677D02*
D03*
X622961Y37994D02*
D03*
X622962Y19835D02*
D03*
X453390Y60961D02*
D03*
X453391Y42802D02*
D03*
D62*
X557540Y200990D02*
D03*
Y220990D02*
D03*
Y240990D02*
D03*
Y260990D02*
D03*
Y280990D02*
D03*
Y300990D02*
D03*
Y320990D02*
D03*
Y340990D02*
D03*
X717540Y200990D02*
D03*
Y220990D02*
D03*
Y240990D02*
D03*
Y260990D02*
D03*
Y280990D02*
D03*
Y300990D02*
D03*
Y320990D02*
D03*
Y340990D02*
D03*
D63*
X624040Y283490D02*
D03*
D64*
X493600Y336170D02*
D03*
X471600D02*
D03*
Y352170D02*
D03*
X493600D02*
D03*
D65*
X321309Y370840D02*
D03*
X339468Y370841D02*
D03*
X754002Y107949D02*
D03*
X772161Y107950D02*
D03*
Y123190D02*
D03*
X754002Y123189D02*
D03*
X410588Y370841D02*
D03*
X392429Y370840D02*
D03*
X558570Y-3024D02*
D03*
X540411Y-3025D02*
D03*
D66*
X306450Y370840D02*
D03*
X290450D02*
D03*
X503810Y-19050D02*
D03*
X519810D02*
D03*
X362840Y370840D02*
D03*
X378840D02*
D03*
X519810Y-3810D02*
D03*
X503810D02*
D03*
D67*
X348690Y400050D02*
D03*
X278690D02*
D03*
X363780D02*
D03*
X433780D02*
D03*
X767640Y205740D02*
D03*
X837640D02*
D03*
X766370Y257810D02*
D03*
X836370D02*
D03*
D68*
X472792Y52855D02*
D03*
Y40155D02*
D03*
Y27455D02*
D03*
Y14755D02*
D03*
X529292Y52855D02*
D03*
Y40155D02*
D03*
Y27455D02*
D03*
Y14755D02*
D03*
D69*
X383794Y128270D02*
D03*
X362966D02*
D03*
X361696Y154940D02*
D03*
X382524Y154940D02*
D03*
X361696Y210820D02*
D03*
X382524D02*
D03*
Y181610D02*
D03*
X361696D02*
D03*
D70*
X328296Y114300D02*
D03*
D71*
Y127000D02*
D03*
Y139700D02*
D03*
Y152400D02*
D03*
X278764D02*
D03*
Y139700D02*
D03*
Y127000D02*
D03*
Y114300D02*
D03*
D72*
X303530Y133350D02*
D03*
D73*
X202946Y234950D02*
D03*
X228854D02*
D03*
D74*
X468830Y372110D02*
D03*
X493830D02*
D03*
D75*
X492760Y400940D02*
D03*
Y416940D02*
D03*
X473710Y416940D02*
D03*
Y400940D02*
D03*
X452120Y400940D02*
D03*
Y416940D02*
D03*
X443230Y364110D02*
D03*
Y380110D02*
D03*
D76*
X607722Y-3026D02*
D03*
X574702Y-3026D02*
D03*
X610262Y54124D02*
D03*
X577242Y54124D02*
D03*
D77*
X437950Y43180D02*
D03*
X412950Y52680D02*
D03*
D78*
X578962Y17295D02*
D03*
X603462D02*
D03*
X578962Y35075D02*
D03*
X603462D02*
D03*
D79*
X559462Y43515D02*
D03*
Y19015D02*
D03*
D80*
X110490Y252730D02*
D03*
X151130D02*
D03*
D81*
X412750Y132080D02*
D03*
Y109220D02*
D03*
X386080Y254000D02*
D03*
Y231140D02*
D03*
D82*
X271780Y293625D02*
D03*
Y260605D02*
D03*
X134012Y357910D02*
D03*
Y390930D02*
D03*
D83*
X325120Y239014D02*
D03*
Y213106D02*
D03*
X295910Y213106D02*
D03*
Y239014D02*
D03*
X267970D02*
D03*
Y213106D02*
D03*
D84*
X316484Y274320D02*
D03*
D85*
X311360Y348120D02*
D03*
X311360Y325120D02*
D03*
X311360Y302120D02*
D03*
D86*
X369360Y325120D02*
D03*
D87*
X208280Y203060D02*
D03*
Y122060D02*
D03*
D88*
X461672Y-3025D02*
D03*
X484532D02*
D03*
D89*
X284226Y184150D02*
D03*
X264414D02*
D03*
X306324D02*
D03*
X326136D02*
D03*
D90*
X165582Y399665D02*
D03*
Y348665D02*
D03*
X249762Y399665D02*
D03*
Y348665D02*
D03*
D91*
X344170Y175514D02*
D03*
Y195326D02*
D03*
D92*
X779780Y31750D02*
D03*
X754380D02*
D03*
D93*
X728980D02*
D03*
D94*
X403860Y-43180D02*
D03*
X429260D02*
D03*
X454660D02*
D03*
X480060D02*
D03*
X505460D02*
D03*
X530860D02*
D03*
X556260D02*
D03*
X581660D02*
D03*
X31750Y193040D02*
D03*
Y218440D02*
D03*
X810260Y25400D02*
D03*
Y50800D02*
D03*
Y80010D02*
D03*
Y105410D02*
D03*
Y160020D02*
D03*
Y134620D02*
D03*
X673100Y129540D02*
D03*
Y104140D02*
D03*
Y78740D02*
D03*
Y53340D02*
D03*
X86210Y277113D02*
D03*
D95*
X725170Y-91440D02*
D03*
X123190D02*
D03*
D96*
X170180Y-43180D02*
D03*
X230940Y287020D02*
D03*
D97*
X246380Y-43053D02*
D03*
X149252Y286535D02*
D03*
X208280Y51000D02*
D03*
X205940Y287020D02*
D03*
D98*
X115570Y33020D02*
D03*
D99*
X77470Y83820D02*
D03*
X140970D02*
D03*
D100*
X102870Y160020D02*
D03*
Y210820D02*
D03*
X137160Y215900D02*
D03*
Y156210D02*
D03*
D101*
X149252Y311935D02*
D03*
X208280Y76000D02*
D03*
D102*
X35710Y302007D02*
D03*
D103*
X521970Y328930D02*
D03*
D104*
Y354330D02*
D03*
Y379730D02*
D03*
Y405130D02*
D03*
D105*
X436001Y261195D02*
D03*
X441200Y267970D02*
D03*
X445740Y276860D02*
D03*
X448310Y287020D02*
D03*
X469632Y282208D02*
D03*
X474800Y275410D02*
D03*
X469900Y266700D02*
D03*
X486410Y130810D02*
D03*
X463550Y93980D02*
D03*
X382270Y12700D02*
D03*
X406400Y233680D02*
D03*
X477520Y241300D02*
D03*
X522990Y255020D02*
D03*
X562610Y158750D02*
D03*
X444500Y29210D02*
D03*
X491738Y90418D02*
D03*
X508000Y106680D02*
D03*
Y304800D02*
D03*
X288290Y358140D02*
D03*
X389048Y320882D02*
D03*
X421819Y303710D02*
D03*
X421640Y370840D02*
D03*
X449770Y351980D02*
D03*
X458310Y362640D02*
D03*
X479854Y289560D02*
D03*
X369570Y353060D02*
D03*
X524700Y311150D02*
D03*
X278130Y373380D02*
D03*
X430530Y363220D02*
D03*
X402590Y243840D02*
D03*
X381206Y267764D02*
D03*
X401835Y259954D02*
D03*
X344170Y212090D02*
D03*
X372180Y252540D02*
D03*
X491477Y277937D02*
D03*
X415290Y345440D02*
D03*
X439510Y323401D02*
D03*
X386080Y44450D02*
D03*
X382270Y167640D02*
D03*
X737870Y340360D02*
D03*
X742950Y123190D02*
D03*
Y107950D02*
D03*
X303530Y95250D02*
D03*
X323850Y195580D02*
D03*
X340360Y252540D02*
D03*
X543560Y53340D02*
D03*
X255900Y127000D02*
D03*
D106*
X541210Y-13970D02*
D03*
M02*
