G04*
G04 #@! TF.GenerationSoftware,Altium Limited,Altium Designer,23.6.0 (18)*
G04*
G04 Layer_Color=32768*
%FSLAX44Y44*%
%MOMM*%
G71*
G04*
G04 #@! TF.SameCoordinates,157544A1-0EA0-4F56-A15C-28E52037D784*
G04*
G04*
G04 #@! TF.FilePolarity,Positive*
G04*
G01*
G75*
%ADD15C,0.1000*%
%ADD127R,0.2500X0.6000*%
G36*
X428788Y55171D02*
X428829Y55166D01*
X428876Y55157D01*
X428922Y55148D01*
X428973Y55129D01*
X428977D01*
X428982Y55125D01*
X429010Y55115D01*
X429051Y55097D01*
X429107Y55069D01*
X429171Y55032D01*
X429245Y54986D01*
X429319Y54935D01*
X429398Y54870D01*
X429403D01*
X429407Y54861D01*
X429435Y54838D01*
X429477Y54796D01*
X429537Y54736D01*
X429606Y54667D01*
X429689Y54579D01*
X429782Y54473D01*
X429879Y54357D01*
X429883Y54352D01*
X429897Y54334D01*
X429920Y54306D01*
X429948Y54274D01*
X429985Y54232D01*
X430027Y54181D01*
X430073Y54131D01*
X430124Y54071D01*
X430235Y53955D01*
X430346Y53839D01*
X430401Y53784D01*
X430457Y53733D01*
X430508Y53687D01*
X430558Y53650D01*
X430563D01*
X430568Y53641D01*
X430582Y53631D01*
X430600Y53622D01*
X430651Y53590D01*
X430711Y53553D01*
X430785Y53520D01*
X430863Y53488D01*
X430951Y53470D01*
X431035Y53460D01*
X431039D01*
X431044D01*
X431072Y53465D01*
X431118Y53470D01*
X431169Y53483D01*
X431233Y53502D01*
X431298Y53534D01*
X431363Y53576D01*
X431427Y53631D01*
X431437Y53641D01*
X431455Y53664D01*
X431478Y53696D01*
X431511Y53747D01*
X431538Y53812D01*
X431566Y53886D01*
X431585Y53973D01*
X431589Y54071D01*
Y54098D01*
X431585Y54117D01*
X431580Y54172D01*
X431566Y54237D01*
X431548Y54306D01*
X431515Y54385D01*
X431474Y54459D01*
X431418Y54528D01*
X431409Y54537D01*
X431386Y54556D01*
X431349Y54584D01*
X431293Y54611D01*
X431229Y54644D01*
X431146Y54672D01*
X431053Y54690D01*
X430947Y54699D01*
X430988Y55101D01*
X430993D01*
X431007Y55097D01*
X431030D01*
X431062Y55092D01*
X431099Y55083D01*
X431141Y55074D01*
X431192Y55060D01*
X431242Y55046D01*
X431353Y55009D01*
X431464Y54953D01*
X431520Y54921D01*
X431575Y54879D01*
X431626Y54838D01*
X431673Y54792D01*
X431677Y54787D01*
X431682Y54778D01*
X431696Y54764D01*
X431709Y54741D01*
X431728Y54713D01*
X431746Y54681D01*
X431769Y54644D01*
X431793Y54598D01*
X431816Y54547D01*
X431839Y54491D01*
X431857Y54431D01*
X431876Y54366D01*
X431890Y54297D01*
X431904Y54223D01*
X431908Y54145D01*
X431913Y54061D01*
Y54015D01*
X431908Y53983D01*
X431904Y53946D01*
X431899Y53899D01*
X431890Y53849D01*
X431880Y53798D01*
X431848Y53678D01*
X431802Y53557D01*
X431774Y53497D01*
X431742Y53437D01*
X431700Y53382D01*
X431654Y53331D01*
X431649Y53326D01*
X431645Y53317D01*
X431626Y53308D01*
X431608Y53289D01*
X431585Y53266D01*
X431552Y53243D01*
X431520Y53220D01*
X431478Y53192D01*
X431390Y53146D01*
X431279Y53100D01*
X431224Y53081D01*
X431159Y53072D01*
X431095Y53063D01*
X431025Y53058D01*
X431016D01*
X430993D01*
X430956Y53063D01*
X430905Y53067D01*
X430850Y53077D01*
X430785Y53095D01*
X430715Y53114D01*
X430646Y53141D01*
X430637Y53146D01*
X430614Y53155D01*
X430577Y53174D01*
X430526Y53201D01*
X430471Y53238D01*
X430401Y53285D01*
X430332Y53340D01*
X430253Y53405D01*
X430244Y53414D01*
X430216Y53437D01*
X430193Y53460D01*
X430170Y53483D01*
X430142Y53511D01*
X430105Y53548D01*
X430068Y53585D01*
X430027Y53631D01*
X429981Y53678D01*
X429930Y53733D01*
X429879Y53793D01*
X429819Y53858D01*
X429759Y53932D01*
X429694Y54006D01*
X429689Y54010D01*
X429680Y54020D01*
X429666Y54038D01*
X429648Y54061D01*
X429620Y54089D01*
X429592Y54121D01*
X429532Y54195D01*
X429463Y54274D01*
X429393Y54348D01*
X429333Y54413D01*
X429310Y54440D01*
X429287Y54464D01*
X429282Y54468D01*
X429269Y54482D01*
X429250Y54500D01*
X429222Y54524D01*
X429190Y54547D01*
X429158Y54574D01*
X429079Y54630D01*
Y53053D01*
X428700D01*
Y55175D01*
X428705D01*
X428723D01*
X428751D01*
X428788Y55171D01*
D02*
G37*
G36*
X429763Y52217D02*
X429759D01*
X429754D01*
X429740Y52212D01*
X429722D01*
X429680Y52203D01*
X429620Y52189D01*
X429560Y52171D01*
X429491Y52152D01*
X429426Y52120D01*
X429366Y52087D01*
X429361Y52083D01*
X429343Y52069D01*
X429310Y52046D01*
X429278Y52009D01*
X429236Y51962D01*
X429195Y51912D01*
X429153Y51842D01*
X429116Y51768D01*
Y51764D01*
X429111Y51759D01*
X429107Y51745D01*
X429102Y51731D01*
X429088Y51685D01*
X429070Y51625D01*
X429051Y51551D01*
X429038Y51468D01*
X429028Y51375D01*
X429024Y51274D01*
Y51232D01*
X429028Y51186D01*
X429033Y51130D01*
X429042Y51066D01*
X429051Y50992D01*
X429070Y50918D01*
X429093Y50848D01*
X429098Y50839D01*
X429107Y50816D01*
X429125Y50784D01*
X429144Y50742D01*
X429176Y50700D01*
X429208Y50654D01*
X429245Y50608D01*
X429292Y50571D01*
X429296Y50566D01*
X429315Y50557D01*
X429338Y50543D01*
X429375Y50525D01*
X429412Y50506D01*
X429458Y50493D01*
X429509Y50483D01*
X429565Y50479D01*
X429569D01*
X429592D01*
X429620Y50483D01*
X429657Y50488D01*
X429694Y50502D01*
X429740Y50516D01*
X429786Y50539D01*
X429828Y50571D01*
X429833Y50576D01*
X429846Y50590D01*
X429865Y50608D01*
X429893Y50640D01*
X429920Y50677D01*
X429953Y50728D01*
X429985Y50788D01*
X430013Y50858D01*
X430018Y50862D01*
X430022Y50885D01*
X430036Y50922D01*
X430041Y50946D01*
X430050Y50978D01*
X430064Y51010D01*
X430073Y51052D01*
X430087Y51098D01*
X430101Y51153D01*
X430115Y51209D01*
X430133Y51274D01*
X430152Y51348D01*
X430170Y51426D01*
Y51431D01*
X430175Y51445D01*
X430179Y51468D01*
X430188Y51496D01*
X430198Y51533D01*
X430207Y51574D01*
X430235Y51667D01*
X430267Y51768D01*
X430299Y51875D01*
X430332Y51967D01*
X430350Y52009D01*
X430369Y52046D01*
Y52050D01*
X430373Y52055D01*
X430392Y52083D01*
X430415Y52124D01*
X430452Y52171D01*
X430494Y52226D01*
X430545Y52281D01*
X430605Y52337D01*
X430669Y52383D01*
X430679Y52388D01*
X430702Y52402D01*
X430739Y52420D01*
X430785Y52439D01*
X430845Y52457D01*
X430914Y52476D01*
X430988Y52490D01*
X431067Y52494D01*
X431072D01*
X431076D01*
X431090D01*
X431109D01*
X431155Y52485D01*
X431215Y52476D01*
X431284Y52462D01*
X431363Y52439D01*
X431441Y52406D01*
X431520Y52360D01*
X431525D01*
X431529Y52355D01*
X431557Y52332D01*
X431594Y52300D01*
X431640Y52258D01*
X431691Y52203D01*
X431746Y52134D01*
X431797Y52050D01*
X431843Y51958D01*
Y51953D01*
X431848Y51944D01*
X431853Y51930D01*
X431862Y51912D01*
X431871Y51889D01*
X431880Y51856D01*
X431899Y51787D01*
X431917Y51699D01*
X431936Y51597D01*
X431950Y51491D01*
X431954Y51371D01*
Y51311D01*
X431950Y51278D01*
Y51246D01*
X431941Y51158D01*
X431927Y51061D01*
X431904Y50959D01*
X431876Y50848D01*
X431839Y50747D01*
Y50742D01*
X431834Y50733D01*
X431825Y50719D01*
X431816Y50700D01*
X431793Y50654D01*
X431751Y50594D01*
X431705Y50525D01*
X431645Y50455D01*
X431575Y50391D01*
X431497Y50331D01*
X431492D01*
X431488Y50326D01*
X431474Y50317D01*
X431460Y50308D01*
X431414Y50285D01*
X431353Y50257D01*
X431279Y50224D01*
X431192Y50201D01*
X431099Y50178D01*
X430998Y50169D01*
X430965Y50576D01*
X430970D01*
X430979D01*
X430993Y50580D01*
X431016Y50585D01*
X431067Y50599D01*
X431136Y50617D01*
X431210Y50645D01*
X431284Y50687D01*
X431353Y50738D01*
X431418Y50802D01*
X431423Y50812D01*
X431441Y50835D01*
X431469Y50881D01*
X431497Y50941D01*
X431525Y51020D01*
X431552Y51112D01*
X431571Y51227D01*
X431575Y51357D01*
Y51422D01*
X431571Y51449D01*
X431566Y51486D01*
X431557Y51570D01*
X431538Y51662D01*
X431515Y51754D01*
X431478Y51842D01*
X431455Y51879D01*
X431432Y51916D01*
X431427Y51926D01*
X431409Y51944D01*
X431377Y51972D01*
X431340Y52000D01*
X431289Y52032D01*
X431233Y52060D01*
X431169Y52078D01*
X431095Y52087D01*
X431085D01*
X431067D01*
X431035Y52083D01*
X430998Y52073D01*
X430951Y52060D01*
X430905Y52036D01*
X430859Y52009D01*
X430813Y51967D01*
X430808Y51962D01*
X430794Y51939D01*
X430780Y51921D01*
X430771Y51902D01*
X430757Y51875D01*
X430739Y51842D01*
X430725Y51801D01*
X430706Y51754D01*
X430688Y51704D01*
X430665Y51644D01*
X430646Y51579D01*
X430623Y51505D01*
X430605Y51422D01*
X430582Y51329D01*
Y51325D01*
X430577Y51306D01*
X430572Y51278D01*
X430563Y51246D01*
X430554Y51204D01*
X430540Y51153D01*
X430526Y51103D01*
X430512Y51047D01*
X430480Y50927D01*
X430447Y50812D01*
X430429Y50756D01*
X430410Y50705D01*
X430397Y50659D01*
X430378Y50622D01*
Y50617D01*
X430373Y50608D01*
X430364Y50594D01*
X430355Y50576D01*
X430327Y50525D01*
X430290Y50465D01*
X430239Y50395D01*
X430184Y50326D01*
X430119Y50261D01*
X430050Y50206D01*
X430041Y50201D01*
X430018Y50183D01*
X429976Y50164D01*
X429920Y50136D01*
X429856Y50113D01*
X429777Y50090D01*
X429689Y50076D01*
X429597Y50072D01*
X429592D01*
X429588D01*
X429574D01*
X429555D01*
X429504Y50081D01*
X429440Y50090D01*
X429366Y50109D01*
X429287Y50132D01*
X429204Y50169D01*
X429116Y50220D01*
X429111D01*
X429107Y50224D01*
X429079Y50248D01*
X429038Y50280D01*
X428991Y50326D01*
X428936Y50386D01*
X428876Y50460D01*
X428820Y50543D01*
X428769Y50640D01*
Y50645D01*
X428765Y50654D01*
X428760Y50668D01*
X428751Y50687D01*
X428742Y50714D01*
X428728Y50747D01*
X428709Y50821D01*
X428686Y50908D01*
X428663Y51015D01*
X428649Y51130D01*
X428644Y51255D01*
Y51329D01*
X428649Y51366D01*
Y51408D01*
X428654Y51454D01*
X428658Y51509D01*
X428677Y51625D01*
X428695Y51745D01*
X428728Y51866D01*
X428769Y51981D01*
Y51986D01*
X428774Y51995D01*
X428783Y52009D01*
X428792Y52027D01*
X428820Y52083D01*
X428862Y52147D01*
X428917Y52221D01*
X428982Y52300D01*
X429061Y52374D01*
X429148Y52443D01*
X429153D01*
X429162Y52453D01*
X429176Y52457D01*
X429195Y52471D01*
X429218Y52480D01*
X429245Y52494D01*
X429315Y52526D01*
X429403Y52559D01*
X429500Y52587D01*
X429611Y52605D01*
X429726Y52614D01*
X429763Y52217D01*
D02*
G37*
G36*
X431899Y48620D02*
Y48158D01*
X428700Y46850D01*
Y47330D01*
X429671Y47705D01*
Y49046D01*
X428700Y49392D01*
Y49841D01*
X431899Y48620D01*
D02*
G37*
G36*
X431109Y46364D02*
X431118Y46355D01*
X431122Y46337D01*
X431136Y46314D01*
X431150Y46286D01*
X431169Y46253D01*
X431215Y46175D01*
X431266Y46082D01*
X431330Y45990D01*
X431404Y45893D01*
X431483Y45796D01*
X431488Y45791D01*
X431492Y45786D01*
X431506Y45773D01*
X431520Y45754D01*
X431566Y45712D01*
X431622Y45657D01*
X431686Y45602D01*
X431760Y45542D01*
X431834Y45491D01*
X431913Y45444D01*
Y45190D01*
X428700D01*
Y45583D01*
X431201D01*
X431196Y45588D01*
X431178Y45611D01*
X431150Y45638D01*
X431118Y45685D01*
X431076Y45736D01*
X431030Y45800D01*
X430979Y45874D01*
X430928Y45957D01*
Y45962D01*
X430924Y45967D01*
X430905Y45995D01*
X430882Y46041D01*
X430854Y46096D01*
X430822Y46161D01*
X430789Y46230D01*
X430757Y46300D01*
X430729Y46369D01*
X431109D01*
Y46364D01*
D02*
G37*
G36*
X430420Y44178D02*
X430475D01*
X430535Y44173D01*
X430605Y44169D01*
X430748Y44155D01*
X430900Y44131D01*
X431053Y44104D01*
X431122Y44085D01*
X431192Y44067D01*
X431196D01*
X431206Y44062D01*
X431224Y44053D01*
X431247Y44044D01*
X431279Y44034D01*
X431312Y44016D01*
X431390Y43979D01*
X431474Y43933D01*
X431562Y43873D01*
X431649Y43803D01*
X431723Y43720D01*
Y43716D01*
X431733Y43711D01*
X431742Y43697D01*
X431751Y43678D01*
X431769Y43655D01*
X431783Y43628D01*
X431820Y43558D01*
X431853Y43475D01*
X431885Y43378D01*
X431904Y43262D01*
X431913Y43138D01*
Y43096D01*
X431908Y43045D01*
X431899Y42985D01*
X431885Y42916D01*
X431867Y42842D01*
X431843Y42763D01*
X431806Y42689D01*
Y42685D01*
X431802Y42680D01*
X431788Y42657D01*
X431765Y42620D01*
X431733Y42574D01*
X431686Y42523D01*
X431636Y42467D01*
X431575Y42417D01*
X431506Y42366D01*
X431497Y42361D01*
X431474Y42343D01*
X431432Y42324D01*
X431372Y42292D01*
X431303Y42264D01*
X431224Y42227D01*
X431132Y42195D01*
X431030Y42167D01*
X431025D01*
X431016Y42162D01*
X431002Y42158D01*
X430979Y42153D01*
X430951Y42148D01*
X430919Y42144D01*
X430877Y42134D01*
X430831Y42130D01*
X430780Y42121D01*
X430725Y42116D01*
X430660Y42111D01*
X430595Y42102D01*
X430521Y42098D01*
X430447D01*
X430364Y42093D01*
X430276D01*
X430272D01*
X430253D01*
X430221D01*
X430184D01*
X430133Y42098D01*
X430078D01*
X430018Y42102D01*
X429953Y42107D01*
X429805Y42121D01*
X429652Y42144D01*
X429504Y42171D01*
X429435Y42190D01*
X429366Y42213D01*
X429361D01*
X429352Y42218D01*
X429333Y42227D01*
X429310Y42236D01*
X429278Y42245D01*
X429245Y42264D01*
X429167Y42301D01*
X429084Y42347D01*
X428991Y42407D01*
X428908Y42477D01*
X428829Y42560D01*
Y42564D01*
X428820Y42569D01*
X428811Y42583D01*
X428802Y42601D01*
X428788Y42625D01*
X428769Y42648D01*
X428737Y42717D01*
X428705Y42800D01*
X428672Y42897D01*
X428654Y43013D01*
X428644Y43138D01*
Y43184D01*
X428649Y43216D01*
X428654Y43253D01*
X428663Y43299D01*
X428672Y43350D01*
X428686Y43406D01*
X428705Y43461D01*
X428723Y43521D01*
X428751Y43581D01*
X428783Y43642D01*
X428820Y43702D01*
X428866Y43762D01*
X428917Y43817D01*
X428973Y43868D01*
X428977Y43873D01*
X428991Y43882D01*
X429014Y43896D01*
X429051Y43919D01*
X429093Y43942D01*
X429148Y43965D01*
X429213Y43997D01*
X429287Y44025D01*
X429370Y44053D01*
X429467Y44081D01*
X429574Y44108D01*
X429694Y44131D01*
X429823Y44155D01*
X429962Y44169D01*
X430115Y44178D01*
X430276Y44182D01*
X430281D01*
X430299D01*
X430332D01*
X430369D01*
X430420Y44178D01*
D02*
G37*
G36*
X431109Y41390D02*
X431118Y41381D01*
X431122Y41363D01*
X431136Y41339D01*
X431150Y41312D01*
X431169Y41279D01*
X431215Y41201D01*
X431266Y41108D01*
X431330Y41016D01*
X431404Y40919D01*
X431483Y40822D01*
X431488Y40817D01*
X431492Y40812D01*
X431506Y40799D01*
X431520Y40780D01*
X431566Y40738D01*
X431622Y40683D01*
X431686Y40627D01*
X431760Y40567D01*
X431834Y40517D01*
X431913Y40470D01*
Y40216D01*
X428700D01*
Y40609D01*
X431201D01*
X431196Y40614D01*
X431178Y40637D01*
X431150Y40664D01*
X431118Y40711D01*
X431076Y40761D01*
X431030Y40826D01*
X430979Y40900D01*
X430928Y40983D01*
Y40988D01*
X430924Y40993D01*
X430905Y41020D01*
X430882Y41067D01*
X430854Y41122D01*
X430822Y41187D01*
X430789Y41256D01*
X430757Y41325D01*
X430729Y41395D01*
X431109D01*
Y41390D01*
D02*
G37*
G36*
X429569Y38797D02*
X429565D01*
X429555D01*
X429541Y38792D01*
X429518Y38788D01*
X429467Y38774D01*
X429398Y38755D01*
X429329Y38728D01*
X429250Y38691D01*
X429181Y38644D01*
X429116Y38589D01*
X429111Y38579D01*
X429093Y38561D01*
X429070Y38524D01*
X429042Y38473D01*
X429014Y38418D01*
X428991Y38348D01*
X428973Y38270D01*
X428968Y38182D01*
Y38154D01*
X428973Y38136D01*
X428977Y38080D01*
X428996Y38015D01*
X429019Y37937D01*
X429056Y37858D01*
X429111Y37775D01*
X429144Y37738D01*
X429181Y37701D01*
X429185Y37697D01*
X429190Y37692D01*
X429204Y37683D01*
X429218Y37669D01*
X429269Y37636D01*
X429333Y37599D01*
X429412Y37567D01*
X429509Y37535D01*
X429625Y37512D01*
X429685Y37502D01*
X429749D01*
X429754D01*
X429763D01*
X429782D01*
X429805Y37507D01*
X429833D01*
X429865Y37512D01*
X429939Y37525D01*
X430027Y37549D01*
X430115Y37581D01*
X430198Y37627D01*
X430276Y37692D01*
X430281D01*
X430286Y37701D01*
X430309Y37724D01*
X430341Y37766D01*
X430378Y37821D01*
X430410Y37895D01*
X430443Y37979D01*
X430466Y38076D01*
X430475Y38131D01*
Y38219D01*
X430471Y38256D01*
X430466Y38302D01*
X430452Y38358D01*
X430438Y38413D01*
X430415Y38473D01*
X430387Y38533D01*
X430383Y38538D01*
X430373Y38556D01*
X430350Y38584D01*
X430327Y38621D01*
X430295Y38658D01*
X430253Y38695D01*
X430212Y38737D01*
X430161Y38769D01*
X430212Y39139D01*
X431857Y38829D01*
Y37239D01*
X431483D01*
Y38519D01*
X430619Y38691D01*
X430623Y38686D01*
X430628Y38677D01*
X430637Y38663D01*
X430651Y38640D01*
X430665Y38612D01*
X430683Y38579D01*
X430720Y38506D01*
X430757Y38413D01*
X430789Y38311D01*
X430813Y38201D01*
X430822Y38145D01*
Y38043D01*
X430817Y38015D01*
X430813Y37979D01*
X430808Y37937D01*
X430799Y37891D01*
X430785Y37840D01*
X430752Y37729D01*
X430729Y37669D01*
X430697Y37609D01*
X430665Y37549D01*
X430628Y37489D01*
X430582Y37433D01*
X430531Y37378D01*
X430526Y37373D01*
X430517Y37364D01*
X430503Y37350D01*
X430480Y37331D01*
X430447Y37308D01*
X430415Y37285D01*
X430373Y37257D01*
X430327Y37230D01*
X430276Y37207D01*
X430221Y37179D01*
X430156Y37156D01*
X430092Y37133D01*
X430022Y37114D01*
X429944Y37100D01*
X429865Y37091D01*
X429782Y37086D01*
X429777D01*
X429763D01*
X429740D01*
X429708Y37091D01*
X429671Y37096D01*
X429629Y37100D01*
X429578Y37109D01*
X429528Y37119D01*
X429407Y37146D01*
X429282Y37193D01*
X429218Y37220D01*
X429158Y37257D01*
X429093Y37294D01*
X429033Y37341D01*
X429028Y37345D01*
X429014Y37355D01*
X428996Y37373D01*
X428973Y37396D01*
X428945Y37428D01*
X428908Y37465D01*
X428876Y37512D01*
X428839Y37562D01*
X428802Y37618D01*
X428769Y37683D01*
X428737Y37752D01*
X428705Y37826D01*
X428681Y37905D01*
X428663Y37992D01*
X428649Y38085D01*
X428644Y38182D01*
Y38224D01*
X428649Y38256D01*
X428654Y38293D01*
X428658Y38335D01*
X428663Y38385D01*
X428677Y38436D01*
X428705Y38552D01*
X428746Y38667D01*
X428774Y38728D01*
X428806Y38788D01*
X428843Y38843D01*
X428885Y38898D01*
X428890Y38903D01*
X428894Y38912D01*
X428913Y38922D01*
X428931Y38940D01*
X428954Y38963D01*
X428982Y38986D01*
X429019Y39014D01*
X429061Y39037D01*
X429102Y39065D01*
X429153Y39093D01*
X429264Y39144D01*
X429393Y39185D01*
X429463Y39199D01*
X429537Y39208D01*
X429569Y38797D01*
D02*
G37*
G36*
X434623Y55175D02*
X434665D01*
X434716Y55171D01*
X434771Y55166D01*
X434832Y55157D01*
X434966Y55134D01*
X435109Y55101D01*
X435261Y55055D01*
X435409Y54991D01*
X435414Y54986D01*
X435428Y54981D01*
X435446Y54972D01*
X435474Y54953D01*
X435506Y54935D01*
X435543Y54912D01*
X435631Y54847D01*
X435724Y54773D01*
X435821Y54676D01*
X435918Y54570D01*
X436001Y54445D01*
X436006Y54440D01*
X436010Y54426D01*
X436020Y54408D01*
X436033Y54380D01*
X436047Y54348D01*
X436066Y54311D01*
X436084Y54265D01*
X436103Y54214D01*
X436121Y54154D01*
X436140Y54094D01*
X436172Y53960D01*
X436195Y53812D01*
X436204Y53733D01*
Y53608D01*
X436200Y53576D01*
Y53534D01*
X436195Y53493D01*
X436186Y53437D01*
X436177Y53382D01*
X436154Y53261D01*
X436117Y53123D01*
X436061Y52989D01*
X436029Y52920D01*
X435992Y52850D01*
X435987Y52846D01*
X435983Y52836D01*
X435969Y52818D01*
X435955Y52790D01*
X435932Y52762D01*
X435904Y52725D01*
X435839Y52647D01*
X435756Y52564D01*
X435654Y52471D01*
X435534Y52383D01*
X435400Y52309D01*
X435396D01*
X435382Y52300D01*
X435363Y52291D01*
X435335Y52281D01*
X435298Y52263D01*
X435257Y52249D01*
X435206Y52231D01*
X435150Y52212D01*
X435090Y52198D01*
X435026Y52180D01*
X434956Y52161D01*
X434882Y52147D01*
X434720Y52129D01*
X434549Y52120D01*
X434545D01*
X434531D01*
X434512D01*
X434485D01*
X434448Y52124D01*
X434406D01*
X434360Y52129D01*
X434314Y52134D01*
X434203Y52147D01*
X434083Y52171D01*
X433958Y52198D01*
X433838Y52240D01*
X433833D01*
X433824Y52245D01*
X433805Y52254D01*
X433787Y52263D01*
X433759Y52277D01*
X433727Y52291D01*
X433653Y52328D01*
X433565Y52379D01*
X433472Y52443D01*
X433380Y52517D01*
X433288Y52600D01*
Y52596D01*
X433278Y52587D01*
X433269Y52573D01*
X433255Y52550D01*
X433237Y52526D01*
X433218Y52494D01*
X433176Y52425D01*
X433126Y52342D01*
X433075Y52249D01*
X433033Y52152D01*
X432992Y52060D01*
X432700Y52184D01*
Y52189D01*
X432705Y52198D01*
X432714Y52217D01*
X432724Y52245D01*
X432737Y52277D01*
X432756Y52314D01*
X432774Y52355D01*
X432798Y52402D01*
X432853Y52503D01*
X432918Y52619D01*
X433001Y52744D01*
X433093Y52873D01*
Y52878D01*
X433084Y52887D01*
X433075Y52910D01*
X433061Y52933D01*
X433047Y52970D01*
X433029Y53007D01*
X433015Y53053D01*
X432996Y53104D01*
X432978Y53160D01*
X432959Y53220D01*
X432927Y53354D01*
X432904Y53502D01*
X432899Y53580D01*
X432895Y53659D01*
Y53701D01*
X432899Y53733D01*
Y53770D01*
X432904Y53816D01*
X432913Y53867D01*
X432922Y53923D01*
X432945Y54043D01*
X432982Y54177D01*
X433033Y54316D01*
X433066Y54380D01*
X433103Y54450D01*
X433107Y54454D01*
X433112Y54464D01*
X433126Y54482D01*
X433139Y54505D01*
X433163Y54537D01*
X433190Y54570D01*
X433255Y54648D01*
X433338Y54736D01*
X433440Y54824D01*
X433556Y54912D01*
X433690Y54991D01*
X433694D01*
X433708Y55000D01*
X433727Y55009D01*
X433754Y55018D01*
X433791Y55032D01*
X433833Y55051D01*
X433884Y55069D01*
X433939Y55083D01*
X433999Y55101D01*
X434064Y55120D01*
X434133Y55134D01*
X434212Y55152D01*
X434374Y55171D01*
X434545Y55180D01*
X434549D01*
X434568D01*
X434591D01*
X434623Y55175D01*
D02*
G37*
G36*
X435359Y51408D02*
X435368Y51399D01*
X435372Y51380D01*
X435386Y51357D01*
X435400Y51329D01*
X435419Y51297D01*
X435465Y51218D01*
X435516Y51126D01*
X435580Y51033D01*
X435654Y50936D01*
X435733Y50839D01*
X435738Y50835D01*
X435742Y50830D01*
X435756Y50816D01*
X435770Y50798D01*
X435816Y50756D01*
X435872Y50700D01*
X435936Y50645D01*
X436010Y50585D01*
X436084Y50534D01*
X436163Y50488D01*
Y50234D01*
X432950D01*
Y50627D01*
X435451D01*
X435446Y50631D01*
X435428Y50654D01*
X435400Y50682D01*
X435368Y50728D01*
X435326Y50779D01*
X435280Y50844D01*
X435229Y50918D01*
X435178Y51001D01*
Y51006D01*
X435174Y51010D01*
X435155Y51038D01*
X435132Y51084D01*
X435104Y51140D01*
X435072Y51204D01*
X435039Y51274D01*
X435007Y51343D01*
X434979Y51412D01*
X435359D01*
Y51408D01*
D02*
G37*
%LPC*%
G36*
X430018Y48921D02*
Y47839D01*
X430896Y48172D01*
X430900D01*
X430914Y48176D01*
X430937Y48186D01*
X430965Y48195D01*
X430998Y48209D01*
X431039Y48223D01*
X431085Y48237D01*
X431132Y48255D01*
X431238Y48292D01*
X431349Y48329D01*
X431460Y48366D01*
X431566Y48398D01*
X431562D01*
X431552Y48403D01*
X431534D01*
X431515Y48412D01*
X431483Y48417D01*
X431451Y48426D01*
X431372Y48445D01*
X431279Y48468D01*
X431178Y48500D01*
X431067Y48532D01*
X430951Y48574D01*
X430018Y48921D01*
D02*
G37*
G36*
X430276Y43780D02*
X430267D01*
X430244D01*
X430202D01*
X430147Y43776D01*
X430087D01*
X430013Y43771D01*
X429934Y43766D01*
X429851Y43757D01*
X429671Y43734D01*
X429583Y43720D01*
X429500Y43702D01*
X429421Y43683D01*
X429347Y43655D01*
X429282Y43628D01*
X429227Y43595D01*
X429222D01*
X429218Y43586D01*
X429185Y43563D01*
X429144Y43521D01*
X429098Y43470D01*
X429051Y43401D01*
X429010Y43323D01*
X428977Y43235D01*
X428973Y43189D01*
X428968Y43138D01*
Y43110D01*
X428973Y43091D01*
X428982Y43045D01*
X429001Y42980D01*
X429033Y42911D01*
X429079Y42832D01*
X429107Y42796D01*
X429144Y42758D01*
X429181Y42722D01*
X429227Y42685D01*
X429232D01*
X429241Y42675D01*
X429255Y42666D01*
X429278Y42657D01*
X429310Y42638D01*
X429352Y42625D01*
X429398Y42606D01*
X429454Y42587D01*
X429523Y42574D01*
X429597Y42555D01*
X429685Y42537D01*
X429777Y42523D01*
X429888Y42513D01*
X430004Y42504D01*
X430133Y42495D01*
X430276D01*
X430281D01*
X430286D01*
X430309D01*
X430350D01*
X430406Y42500D01*
X430466D01*
X430540Y42504D01*
X430619Y42509D01*
X430706Y42518D01*
X430882Y42541D01*
X430970Y42555D01*
X431053Y42574D01*
X431132Y42592D01*
X431206Y42620D01*
X431270Y42648D01*
X431326Y42680D01*
X431330D01*
X431335Y42689D01*
X431349Y42698D01*
X431367Y42712D01*
X431409Y42754D01*
X431460Y42805D01*
X431506Y42874D01*
X431548Y42953D01*
X431566Y42994D01*
X431580Y43040D01*
X431585Y43091D01*
X431589Y43142D01*
Y43170D01*
X431585Y43189D01*
X431575Y43239D01*
X431562Y43299D01*
X431534Y43369D01*
X431492Y43443D01*
X431464Y43480D01*
X431437Y43517D01*
X431400Y43549D01*
X431358Y43581D01*
X431353D01*
X431344Y43591D01*
X431326Y43600D01*
X431303Y43614D01*
X431266Y43628D01*
X431224Y43646D01*
X431173Y43660D01*
X431113Y43678D01*
X431044Y43697D01*
X430965Y43716D01*
X430877Y43734D01*
X430780Y43748D01*
X430669Y43762D01*
X430549Y43771D01*
X430420Y43776D01*
X430276Y43780D01*
D02*
G37*
G36*
X434545Y54745D02*
X434536D01*
X434517D01*
X434485D01*
X434443Y54741D01*
X434392Y54736D01*
X434332Y54727D01*
X434263Y54718D01*
X434193Y54708D01*
X434036Y54672D01*
X433958Y54648D01*
X433879Y54616D01*
X433801Y54584D01*
X433727Y54542D01*
X433653Y54496D01*
X433588Y54440D01*
X433583Y54436D01*
X433574Y54426D01*
X433556Y54408D01*
X433537Y54385D01*
X433509Y54352D01*
X433482Y54316D01*
X433454Y54274D01*
X433422Y54223D01*
X433389Y54172D01*
X433361Y54112D01*
X433334Y54047D01*
X433306Y53978D01*
X433288Y53899D01*
X433269Y53821D01*
X433260Y53738D01*
X433255Y53650D01*
Y53608D01*
X433260Y53567D01*
X433264Y53511D01*
X433274Y53442D01*
X433292Y53373D01*
X433311Y53294D01*
X433338Y53220D01*
X433343Y53229D01*
X433361Y53252D01*
X433385Y53294D01*
X433412Y53345D01*
X433440Y53410D01*
X433472Y53479D01*
X433500Y53557D01*
X433523Y53641D01*
X433828Y53534D01*
Y53530D01*
X433824Y53516D01*
X433819Y53497D01*
X433810Y53474D01*
X433801Y53442D01*
X433787Y53405D01*
X433754Y53322D01*
X433708Y53225D01*
X433657Y53123D01*
X433597Y53026D01*
X433523Y52929D01*
X433528Y52924D01*
X433537Y52910D01*
X433560Y52892D01*
X433588Y52869D01*
X433625Y52841D01*
X433666Y52808D01*
X433717Y52776D01*
X433778Y52739D01*
X433847Y52707D01*
X433925Y52674D01*
X434009Y52642D01*
X434096Y52614D01*
X434198Y52587D01*
X434305Y52568D01*
X434420Y52559D01*
X434545Y52554D01*
X434549D01*
X434563D01*
X434582D01*
X434610D01*
X434647Y52559D01*
X434684D01*
X434730Y52564D01*
X434776Y52573D01*
X434882Y52587D01*
X434998Y52610D01*
X435113Y52642D01*
X435224Y52688D01*
X435229D01*
X435238Y52693D01*
X435252Y52702D01*
X435271Y52711D01*
X435326Y52744D01*
X435391Y52785D01*
X435465Y52841D01*
X435539Y52910D01*
X435613Y52989D01*
X435677Y53077D01*
Y53081D01*
X435687Y53086D01*
X435691Y53100D01*
X435705Y53123D01*
X435714Y53146D01*
X435728Y53174D01*
X435761Y53243D01*
X435788Y53326D01*
X435816Y53423D01*
X435835Y53534D01*
X435839Y53650D01*
Y53696D01*
X435835Y53728D01*
X435830Y53770D01*
X435821Y53816D01*
X435812Y53867D01*
X435798Y53923D01*
X435779Y53987D01*
X435761Y54047D01*
X435733Y54112D01*
X435701Y54181D01*
X435664Y54246D01*
X435617Y54311D01*
X435571Y54376D01*
X435511Y54436D01*
X435506Y54440D01*
X435497Y54450D01*
X435479Y54464D01*
X435451Y54482D01*
X435419Y54510D01*
X435377Y54533D01*
X435326Y54560D01*
X435271Y54588D01*
X435206Y54621D01*
X435132Y54648D01*
X435053Y54672D01*
X434966Y54695D01*
X434873Y54718D01*
X434771Y54732D01*
X434660Y54741D01*
X434545Y54745D01*
D02*
G37*
%LPD*%
D15*
X465330Y364610D02*
X497330D01*
X465330D02*
Y379610D01*
X497330D01*
Y364610D02*
Y379610D01*
X412450Y30180D02*
X437950D01*
X412450Y56180D02*
X437950D01*
Y30180D02*
Y56180D01*
X412450Y30180D02*
Y56180D01*
D127*
X439200Y43180D02*
D03*
X411450Y52430D02*
D03*
X411450Y33930D02*
D03*
M02*
