G04*
G04 #@! TF.GenerationSoftware,Altium Limited,Altium Designer,23.6.0 (18)*
G04*
G04 Layer_Physical_Order=2*
G04 Layer_Color=255*
%FSLAX44Y44*%
%MOMM*%
G71*
G04*
G04 #@! TF.SameCoordinates,157544A1-0EA0-4F56-A15C-28E52037D784*
G04*
G04*
G04 #@! TF.FilePolarity,Positive*
G04*
G01*
G75*
%ADD10C,0.2000*%
%ADD36C,2.0000*%
%ADD56C,1.5000*%
%ADD94C,1.8000*%
%ADD102R,1.8000X1.8000*%
%ADD108C,0.4000*%
%ADD109C,0.8000*%
%ADD111C,0.5000*%
%ADD112O,1.6510X2.5400*%
%ADD113R,1.6510X2.5400*%
%ADD114C,1.6000*%
%ADD115R,1.5000X1.5000*%
%ADD116R,4.0640X2.5400*%
%ADD117R,2.5400X4.0640*%
%ADD118C,1.7780*%
%ADD119R,1.5000X1.5000*%
%ADD120R,1.5200X1.5200*%
%ADD121C,1.5200*%
%ADD122C,0.6000*%
%ADD123C,0.9000*%
G36*
X740410Y354330D02*
X774700Y320040D01*
X848360D01*
X849630Y318770D01*
Y1270D01*
X777240D01*
X740410Y-35560D01*
Y-85717D01*
X739140Y-85970D01*
X738463Y-84335D01*
X736821Y-81878D01*
X734732Y-79789D01*
X732275Y-78147D01*
X729545Y-77017D01*
X726647Y-76440D01*
X723693D01*
X720795Y-77017D01*
X718065Y-78147D01*
X715608Y-79789D01*
X713519Y-81878D01*
X711877Y-84335D01*
X710747Y-87065D01*
X710170Y-89963D01*
Y-92917D01*
X710747Y-95815D01*
X711877Y-98545D01*
X713519Y-101002D01*
X715608Y-103091D01*
X718065Y-104733D01*
X720795Y-105864D01*
X723693Y-106440D01*
X726647D01*
X729545Y-105864D01*
X732275Y-104733D01*
X734732Y-103091D01*
X736821Y-101002D01*
X738463Y-98545D01*
X739140Y-96910D01*
X740410Y-97163D01*
Y-110490D01*
X110490D01*
Y-101536D01*
X111760Y-101223D01*
X113628Y-103091D01*
X116085Y-104733D01*
X118815Y-105864D01*
X121713Y-106440D01*
X124667D01*
X127565Y-105864D01*
X130295Y-104733D01*
X132752Y-103091D01*
X134841Y-101002D01*
X136483Y-98545D01*
X137613Y-95815D01*
X138190Y-92917D01*
Y-89963D01*
X137613Y-87065D01*
X136483Y-84335D01*
X134841Y-81878D01*
X132752Y-79789D01*
X130295Y-78147D01*
X127565Y-77017D01*
X124667Y-76440D01*
X121713D01*
X118815Y-77017D01*
X116085Y-78147D01*
X113628Y-79789D01*
X111760Y-81657D01*
X110490Y-81344D01*
Y-39370D01*
X71132Y-12D01*
X0D01*
Y318770D01*
X74930D01*
X109220Y353060D01*
Y430530D01*
X740410D01*
Y354330D01*
D02*
G37*
%LPC*%
G36*
X278130Y382458D02*
X275781Y382148D01*
X273591Y381241D01*
X271711Y379799D01*
X199521Y307609D01*
X198078Y305729D01*
X197172Y303539D01*
X196862Y301190D01*
Y295620D01*
X195938Y294695D01*
X194292Y291845D01*
X193440Y288666D01*
Y285374D01*
X194292Y282195D01*
X195938Y279345D01*
X198265Y277017D01*
X201115Y275372D01*
X204294Y274520D01*
X207586D01*
X210765Y275372D01*
X213615Y277017D01*
X215942Y279345D01*
X217170Y281471D01*
X218440Y281131D01*
Y274520D01*
X233455D01*
X248840Y259135D01*
Y130771D01*
X248445Y130088D01*
X247900Y128053D01*
Y125947D01*
X248445Y123912D01*
X249498Y122088D01*
X250988Y120598D01*
X252812Y119545D01*
X254847Y119000D01*
X256953D01*
X258988Y119545D01*
X260812Y120598D01*
X262302Y122088D01*
X263355Y123912D01*
X263900Y125947D01*
Y128053D01*
X263355Y130088D01*
X262960Y130771D01*
Y262060D01*
X262720Y263887D01*
X262015Y265590D01*
X260893Y267052D01*
X243440Y284505D01*
Y299520D01*
X219607D01*
X218904Y299520D01*
X218334Y300746D01*
X280124Y362537D01*
X281141Y361757D01*
X280835Y361228D01*
X280290Y359193D01*
Y357087D01*
X280835Y355052D01*
X281888Y353228D01*
X283378Y351738D01*
X285202Y350685D01*
X287237Y350140D01*
X287638D01*
X321223Y316556D01*
X323207Y315230D01*
X325548Y314764D01*
X383852D01*
X384136Y314480D01*
X385961Y313427D01*
X387995Y312882D01*
X390102D01*
X392136Y313427D01*
X393960Y314480D01*
X395450Y315970D01*
X396503Y317794D01*
X397048Y319828D01*
Y321935D01*
X396503Y323969D01*
X395450Y325794D01*
X393960Y327283D01*
X392136Y328336D01*
X390102Y328882D01*
X387995D01*
X385961Y328336D01*
X384136Y327283D01*
X383852Y326999D01*
X328082D01*
X296290Y358792D01*
Y359193D01*
X295745Y361228D01*
X294692Y363052D01*
X293202Y364542D01*
X291378Y365595D01*
X289343Y366140D01*
X287237D01*
X285202Y365595D01*
X284673Y365289D01*
X283893Y366306D01*
X284549Y366961D01*
X285991Y368841D01*
X286898Y371031D01*
X287208Y373380D01*
X286898Y375729D01*
X285991Y377919D01*
X284549Y379799D01*
X282669Y381241D01*
X280479Y382148D01*
X278130Y382458D01*
D02*
G37*
G36*
X49710Y316007D02*
X21710D01*
Y288007D01*
X49710D01*
Y316007D01*
D02*
G37*
G36*
X88053Y291113D02*
X84367D01*
X80806Y290159D01*
X77614Y288316D01*
X75007Y285709D01*
X73164Y282517D01*
X72210Y278956D01*
Y275270D01*
X73164Y271709D01*
X75007Y268517D01*
X77614Y265910D01*
X80806Y264067D01*
X84367Y263113D01*
X88053D01*
X91614Y264067D01*
X94806Y265910D01*
X97413Y268517D01*
X99256Y271709D01*
X100210Y275270D01*
Y278956D01*
X99256Y282517D01*
X97413Y285709D01*
X94806Y288316D01*
X91614Y290159D01*
X88053Y291113D01*
D02*
G37*
G36*
X138989Y229790D02*
X135331D01*
X131799Y228843D01*
X128631Y227015D01*
X126045Y224429D01*
X124217Y221261D01*
X123270Y217729D01*
Y214071D01*
X124217Y210539D01*
X126045Y207371D01*
X128631Y204785D01*
X131799Y202957D01*
X135331Y202010D01*
X138989D01*
X142521Y202957D01*
X145689Y204785D01*
X148275Y207371D01*
X150103Y210539D01*
X151050Y214071D01*
Y217729D01*
X150103Y221261D01*
X148275Y224429D01*
X145689Y227015D01*
X142521Y228843D01*
X138989Y229790D01*
D02*
G37*
G36*
X104699Y224710D02*
X101041D01*
X97509Y223763D01*
X94341Y221935D01*
X91755Y219349D01*
X89927Y216181D01*
X88980Y212649D01*
Y208991D01*
X89927Y205459D01*
X91755Y202291D01*
X94341Y199705D01*
X97509Y197877D01*
X101041Y196930D01*
X104699D01*
X108231Y197877D01*
X111399Y199705D01*
X113985Y202291D01*
X115813Y205459D01*
X116760Y208991D01*
Y212649D01*
X115813Y216181D01*
X113985Y219349D01*
X111399Y221935D01*
X108231Y223763D01*
X104699Y224710D01*
D02*
G37*
G36*
X33461Y231440D02*
X30038D01*
X26732Y230554D01*
X23768Y228843D01*
X21347Y226422D01*
X19636Y223458D01*
X18750Y220152D01*
Y216728D01*
X19636Y213422D01*
X21347Y210458D01*
X23768Y208037D01*
X26563Y206424D01*
X26654Y205740D01*
X26563Y205056D01*
X23768Y203443D01*
X21347Y201022D01*
X19636Y198058D01*
X18750Y194751D01*
Y191329D01*
X19636Y188022D01*
X21347Y185058D01*
X23768Y182637D01*
X26732Y180926D01*
X30038Y180040D01*
X33461D01*
X36768Y180926D01*
X39732Y182637D01*
X42153Y185058D01*
X43864Y188022D01*
X44750Y191329D01*
Y194751D01*
X43864Y198058D01*
X42153Y201022D01*
X39732Y203443D01*
X36937Y205056D01*
X36846Y205740D01*
X36937Y206424D01*
X39732Y208037D01*
X42153Y210458D01*
X43864Y213422D01*
X44750Y216728D01*
Y220152D01*
X43864Y223458D01*
X42153Y226422D01*
X39732Y228843D01*
X36768Y230554D01*
X33461Y231440D01*
D02*
G37*
G36*
X161752Y324435D02*
X136752D01*
Y299435D01*
X144192D01*
X144427Y298183D01*
X141577Y296538D01*
X139249Y294210D01*
X137604Y291360D01*
X136752Y288181D01*
Y284889D01*
X137604Y281710D01*
X139249Y278860D01*
X141577Y276533D01*
X144427Y274887D01*
X147606Y274035D01*
X148914D01*
X156022Y266927D01*
Y187910D01*
X138212Y170100D01*
X135331D01*
X131799Y169153D01*
X128631Y167325D01*
X126594Y165288D01*
X115838D01*
X115813Y165381D01*
X113985Y168549D01*
X111399Y171135D01*
X108231Y172963D01*
X104699Y173910D01*
X101041D01*
X97509Y172963D01*
X94341Y171135D01*
X91755Y168549D01*
X89927Y165381D01*
X88980Y161849D01*
Y158968D01*
X71051Y141039D01*
X69608Y139159D01*
X68702Y136969D01*
X68392Y134620D01*
Y109140D01*
X59770D01*
Y58500D01*
X68392D01*
Y43180D01*
X68702Y40831D01*
X69608Y38641D01*
X71051Y36761D01*
X81211Y26601D01*
X81211Y26601D01*
X83091Y25159D01*
X85281Y24252D01*
X87630Y23942D01*
X90250D01*
Y15320D01*
X140890D01*
Y50720D01*
X90250D01*
Y44897D01*
X89077Y44411D01*
X86548Y46940D01*
Y58500D01*
X95170D01*
Y109140D01*
X86548D01*
Y130860D01*
X101818Y146130D01*
X104699D01*
X108231Y147077D01*
X108749Y147376D01*
X110597Y147132D01*
X126594D01*
X128631Y145095D01*
X131799Y143267D01*
X135331Y142320D01*
X138989D01*
X142521Y143267D01*
X145689Y145095D01*
X148275Y147681D01*
X150103Y150849D01*
X151050Y154381D01*
Y157262D01*
X171519Y177731D01*
X172962Y179611D01*
X173868Y181800D01*
X174178Y184150D01*
Y270687D01*
X173868Y273036D01*
X172962Y275226D01*
X171519Y277106D01*
X161752Y286873D01*
Y288181D01*
X160900Y291360D01*
X159254Y294210D01*
X156927Y296538D01*
X154077Y298183D01*
X154312Y299435D01*
X161752D01*
Y324435D01*
D02*
G37*
G36*
X523629Y417730D02*
X520311D01*
X517107Y416871D01*
X514233Y415213D01*
X511888Y412867D01*
X511788Y412695D01*
X403860D01*
X401902Y412437D01*
X400078Y411681D01*
X398511Y410479D01*
X398511Y410479D01*
X364221Y376189D01*
X363019Y374622D01*
X362263Y372798D01*
X362005Y370840D01*
Y355738D01*
X361570Y354113D01*
Y352007D01*
X362115Y349972D01*
X363168Y348148D01*
X364658Y346658D01*
X366482Y345605D01*
X368517Y345060D01*
X370623D01*
X372658Y345605D01*
X374482Y346658D01*
X375972Y348148D01*
X377025Y349972D01*
X377570Y352007D01*
Y354113D01*
X377135Y355738D01*
Y367707D01*
X406993Y397565D01*
X415601D01*
X415986Y396295D01*
X414774Y395486D01*
X403344Y384056D01*
X402018Y382071D01*
X401553Y379730D01*
Y353060D01*
X402018Y350719D01*
X403344Y348734D01*
X407290Y344789D01*
Y344387D01*
X407835Y342352D01*
X408888Y340528D01*
X410378Y339038D01*
X412202Y337985D01*
X414237Y337440D01*
X415892D01*
X416472Y336223D01*
X410398Y330150D01*
X409072Y328165D01*
X408607Y325824D01*
Y301556D01*
X409072Y299215D01*
X410398Y297230D01*
X414785Y292844D01*
X416769Y291518D01*
X419110Y291052D01*
X440101D01*
X440768Y289782D01*
X440310Y288073D01*
Y285967D01*
X440855Y283932D01*
X441139Y283441D01*
X440828Y283262D01*
X439338Y281772D01*
X438285Y279948D01*
X437740Y277913D01*
Y275807D01*
X437879Y275290D01*
X436288Y274372D01*
X434799Y272882D01*
X433745Y271058D01*
X433200Y269023D01*
Y268726D01*
X432913Y268650D01*
X431089Y267596D01*
X429600Y266107D01*
X428546Y264283D01*
X428001Y262248D01*
Y260142D01*
X428546Y258107D01*
X429600Y256283D01*
X429884Y255999D01*
Y254308D01*
X430349Y251967D01*
X431676Y249983D01*
X521553Y160106D01*
Y155508D01*
X520379Y155022D01*
X411122Y264279D01*
X409137Y265606D01*
X407089Y266013D01*
X406747Y266355D01*
X404922Y267408D01*
X402888Y267954D01*
X400781D01*
X398747Y267408D01*
X396922Y266355D01*
X395433Y264866D01*
X394975Y264072D01*
X393716Y263906D01*
X389206Y268416D01*
Y268817D01*
X388661Y270852D01*
X387608Y272676D01*
X386118Y274166D01*
X384294Y275219D01*
X382259Y275764D01*
X380153D01*
X378118Y275219D01*
X376294Y274166D01*
X374804Y272676D01*
X373751Y270852D01*
X373206Y268817D01*
Y266711D01*
X373341Y266205D01*
X372568Y265198D01*
X330200D01*
X327859Y264732D01*
X325874Y263406D01*
X268724Y206256D01*
X267398Y204271D01*
X266933Y201930D01*
Y-13849D01*
X249763Y-31019D01*
X248026Y-30553D01*
X244734D01*
X241555Y-31405D01*
X238705Y-33050D01*
X236378Y-35378D01*
X234732Y-38228D01*
X233880Y-41407D01*
Y-44699D01*
X234732Y-47878D01*
X236378Y-50728D01*
X238705Y-53056D01*
X241555Y-54701D01*
X244734Y-55553D01*
X248026D01*
X251205Y-54701D01*
X254055Y-53056D01*
X256383Y-50728D01*
X258028Y-47878D01*
X258880Y-44699D01*
Y-41407D01*
X258414Y-39670D01*
X277376Y-20709D01*
X278702Y-18724D01*
X279167Y-16383D01*
Y199396D01*
X315520Y235748D01*
X316790Y235222D01*
Y199351D01*
X316395Y198668D01*
X315850Y196633D01*
Y194527D01*
X316395Y192492D01*
X317448Y190668D01*
X318532Y189584D01*
X298538Y169589D01*
X297416Y168127D01*
X296710Y166424D01*
X296470Y164597D01*
Y99021D01*
X296075Y98338D01*
X295530Y96303D01*
Y94197D01*
X296075Y92162D01*
X296470Y91479D01*
Y-36830D01*
X296710Y-38657D01*
X297416Y-40360D01*
X298538Y-41822D01*
X331558Y-74842D01*
X333020Y-75964D01*
X334723Y-76670D01*
X336550Y-76910D01*
X438150D01*
X439977Y-76670D01*
X441680Y-75964D01*
X443142Y-74842D01*
X458382Y-59602D01*
X459505Y-58140D01*
X460210Y-56437D01*
X460416Y-54868D01*
X462642Y-53583D01*
X465063Y-51162D01*
X466676Y-48367D01*
X467360Y-48276D01*
X468044Y-48367D01*
X469657Y-51162D01*
X472078Y-53583D01*
X475042Y-55294D01*
X478349Y-56180D01*
X481772D01*
X485078Y-55294D01*
X488042Y-53583D01*
X490463Y-51162D01*
X492076Y-48367D01*
X492760Y-48276D01*
X493444Y-48367D01*
X495057Y-51162D01*
X497478Y-53583D01*
X500442Y-55294D01*
X503749Y-56180D01*
X507172D01*
X509251Y-55623D01*
X516184Y-62556D01*
X518169Y-63882D01*
X520510Y-64347D01*
X589470D01*
X591811Y-63882D01*
X593796Y-62556D01*
X607576Y-48776D01*
X608902Y-46791D01*
X609367Y-44450D01*
Y17780D01*
X608902Y20121D01*
X607576Y22106D01*
X554217Y75464D01*
Y154746D01*
X555488Y155086D01*
X556208Y153838D01*
X557698Y152348D01*
X559522Y151295D01*
X561557Y150750D01*
X563663D01*
X565698Y151295D01*
X567522Y152348D01*
X569012Y153838D01*
X570065Y155662D01*
X570306Y156564D01*
X571723Y156944D01*
X633368Y95298D01*
Y41234D01*
X633834Y38893D01*
X635160Y36909D01*
X645914Y26154D01*
X647899Y24828D01*
X650240Y24362D01*
X715725D01*
Y14050D01*
X742235D01*
Y19273D01*
X743505Y19704D01*
X744926Y17851D01*
X747695Y15727D01*
X750920Y14391D01*
X754380Y13936D01*
X757840Y14391D01*
X761065Y15727D01*
X763834Y17851D01*
X765958Y20620D01*
X766445Y21795D01*
X767715D01*
X768202Y20620D01*
X770326Y17851D01*
X773095Y15727D01*
X776320Y14391D01*
X779780Y13936D01*
X783240Y14391D01*
X786465Y15727D01*
X789234Y17851D01*
X791358Y20620D01*
X792694Y23845D01*
X793149Y27305D01*
Y36195D01*
X792694Y39655D01*
X791358Y42880D01*
X789234Y45649D01*
X786465Y47773D01*
X783240Y49109D01*
X779780Y49564D01*
X777294Y49237D01*
X753615Y72917D01*
X754240Y74088D01*
X755221Y73892D01*
X798781D01*
X799857Y72028D01*
X802278Y69607D01*
X805242Y67896D01*
X808549Y67010D01*
X811972D01*
X815278Y67896D01*
X818242Y69607D01*
X820663Y72028D01*
X822374Y74992D01*
X823260Y78299D01*
Y81721D01*
X822374Y85028D01*
X820663Y87992D01*
X818242Y90413D01*
X815447Y92026D01*
X815356Y92710D01*
X815447Y93394D01*
X818242Y95007D01*
X820663Y97428D01*
X822374Y100392D01*
X823260Y103699D01*
Y107121D01*
X822374Y110428D01*
X820663Y113392D01*
X818242Y115813D01*
X815278Y117524D01*
X811972Y118410D01*
X808549D01*
X805242Y117524D01*
X802278Y115813D01*
X799857Y113392D01*
X798146Y110428D01*
X797260Y107121D01*
Y103699D01*
X797817Y101619D01*
X788676Y92478D01*
X757825D01*
X748308Y101994D01*
X749352Y103038D01*
X750405Y104862D01*
X750950Y106897D01*
Y107298D01*
X753816Y110164D01*
X755142Y112149D01*
X755608Y114490D01*
Y328740D01*
X755142Y331081D01*
X753816Y333066D01*
X745870Y341012D01*
Y341413D01*
X745325Y343448D01*
X744272Y345272D01*
X742782Y346762D01*
X740958Y347815D01*
X738923Y348360D01*
X736817D01*
X734782Y347815D01*
X732958Y346762D01*
X731468Y345272D01*
X730415Y343448D01*
X729870Y341413D01*
Y339307D01*
X730415Y337272D01*
X731468Y335448D01*
X732958Y333958D01*
X734782Y332905D01*
X736817Y332360D01*
X737218D01*
X740700Y328879D01*
X740042Y327740D01*
X738923Y328040D01*
X736817D01*
X734782Y327495D01*
X732958Y326442D01*
X731468Y324952D01*
X730415Y323128D01*
X729870Y321093D01*
Y318987D01*
X730415Y316952D01*
X731468Y315128D01*
X732958Y313638D01*
X734782Y312585D01*
X736817Y312040D01*
X736833D01*
Y228589D01*
X735659Y228103D01*
X614536Y349226D01*
X612552Y350552D01*
X610210Y351017D01*
X577114D01*
X532646Y395486D01*
X531979Y395931D01*
X531854Y397195D01*
X532052Y397393D01*
X533711Y400267D01*
X534570Y403471D01*
Y406789D01*
X533711Y409993D01*
X532052Y412867D01*
X529707Y415213D01*
X526833Y416871D01*
X523629Y417730D01*
D02*
G37*
G36*
X811972Y173020D02*
X808549D01*
X805242Y172134D01*
X802278Y170423D01*
X799857Y168002D01*
X798146Y165038D01*
X797260Y161731D01*
Y158308D01*
X798146Y155002D01*
X799857Y152038D01*
X802278Y149617D01*
X805073Y148004D01*
X805164Y147320D01*
X805073Y146636D01*
X802278Y145023D01*
X799857Y142602D01*
X798146Y139638D01*
X797260Y136332D01*
Y132908D01*
X798146Y129602D01*
X799857Y126638D01*
X802278Y124217D01*
X805242Y122506D01*
X808549Y121620D01*
X811972D01*
X815278Y122506D01*
X818242Y124217D01*
X820663Y126638D01*
X822374Y129602D01*
X823260Y132908D01*
Y136332D01*
X822374Y139638D01*
X820663Y142602D01*
X818242Y145023D01*
X815447Y146636D01*
X815356Y147320D01*
X815447Y148004D01*
X818242Y149617D01*
X820663Y152038D01*
X822374Y155002D01*
X823260Y158308D01*
Y161731D01*
X822374Y165038D01*
X820663Y168002D01*
X818242Y170423D01*
X815278Y172134D01*
X811972Y173020D01*
D02*
G37*
G36*
X158670Y109140D02*
X123270D01*
Y58500D01*
X158670D01*
Y109140D01*
D02*
G37*
G36*
X220780Y88500D02*
X195780D01*
Y63500D01*
X202391D01*
X202731Y62230D01*
X200605Y61002D01*
X198277Y58675D01*
X196632Y55825D01*
X195780Y52646D01*
Y49354D01*
X196632Y46175D01*
X198277Y43325D01*
X200605Y40998D01*
X203455Y39352D01*
X206634Y38500D01*
X209926D01*
X213105Y39352D01*
X215955Y40998D01*
X218283Y43325D01*
X219928Y46175D01*
X220780Y49354D01*
Y52646D01*
X219928Y55825D01*
X218283Y58675D01*
X215955Y61002D01*
X213829Y62230D01*
X214169Y63500D01*
X220780D01*
Y88500D01*
D02*
G37*
G36*
X811972Y63800D02*
X808549D01*
X805242Y62914D01*
X802278Y61203D01*
X799857Y58782D01*
X798146Y55818D01*
X797260Y52512D01*
Y49089D01*
X798146Y45782D01*
X799857Y42818D01*
X802278Y40397D01*
X805073Y38784D01*
X805164Y38100D01*
X805073Y37416D01*
X802278Y35803D01*
X799857Y33382D01*
X798146Y30418D01*
X797260Y27111D01*
Y23688D01*
X798146Y20382D01*
X799857Y17418D01*
X802278Y14997D01*
X805242Y13286D01*
X808549Y12400D01*
X811972D01*
X815278Y13286D01*
X818242Y14997D01*
X820663Y17418D01*
X822374Y20382D01*
X823260Y23688D01*
Y27111D01*
X822374Y30418D01*
X820663Y33382D01*
X818242Y35803D01*
X815447Y37416D01*
X815356Y38100D01*
X815447Y38784D01*
X818242Y40397D01*
X820663Y42818D01*
X822374Y45782D01*
X823260Y49089D01*
Y52512D01*
X822374Y55818D01*
X820663Y58782D01*
X818242Y61203D01*
X815278Y62914D01*
X811972Y63800D01*
D02*
G37*
G36*
X182680Y-30680D02*
X157680D01*
Y-55680D01*
X182680D01*
Y-30680D01*
D02*
G37*
%LPD*%
G36*
X471641Y383773D02*
X458508Y370640D01*
X457257D01*
X455222Y370095D01*
X453911Y369338D01*
X435726D01*
X435442Y369622D01*
X433618Y370675D01*
X431583Y371220D01*
X429640D01*
Y371893D01*
X429095Y373928D01*
X428042Y375752D01*
X426552Y377242D01*
X424728Y378295D01*
X422693Y378840D01*
X420587D01*
X418552Y378295D01*
X416728Y377242D01*
X415238Y375752D01*
X415057Y375439D01*
X413787Y375779D01*
Y377196D01*
X421634Y385042D01*
X471240D01*
X471641Y383773D01*
D02*
G37*
G36*
X511888Y371993D02*
X514233Y369647D01*
X517107Y367989D01*
X518231Y367687D01*
Y366373D01*
X517107Y366071D01*
X514233Y364412D01*
X511888Y362067D01*
X510229Y359193D01*
X509370Y355989D01*
Y352671D01*
X509398Y352565D01*
X508625Y351558D01*
X457770D01*
Y353033D01*
X457609Y353632D01*
X458383Y354640D01*
X459363D01*
X461398Y355185D01*
X463222Y356238D01*
X464712Y357728D01*
X465765Y359552D01*
X466146Y360975D01*
X478784Y373613D01*
X510953D01*
X511888Y371993D01*
D02*
G37*
G36*
X563178Y347651D02*
X562692Y346478D01*
X533452D01*
X532719Y347747D01*
X533711Y349467D01*
X534570Y352671D01*
Y355989D01*
X533711Y359193D01*
X532052Y362067D01*
X529707Y364412D01*
X526833Y366071D01*
X525709Y366373D01*
Y367687D01*
X526833Y367989D01*
X529707Y369647D01*
X532052Y371993D01*
X533711Y374867D01*
X533858Y375415D01*
X535085Y375743D01*
X563178Y347651D01*
D02*
G37*
G36*
X507972Y314070D02*
X507446Y312800D01*
X506947D01*
X504912Y312255D01*
X503088Y311202D01*
X502804Y310917D01*
X478692D01*
X476351Y310452D01*
X474366Y309126D01*
X468988Y303748D01*
X467662Y301763D01*
X467196Y299422D01*
Y289838D01*
X466544Y289663D01*
X464719Y288610D01*
X464208Y288098D01*
X462938Y288624D01*
Y289940D01*
X462472Y292281D01*
X461146Y294266D01*
X453916Y301495D01*
X451932Y302821D01*
X449591Y303287D01*
X429819D01*
Y304763D01*
X429274Y306797D01*
X428221Y308622D01*
X427757Y309085D01*
Y322586D01*
X430404Y325232D01*
X431542Y324575D01*
X431510Y324454D01*
Y322348D01*
X432055Y320313D01*
X433108Y318489D01*
X434598Y316999D01*
X436422Y315946D01*
X438457Y315401D01*
X440563D01*
X442598Y315946D01*
X444422Y316999D01*
X445912Y318489D01*
X446965Y320313D01*
X447510Y322348D01*
Y322749D01*
X450113Y325353D01*
X496690D01*
X507972Y314070D01*
D02*
G37*
G36*
X531789Y305129D02*
Y272470D01*
X522338Y263020D01*
X521937D01*
X519902Y262475D01*
X518078Y261422D01*
X516589Y259932D01*
X515535Y258108D01*
X515327Y257332D01*
X513911Y256952D01*
X506497Y264365D01*
Y280670D01*
X506032Y283011D01*
X504706Y284996D01*
X495816Y293886D01*
X493831Y295212D01*
X491490Y295678D01*
X485050D01*
X484766Y295962D01*
X482942Y297015D01*
X482901Y297026D01*
X482255Y298514D01*
X482346Y298682D01*
X502804D01*
X503088Y298398D01*
X504912Y297345D01*
X506947Y296800D01*
X509053D01*
X511088Y297345D01*
X512912Y298398D01*
X514402Y299888D01*
X515455Y301712D01*
X516000Y303747D01*
Y304774D01*
X517185Y305488D01*
X517270Y305485D01*
X519494Y305042D01*
X519788Y304748D01*
X521612Y303695D01*
X523647Y303150D01*
X525753D01*
X527788Y303695D01*
X529612Y304748D01*
X530519Y305655D01*
X531789Y305129D01*
D02*
G37*
G36*
X361444Y251789D02*
X339178Y229522D01*
X338055Y228060D01*
X337350Y226357D01*
X337110Y224530D01*
Y215861D01*
X336715Y215178D01*
X336170Y213143D01*
Y211037D01*
X336715Y209002D01*
X337110Y208319D01*
Y208161D01*
X332084Y203136D01*
X330910Y203622D01*
Y233106D01*
X342686Y244881D01*
X343448Y245085D01*
X345272Y246138D01*
X346762Y247628D01*
X347815Y249452D01*
X348360Y251487D01*
Y252962D01*
X360958D01*
X361444Y251789D01*
D02*
G37*
G36*
X386048Y228688D02*
X387510Y227565D01*
X389213Y226860D01*
X391040Y226620D01*
X402629D01*
X403312Y226225D01*
X405347Y225680D01*
X407453D01*
X409488Y226225D01*
X411312Y227278D01*
X412802Y228768D01*
X413855Y230592D01*
X414400Y232627D01*
Y233846D01*
X415670Y234372D01*
X510773Y139269D01*
Y115262D01*
X509765Y114489D01*
X509053Y114680D01*
X506947D01*
X504912Y114135D01*
X503088Y113082D01*
X501598Y111592D01*
X500545Y109768D01*
X500000Y107733D01*
Y105627D01*
X500545Y103592D01*
X501598Y101768D01*
X501883Y101484D01*
Y95244D01*
X500350Y93711D01*
X498884Y94042D01*
X498140Y95330D01*
X496651Y96820D01*
X494826Y97873D01*
X492792Y98418D01*
X490685D01*
X488651Y97873D01*
X486826Y96820D01*
X485337Y95330D01*
X484284Y93506D01*
X483739Y91472D01*
Y91070D01*
X411486Y18817D01*
X387466D01*
X387182Y19102D01*
X385358Y20155D01*
X383323Y20700D01*
X381217D01*
X379182Y20155D01*
X377358Y19102D01*
X375868Y17612D01*
X374815Y15788D01*
X374270Y13753D01*
Y11647D01*
X374815Y9612D01*
X375868Y7788D01*
X377358Y6298D01*
X379182Y5245D01*
X381217Y4700D01*
X383323D01*
X385358Y5245D01*
X387182Y6298D01*
X387466Y6582D01*
X414020D01*
X416361Y7048D01*
X418346Y8374D01*
X435889Y25917D01*
X437354Y25587D01*
X438098Y24298D01*
X439588Y22808D01*
X441412Y21755D01*
X443447Y21210D01*
X445553D01*
X447588Y21755D01*
X449412Y22808D01*
X450902Y24298D01*
X451955Y26122D01*
X452500Y28157D01*
Y28558D01*
X462531Y38590D01*
X509599Y85658D01*
X510773Y85172D01*
Y16504D01*
X481336Y-12932D01*
X424180D01*
X421839Y-13398D01*
X419854Y-14724D01*
X404398Y-30180D01*
X402149D01*
X398842Y-31066D01*
X395878Y-32777D01*
X393457Y-35198D01*
X391746Y-38162D01*
X390860Y-41469D01*
Y-44892D01*
X391746Y-48198D01*
X393457Y-51162D01*
X395878Y-53583D01*
X398842Y-55294D01*
X402149Y-56180D01*
X405572D01*
X408878Y-55294D01*
X411842Y-53583D01*
X414263Y-51162D01*
X415876Y-48367D01*
X416560Y-48276D01*
X417244Y-48367D01*
X418857Y-51162D01*
X421278Y-53583D01*
X424242Y-55294D01*
X427548Y-56180D01*
X430971D01*
X434278Y-55294D01*
X437242Y-53583D01*
X439663Y-51162D01*
X441276Y-48367D01*
X441960Y-48276D01*
X442644Y-48367D01*
X444257Y-51162D01*
X445555Y-52460D01*
X435225Y-62790D01*
X339474D01*
X310590Y-33905D01*
Y91479D01*
X310985Y92162D01*
X311530Y94197D01*
Y96303D01*
X310985Y98338D01*
X310590Y99021D01*
Y161672D01*
X349162Y200244D01*
X350285Y201707D01*
X350990Y203410D01*
X351230Y205237D01*
Y208319D01*
X351625Y209002D01*
X352170Y211037D01*
Y213143D01*
X351625Y215178D01*
X351230Y215861D01*
Y221605D01*
X372180Y242555D01*
X386048Y228688D01*
D02*
G37*
G36*
X662697Y121558D02*
X665118Y119137D01*
X667913Y117524D01*
X668004Y116840D01*
X667913Y116156D01*
X665118Y114543D01*
X662697Y112122D01*
X660986Y109158D01*
X660100Y105851D01*
Y102429D01*
X660986Y99122D01*
X661382Y98435D01*
X660366Y97656D01*
X635773Y122249D01*
X636259Y123422D01*
X661621D01*
X662697Y121558D01*
D02*
G37*
G36*
X722132Y217906D02*
Y106981D01*
X722598Y104640D01*
X723924Y102655D01*
X729206Y97373D01*
X728580Y96202D01*
X727600Y96397D01*
X684911D01*
X684276Y97497D01*
X685214Y99122D01*
X686100Y102429D01*
Y103310D01*
X691396Y108606D01*
X692722Y110590D01*
X693187Y112932D01*
Y135890D01*
X692722Y138231D01*
X691396Y140216D01*
X682506Y149106D01*
X680521Y150432D01*
X678180Y150898D01*
X619965D01*
X524922Y245941D01*
X525302Y247357D01*
X526078Y247565D01*
X527902Y248619D01*
X529392Y250108D01*
X530445Y251932D01*
X530990Y253967D01*
Y254369D01*
X542232Y265611D01*
X543558Y267595D01*
X544024Y269936D01*
Y312994D01*
X543558Y315335D01*
X542232Y317320D01*
X534570Y324981D01*
Y334243D01*
X605796D01*
X722132Y217906D01*
D02*
G37*
G36*
X654765Y85954D02*
X656749Y84628D01*
X659090Y84163D01*
X659818D01*
X660754Y82892D01*
X660100Y80451D01*
Y77028D01*
X660986Y73722D01*
X662697Y70758D01*
X665118Y68337D01*
X667913Y66724D01*
X668004Y66040D01*
X667913Y65356D01*
X665118Y63743D01*
X662697Y61322D01*
X660986Y58358D01*
X660100Y55051D01*
Y51628D01*
X660986Y48322D01*
X662697Y45358D01*
X665118Y42937D01*
X668082Y41226D01*
X671388Y40340D01*
X674811D01*
X678118Y41226D01*
X681082Y42937D01*
X683503Y45358D01*
X685214Y48322D01*
X686100Y51628D01*
Y55051D01*
X685214Y58358D01*
X683503Y61322D01*
X681082Y63743D01*
X678287Y65356D01*
X678196Y66040D01*
X678287Y66724D01*
X681082Y68337D01*
X683503Y70758D01*
X685214Y73722D01*
X686100Y77028D01*
Y80451D01*
X685446Y82892D01*
X686383Y84163D01*
X725066D01*
X759385Y49844D01*
X758665Y48767D01*
X757840Y49109D01*
X754380Y49564D01*
X750920Y49109D01*
X747695Y47773D01*
X744926Y45649D01*
X743505Y43796D01*
X742235Y44227D01*
Y49450D01*
X715725D01*
Y36597D01*
X652774D01*
X645603Y43768D01*
Y93456D01*
X646777Y93942D01*
X654765Y85954D01*
D02*
G37*
G36*
X540472Y45885D02*
X542507Y45340D01*
X544613D01*
X546224Y45771D01*
X555550Y36446D01*
Y-4696D01*
X553335Y-6910D01*
X547585D01*
X547043Y-6368D01*
X544877Y-5117D01*
X542461Y-4470D01*
X539959D01*
X538978Y-3717D01*
Y45478D01*
X540077Y46113D01*
X540472Y45885D01*
D02*
G37*
G36*
X575542Y26676D02*
Y-31701D01*
X573678Y-32777D01*
X571257Y-35198D01*
X569644Y-37993D01*
X568960Y-38084D01*
X568276Y-37993D01*
X566663Y-35198D01*
X564242Y-32777D01*
X561278Y-31066D01*
X557971Y-30180D01*
X554548D01*
X552469Y-30737D01*
X545602Y-23870D01*
X545811Y-22283D01*
X547043Y-21572D01*
X547585Y-21030D01*
X556260D01*
X558087Y-20790D01*
X559790Y-20085D01*
X561252Y-18962D01*
X567602Y-12612D01*
X568725Y-11150D01*
X569430Y-9447D01*
X569670Y-7620D01*
Y30889D01*
X570844Y31375D01*
X575542Y26676D01*
D02*
G37*
G36*
X522202Y82D02*
Y-33453D01*
X520457Y-35198D01*
X518844Y-37993D01*
X518160Y-38084D01*
X517476Y-37993D01*
X515863Y-35198D01*
X513442Y-32777D01*
X510478Y-31066D01*
X507172Y-30180D01*
X503749D01*
X500442Y-31066D01*
X497478Y-32777D01*
X495057Y-35198D01*
X493444Y-37993D01*
X492760Y-38084D01*
X492076Y-37993D01*
X490463Y-35198D01*
X488042Y-32777D01*
X487669Y-32562D01*
X487890Y-31223D01*
X488751Y-31052D01*
X490736Y-29726D01*
X521029Y568D01*
X522202Y82D01*
D02*
G37*
G36*
X597132Y15246D02*
Y-41916D01*
X595833Y-43215D01*
X594660Y-42729D01*
Y-41469D01*
X593774Y-38162D01*
X592063Y-35198D01*
X589642Y-32777D01*
X587777Y-31701D01*
Y22942D01*
X588951Y23428D01*
X597132Y15246D01*
D02*
G37*
%LPC*%
G36*
X487463Y138810D02*
X485357D01*
X483322Y138265D01*
X481498Y137212D01*
X480008Y135722D01*
X478955Y133898D01*
X478410Y131863D01*
Y129757D01*
X478955Y127722D01*
X479350Y127039D01*
Y119764D01*
X461224Y101639D01*
X460462Y101435D01*
X458638Y100382D01*
X457148Y98892D01*
X456095Y97068D01*
X455550Y95033D01*
Y92927D01*
X456095Y90892D01*
X457148Y89068D01*
X458638Y87578D01*
X460462Y86525D01*
X462497Y85980D01*
X464603D01*
X466638Y86525D01*
X468462Y87578D01*
X469952Y89068D01*
X471005Y90892D01*
X471209Y91654D01*
X491402Y111848D01*
X492524Y113310D01*
X493230Y115013D01*
X493470Y116840D01*
Y127039D01*
X493865Y127722D01*
X494410Y129757D01*
Y131863D01*
X493865Y133898D01*
X492812Y135722D01*
X491322Y137212D01*
X489498Y138265D01*
X487463Y138810D01*
D02*
G37*
G36*
X383323Y175640D02*
X381217D01*
X379182Y175095D01*
X377358Y174042D01*
X375868Y172552D01*
X374815Y170728D01*
X374270Y168693D01*
Y166587D01*
X374815Y164552D01*
X375868Y162728D01*
X377358Y161238D01*
X379020Y160279D01*
Y48221D01*
X378625Y47538D01*
X378080Y45503D01*
Y43397D01*
X378625Y41362D01*
X379678Y39538D01*
X381168Y38048D01*
X382992Y36995D01*
X385027Y36450D01*
X387133D01*
X389168Y36995D01*
X390992Y38048D01*
X392482Y39538D01*
X393535Y41362D01*
X394080Y43397D01*
Y45503D01*
X393535Y47538D01*
X393140Y48221D01*
Y163830D01*
X392900Y165657D01*
X392195Y167360D01*
X391072Y168822D01*
X389929Y169966D01*
X389725Y170728D01*
X388672Y172552D01*
X387182Y174042D01*
X385358Y175095D01*
X383323Y175640D01*
D02*
G37*
%LPD*%
D10*
X456820Y259460D02*
X472980Y243300D01*
X476438Y241300D02*
X477520D01*
X474438Y243300D02*
X476438Y241300D01*
X472980Y243300D02*
X474438D01*
X456820Y259460D02*
Y289940D01*
X548100Y72930D02*
Y161471D01*
X452280Y257291D02*
X548100Y161471D01*
X447740Y255411D02*
X542290Y160861D01*
Y68580D02*
Y160861D01*
X532860Y-19780D02*
Y163870D01*
X443200Y253530D02*
X532860Y163870D01*
X528320Y-40640D02*
Y161990D01*
X436001Y254308D02*
X528320Y161990D01*
X436001Y254308D02*
Y261195D01*
X443200Y253530D02*
Y264888D01*
X441200Y266888D02*
Y267970D01*
Y266888D02*
X443200Y264888D01*
X445740Y275778D02*
X447740Y273778D01*
X445740Y275778D02*
Y276860D01*
X447740Y255411D02*
Y273778D01*
X448310Y287020D02*
X452280Y283050D01*
Y257291D02*
Y283050D01*
X419110Y297169D02*
X449591D01*
X456820Y289940D01*
X414724Y301556D02*
Y325824D01*
Y301556D02*
X419110Y297169D01*
X414724Y325824D02*
X434340Y345440D01*
X473314Y299422D02*
X478692Y304800D01*
X508000D01*
X473314Y285891D02*
Y299422D01*
X469632Y282208D02*
X473314Y285891D01*
X474800Y274570D02*
X659090Y90280D01*
X474800Y274570D02*
Y275410D01*
X659090Y90280D02*
X727600D01*
X470618Y266700D02*
X482938Y254380D01*
X469900Y266700D02*
X470618D01*
X482938Y254380D02*
X482938D01*
X406796Y259954D02*
X523240Y143510D01*
X401835Y259954D02*
X406796D01*
X408313Y250380D02*
X516890Y141803D01*
X398590Y250380D02*
X408313D01*
X516890Y13970D02*
Y141803D01*
X532860Y-19780D02*
X556260Y-43180D01*
X610210Y344900D02*
X732790Y222320D01*
X574580Y344900D02*
X610210D01*
X528320Y391160D02*
X574580Y344900D01*
X732790Y108861D02*
Y222320D01*
X419100Y391160D02*
X528320D01*
X457730Y363220D02*
X459740D01*
X273050Y201930D02*
X330200Y259080D01*
X273050Y-16383D02*
Y201930D01*
X330200Y259080D02*
X378460D01*
X528320Y-40640D02*
X530860Y-43180D01*
X542290Y68580D02*
X581660Y29210D01*
X381206Y267764D02*
X398590Y250380D01*
X434340Y345440D02*
X513080D01*
X430340Y351980D02*
X449770D01*
X421640Y360680D02*
Y370840D01*
Y360680D02*
X430340Y351980D01*
X476250Y379730D02*
X521970D01*
X459740Y363220D02*
X476250Y379730D01*
X430530Y363220D02*
X457730D01*
X407670Y379730D02*
X419100Y391160D01*
X407670Y353060D02*
Y379730D01*
Y353060D02*
X415290Y345440D01*
X581660Y-43180D02*
Y29210D01*
X394970Y242570D02*
X399418D01*
X378460Y259080D02*
X394970Y242570D01*
X424180Y-19050D02*
X483870D01*
X516890Y13970D01*
X458205Y42915D02*
X458205D01*
X444500Y29210D02*
X458205Y42915D01*
X508000Y92710D02*
Y106680D01*
X458205Y42915D02*
X508000Y92710D01*
X486410Y-25400D02*
X523240Y11430D01*
X429260Y-43180D02*
X447040Y-25400D01*
X486410D01*
X523240Y11430D02*
Y143510D01*
X603250Y-44450D02*
Y17780D01*
X520510Y-58230D02*
X589470D01*
X603250Y-44450D01*
X548100Y72930D02*
X603250Y17780D01*
X482938Y254380D02*
X639486Y97832D01*
Y41234D02*
Y97832D01*
X500380Y261831D02*
X617431Y144780D01*
X678180D02*
X687070Y135890D01*
X617431Y144780D02*
X678180D01*
X491477Y264314D02*
X626251Y129540D01*
X673100D01*
X687070Y112932D02*
Y135890D01*
X680957Y106819D02*
X687070Y112932D01*
X673100Y104140D02*
X675779Y106819D01*
X680957D01*
X727600Y90280D02*
X776682Y41198D01*
X727710Y30480D02*
X728980Y31750D01*
X650240Y30480D02*
X727710D01*
X639486Y41234D02*
X650240Y30480D01*
X414020Y12700D02*
X491738Y90418D01*
X382270Y12700D02*
X414020D01*
X505460Y-43180D02*
X520510Y-58230D01*
X403860Y-43180D02*
Y-39392D01*
X407733Y-35518D01*
Y-35497D01*
X424180Y-19050D01*
X521970Y328930D02*
X537906Y312994D01*
Y269936D02*
Y312994D01*
X522990Y255020D02*
X537906Y269936D01*
X500380Y261831D02*
Y280670D01*
X491490Y289560D02*
X500380Y280670D01*
X479854Y289560D02*
X491490D01*
X491477Y264314D02*
Y277937D01*
X325548Y320882D02*
X389048D01*
X288290Y358140D02*
X325548Y320882D01*
X421640Y303889D02*
X421819Y303710D01*
X421640Y303889D02*
Y325120D01*
X436880Y340360D01*
X513080Y345440D02*
X521970Y354330D01*
X457730Y363220D02*
X458310Y362640D01*
X519544Y311150D02*
X524700D01*
X499224Y331470D02*
X519544Y311150D01*
X728980Y31750D02*
Y34578D01*
X401825Y243075D02*
X402590Y243840D01*
X399923Y243075D02*
X401825D01*
X399418Y242570D02*
X399923Y243075D01*
X436880Y340360D02*
X608330D01*
X728250Y106981D02*
Y220440D01*
X608330Y340360D02*
X728250Y220440D01*
X749490Y114490D02*
Y328740D01*
X737870Y340360D02*
X749490Y328740D01*
X447579Y331470D02*
X499224D01*
X439510Y323401D02*
X447579Y331470D01*
X732790Y108861D02*
X755291Y86360D01*
X791210D02*
X810260Y105410D01*
X755291Y86360D02*
X791210D01*
X728250Y106981D02*
X755221Y80010D01*
X810260D01*
X742950Y107950D02*
X749490Y114490D01*
X742950Y123190D02*
Y314960D01*
X737870Y320040D02*
X742950Y314960D01*
X246380Y-43053D02*
X273050Y-16383D01*
D36*
X725170Y-91440D02*
D03*
X123190D02*
D03*
D56*
X246380Y-43053D02*
D03*
X149252Y286535D02*
D03*
X208280Y51000D02*
D03*
X205940Y287020D02*
D03*
D94*
X86210Y277113D02*
D03*
D102*
X35710Y302007D02*
D03*
D108*
X462360Y261755D02*
X471170Y252945D01*
X462360Y273633D02*
X468632Y279905D01*
Y280667D02*
X469632Y281667D01*
X471170Y252945D02*
X475275Y248840D01*
X468632Y279905D02*
Y280667D01*
X462360Y261755D02*
Y273633D01*
X469632Y281667D02*
Y282208D01*
X471170Y252945D02*
Y252945D01*
X475275Y248840D02*
X480643D01*
X463550Y93980D02*
X486410Y116840D01*
Y130810D01*
X453390Y-54610D02*
Y-42702D01*
X303530Y-36830D02*
X336550Y-69850D01*
X438150D02*
X453390Y-54610D01*
X336550Y-69850D02*
X438150D01*
X303530Y-36830D02*
Y95250D01*
X562610Y158750D02*
Y166873D01*
X480643Y248840D02*
X562610Y166873D01*
X541210Y-13970D02*
X556260D01*
X562610Y-7620D02*
Y39370D01*
X556260Y-13970D02*
X562610Y-7620D01*
X543560Y53340D02*
X548640D01*
X562610Y39370D01*
X382270Y167640D02*
X386080Y163830D01*
Y44450D02*
Y163830D01*
X372180Y252540D02*
X391040Y233680D01*
X406400D01*
X344170Y212090D02*
Y224530D01*
Y205237D02*
Y212090D01*
X303530Y164597D02*
X344170Y205237D01*
Y224530D02*
X372180Y252540D01*
X303530Y95250D02*
Y164597D01*
X323850Y195580D02*
Y236030D01*
X340360Y252540D01*
X230940Y287020D02*
X255900Y262060D01*
Y127000D02*
Y262060D01*
D109*
X205940Y287020D02*
Y301190D01*
X278130Y373380D01*
X77470Y134620D02*
X102870Y160020D01*
X77470Y43180D02*
Y134620D01*
X87630Y33020D02*
X113030D01*
X77470Y43180D02*
X87630Y33020D01*
X149252Y286535D02*
X165100Y270687D01*
Y184150D02*
Y270687D01*
X137160Y156210D02*
X165100Y184150D01*
X86210Y274407D02*
Y277113D01*
X229997Y286077D02*
X230940Y287020D01*
X104140Y210820D02*
X106786D01*
X110597Y156210D02*
X137160D01*
X106786Y160020D02*
X110597Y156210D01*
D111*
X403860Y405130D02*
X521970D01*
X369570Y353060D02*
Y370840D01*
X403860Y405130D01*
D112*
X779780Y31750D02*
D03*
X754380D02*
D03*
D113*
X728980D02*
D03*
D114*
X403860Y-43180D02*
D03*
X429260D02*
D03*
X454660D02*
D03*
X480060D02*
D03*
X505460D02*
D03*
X530860D02*
D03*
X556260D02*
D03*
X581660D02*
D03*
X31750Y193040D02*
D03*
Y218440D02*
D03*
X810260Y25400D02*
D03*
Y50800D02*
D03*
Y80010D02*
D03*
Y105410D02*
D03*
Y160020D02*
D03*
Y134620D02*
D03*
X673100Y129540D02*
D03*
Y104140D02*
D03*
Y78740D02*
D03*
Y53340D02*
D03*
D115*
X170180Y-43180D02*
D03*
X230940Y287020D02*
D03*
D116*
X115570Y33020D02*
D03*
D117*
X77470Y83820D02*
D03*
X140970D02*
D03*
D118*
X102870Y160020D02*
D03*
Y210820D02*
D03*
X137160Y215900D02*
D03*
Y156210D02*
D03*
D119*
X149252Y311935D02*
D03*
X208280Y76000D02*
D03*
D120*
X521970Y328930D02*
D03*
D121*
Y354330D02*
D03*
Y379730D02*
D03*
Y405130D02*
D03*
D122*
X436001Y261195D02*
D03*
X441200Y267970D02*
D03*
X445740Y276860D02*
D03*
X448310Y287020D02*
D03*
X469632Y282208D02*
D03*
X474800Y275410D02*
D03*
X469900Y266700D02*
D03*
X486410Y130810D02*
D03*
X463550Y93980D02*
D03*
X382270Y12700D02*
D03*
X406400Y233680D02*
D03*
X477520Y241300D02*
D03*
X522990Y255020D02*
D03*
X562610Y158750D02*
D03*
X444500Y29210D02*
D03*
X491738Y90418D02*
D03*
X508000Y106680D02*
D03*
Y304800D02*
D03*
X288290Y358140D02*
D03*
X389048Y320882D02*
D03*
X421819Y303710D02*
D03*
X421640Y370840D02*
D03*
X449770Y351980D02*
D03*
X458310Y362640D02*
D03*
X479854Y289560D02*
D03*
X369570Y353060D02*
D03*
X524700Y311150D02*
D03*
X278130Y373380D02*
D03*
X430530Y363220D02*
D03*
X402590Y243840D02*
D03*
X381206Y267764D02*
D03*
X401835Y259954D02*
D03*
X344170Y212090D02*
D03*
X372180Y252540D02*
D03*
X491477Y277937D02*
D03*
X415290Y345440D02*
D03*
X439510Y323401D02*
D03*
X386080Y44450D02*
D03*
X382270Y167640D02*
D03*
X737870Y340360D02*
D03*
Y320040D02*
D03*
X742950Y123190D02*
D03*
Y107950D02*
D03*
X303530Y95250D02*
D03*
X323850Y195580D02*
D03*
X340360Y252540D02*
D03*
X543560Y53340D02*
D03*
X255900Y127000D02*
D03*
D123*
X541210Y-13970D02*
D03*
M02*
