G04*
G04 #@! TF.GenerationSoftware,Altium Limited,Altium Designer,23.6.0 (18)*
G04*
G04 Layer_Color=65535*
%FSLAX44Y44*%
%MOMM*%
G71*
G04*
G04 #@! TF.SameCoordinates,157544A1-0EA0-4F56-A15C-28E52037D784*
G04*
G04*
G04 #@! TF.FilePolarity,Positive*
G04*
G01*
G75*
%ADD10C,0.2000*%
%ADD11C,0.1778*%
%ADD12C,0.3000*%
%ADD13C,0.2500*%
%ADD14C,0.6000*%
%ADD15C,0.1000*%
%ADD16C,0.2032*%
%ADD17C,0.1270*%
%ADD18C,0.2540*%
%ADD19C,0.1016*%
%ADD20C,0.1524*%
%ADD21C,0.1800*%
%ADD22C,0.1500*%
%ADD23R,2.5400X1.2700*%
%ADD24R,1.0000X0.3192*%
G36*
X267536Y331065D02*
Y341065D01*
X257536Y331065D01*
X267536Y331065D01*
D02*
G37*
G36*
X804102Y231774D02*
X804224Y231751D01*
X804380Y231718D01*
X804546Y231663D01*
X804713Y231596D01*
X804891Y231496D01*
X804424Y230220D01*
X804413Y230231D01*
X804358Y230253D01*
X804291Y230297D01*
X804202Y230342D01*
X804091Y230386D01*
X803980Y230431D01*
X803858Y230453D01*
X803736Y230464D01*
X803692D01*
X803625Y230453D01*
X803559Y230442D01*
X803481Y230420D01*
X803392Y230386D01*
X803303Y230342D01*
X803214Y230286D01*
X803203Y230275D01*
X803181Y230253D01*
X803137Y230209D01*
X803092Y230142D01*
X803037Y230064D01*
X802981Y229953D01*
X802926Y229820D01*
X802881Y229665D01*
Y229643D01*
X802870Y229609D01*
X802859Y229576D01*
Y229520D01*
X802848Y229454D01*
X802837Y229365D01*
X802826Y229265D01*
X802815Y229154D01*
X802804Y229010D01*
X802793Y228866D01*
Y228688D01*
X802782Y228499D01*
X802770Y228288D01*
Y228055D01*
Y227800D01*
Y226091D01*
X801294D01*
Y231663D01*
X802659D01*
Y230875D01*
X802671Y230886D01*
X802715Y230952D01*
X802782Y231052D01*
X802870Y231174D01*
X802959Y231296D01*
X803070Y231418D01*
X803170Y231529D01*
X803281Y231607D01*
X803292Y231618D01*
X803325Y231640D01*
X803392Y231663D01*
X803470Y231696D01*
X803559Y231729D01*
X803670Y231763D01*
X803781Y231774D01*
X803914Y231785D01*
X804003D01*
X804102Y231774D01*
D02*
G37*
G36*
X808886D02*
X809008Y231763D01*
X809142Y231740D01*
X809286Y231707D01*
X809441Y231663D01*
X809597Y231607D01*
X809619Y231596D01*
X809663Y231574D01*
X809741Y231541D01*
X809830Y231485D01*
X809930Y231418D01*
X810030Y231341D01*
X810130Y231252D01*
X810218Y231152D01*
X810229Y231141D01*
X810252Y231108D01*
X810285Y231052D01*
X810329Y230974D01*
X810385Y230886D01*
X810429Y230775D01*
X810474Y230664D01*
X810507Y230530D01*
Y230519D01*
X810518Y230464D01*
X810540Y230386D01*
X810551Y230275D01*
X810574Y230142D01*
X810585Y229964D01*
X810596Y229776D01*
Y229543D01*
Y226091D01*
X809119D01*
Y228921D01*
Y228932D01*
Y228965D01*
Y229010D01*
Y229065D01*
Y229143D01*
Y229221D01*
X809108Y229409D01*
X809097Y229598D01*
X809075Y229798D01*
X809053Y229964D01*
X809042Y230031D01*
X809020Y230086D01*
Y230098D01*
X808997Y230131D01*
X808975Y230175D01*
X808942Y230242D01*
X808842Y230375D01*
X808786Y230442D01*
X808709Y230497D01*
X808698Y230508D01*
X808676Y230519D01*
X808631Y230542D01*
X808565Y230575D01*
X808487Y230608D01*
X808409Y230630D01*
X808309Y230641D01*
X808198Y230653D01*
X808132D01*
X808065Y230641D01*
X807976Y230630D01*
X807865Y230597D01*
X807754Y230564D01*
X807632Y230508D01*
X807510Y230442D01*
X807499Y230431D01*
X807466Y230408D01*
X807410Y230353D01*
X807344Y230297D01*
X807277Y230209D01*
X807210Y230120D01*
X807144Y229998D01*
X807099Y229876D01*
Y229865D01*
X807077Y229809D01*
X807066Y229720D01*
X807044Y229587D01*
X807033Y229509D01*
X807022Y229409D01*
X807011Y229310D01*
Y229187D01*
X807000Y229065D01*
X806988Y228921D01*
Y228766D01*
Y228599D01*
Y226091D01*
X805512D01*
Y231663D01*
X806877D01*
Y230841D01*
X806889Y230852D01*
X806911Y230886D01*
X806955Y230930D01*
X807011Y230986D01*
X807077Y231063D01*
X807166Y231141D01*
X807266Y231230D01*
X807377Y231318D01*
X807499Y231396D01*
X807643Y231485D01*
X807787Y231563D01*
X807954Y231640D01*
X808132Y231696D01*
X808309Y231740D01*
X808509Y231774D01*
X808709Y231785D01*
X808786D01*
X808886Y231774D01*
D02*
G37*
G36*
X799840Y226091D02*
X798475D01*
Y226923D01*
X798464Y226901D01*
X798419Y226845D01*
X798353Y226768D01*
X798253Y226668D01*
X798142Y226546D01*
X797998Y226435D01*
X797842Y226313D01*
X797664Y226213D01*
X797642Y226201D01*
X797576Y226179D01*
X797476Y226135D01*
X797343Y226091D01*
X797187Y226046D01*
X797010Y226002D01*
X796821Y225979D01*
X796621Y225968D01*
X796521D01*
X796421Y225979D01*
X796288Y226002D01*
X796122Y226024D01*
X795955Y226068D01*
X795778Y226135D01*
X795611Y226213D01*
X795589Y226224D01*
X795545Y226257D01*
X795456Y226313D01*
X795367Y226390D01*
X795256Y226490D01*
X795156Y226601D01*
X795056Y226745D01*
X794967Y226901D01*
X794956Y226923D01*
X794934Y226978D01*
X794901Y227078D01*
X794867Y227223D01*
X794834Y227400D01*
X794801Y227611D01*
X794779Y227855D01*
X794768Y228133D01*
Y231663D01*
X796244D01*
Y229099D01*
Y229088D01*
Y229043D01*
Y228988D01*
Y228910D01*
Y228821D01*
Y228721D01*
X796255Y228488D01*
X796266Y228233D01*
X796277Y228000D01*
X796288Y227900D01*
X796299Y227800D01*
X796310Y227722D01*
X796321Y227667D01*
Y227656D01*
X796332Y227622D01*
X796355Y227578D01*
X796388Y227511D01*
X796421Y227445D01*
X796477Y227378D01*
X796532Y227311D01*
X796610Y227245D01*
X796621Y227234D01*
X796654Y227223D01*
X796699Y227201D01*
X796765Y227178D01*
X796843Y227145D01*
X796943Y227123D01*
X797043Y227112D01*
X797165Y227101D01*
X797232D01*
X797298Y227112D01*
X797387Y227123D01*
X797498Y227145D01*
X797609Y227189D01*
X797731Y227234D01*
X797842Y227300D01*
X797853Y227311D01*
X797887Y227334D01*
X797942Y227378D01*
X798009Y227445D01*
X798075Y227522D01*
X798142Y227600D01*
X798208Y227700D01*
X798253Y227811D01*
Y227822D01*
X798275Y227878D01*
Y227922D01*
X798286Y227978D01*
X798297Y228033D01*
X798308Y228111D01*
X798319Y228211D01*
X798331Y228311D01*
X798342Y228433D01*
Y228577D01*
X798353Y228732D01*
X798364Y228910D01*
Y229099D01*
Y229310D01*
Y231663D01*
X799840D01*
Y226091D01*
D02*
G37*
G36*
X790638Y233761D02*
X790860Y233749D01*
X791082Y233738D01*
X791293Y233716D01*
X791482Y233694D01*
X791504D01*
X791560Y233683D01*
X791637Y233661D01*
X791748Y233627D01*
X791870Y233583D01*
X792004Y233527D01*
X792148Y233461D01*
X792281Y233372D01*
X792292Y233361D01*
X792337Y233328D01*
X792403Y233272D01*
X792492Y233206D01*
X792581Y233106D01*
X792681Y232995D01*
X792781Y232873D01*
X792869Y232728D01*
X792880Y232706D01*
X792903Y232662D01*
X792947Y232573D01*
X792991Y232462D01*
X793036Y232329D01*
X793080Y232184D01*
X793102Y232007D01*
X793114Y231829D01*
Y231818D01*
Y231807D01*
Y231740D01*
X793102Y231640D01*
X793080Y231507D01*
X793036Y231352D01*
X792991Y231185D01*
X792914Y231019D01*
X792814Y230841D01*
X792803Y230819D01*
X792758Y230763D01*
X792692Y230686D01*
X792614Y230586D01*
X792503Y230486D01*
X792370Y230364D01*
X792215Y230264D01*
X792037Y230164D01*
X792048D01*
X792070Y230153D01*
X792104Y230142D01*
X792148Y230131D01*
X792281Y230075D01*
X792437Y229998D01*
X792603Y229909D01*
X792792Y229787D01*
X792958Y229643D01*
X793114Y229465D01*
X793125Y229443D01*
X793169Y229376D01*
X793236Y229276D01*
X793302Y229143D01*
X793369Y228965D01*
X793436Y228777D01*
X793480Y228555D01*
X793491Y228311D01*
Y228299D01*
Y228288D01*
Y228222D01*
X793480Y228122D01*
X793458Y227989D01*
X793436Y227833D01*
X793391Y227656D01*
X793325Y227478D01*
X793247Y227289D01*
X793236Y227267D01*
X793202Y227212D01*
X793147Y227123D01*
X793069Y227012D01*
X792980Y226879D01*
X792858Y226756D01*
X792736Y226623D01*
X792581Y226501D01*
X792559Y226490D01*
X792503Y226457D01*
X792414Y226401D01*
X792292Y226346D01*
X792137Y226279D01*
X791959Y226224D01*
X791759Y226168D01*
X791537Y226135D01*
X791493D01*
X791449Y226124D01*
X791338D01*
X791260Y226113D01*
X791049D01*
X790916Y226102D01*
X790583D01*
X790394Y226091D01*
X787064D01*
Y233772D01*
X790439D01*
X790638Y233761D01*
D02*
G37*
%LPC*%
G36*
X790161Y232495D02*
X788618D01*
Y230719D01*
X790106D01*
X790294Y230730D01*
X790638D01*
X790705Y230741D01*
X790771D01*
X790816Y230752D01*
X790882Y230763D01*
X790982Y230797D01*
X791082Y230830D01*
X791182Y230875D01*
X791282Y230930D01*
X791371Y231008D01*
X791382Y231019D01*
X791404Y231052D01*
X791449Y231096D01*
X791493Y231174D01*
X791526Y231263D01*
X791571Y231363D01*
X791593Y231485D01*
X791604Y231618D01*
Y231629D01*
Y231674D01*
X791593Y231740D01*
X791582Y231829D01*
X791560Y231918D01*
X791515Y232007D01*
X791471Y232107D01*
X791404Y232195D01*
X791393Y232206D01*
X791371Y232229D01*
X791315Y232273D01*
X791260Y232318D01*
X791171Y232362D01*
X791071Y232406D01*
X790949Y232440D01*
X790816Y232462D01*
X790805D01*
X790760Y232473D01*
X790638D01*
X790572Y232484D01*
X790283D01*
X790161Y232495D01*
D02*
G37*
G36*
X790228Y229443D02*
X788618D01*
Y227389D01*
X790328D01*
X790494Y227400D01*
X790672D01*
X790849Y227411D01*
X790993Y227423D01*
X791060D01*
X791105Y227434D01*
X791116D01*
X791160Y227445D01*
X791227Y227467D01*
X791304Y227489D01*
X791393Y227533D01*
X791493Y227589D01*
X791582Y227656D01*
X791671Y227733D01*
X791682Y227744D01*
X791704Y227778D01*
X791737Y227833D01*
X791782Y227911D01*
X791826Y228000D01*
X791859Y228111D01*
X791881Y228244D01*
X791893Y228388D01*
Y228399D01*
Y228444D01*
X791881Y228510D01*
X791870Y228588D01*
X791848Y228688D01*
X791815Y228777D01*
X791770Y228877D01*
X791715Y228976D01*
X791704Y228988D01*
X791682Y229021D01*
X791648Y229065D01*
X791593Y229110D01*
X791526Y229176D01*
X791438Y229232D01*
X791338Y229287D01*
X791227Y229332D01*
X791216D01*
X791160Y229354D01*
X791071Y229365D01*
X791016Y229376D01*
X790938Y229387D01*
X790860Y229398D01*
X790760Y229409D01*
X790649Y229421D01*
X790516D01*
X790383Y229432D01*
X790228Y229443D01*
D02*
G37*
%LPD*%
D10*
X494550Y326700D02*
G03*
X494550Y326700I-1500J0D01*
G01*
X540540Y340990D02*
G03*
X540540Y340990I-1000J0D01*
G01*
X729432Y-81980D02*
X729992Y-82265D01*
X720916Y-81980D02*
X721493Y-81730D01*
X728856D02*
X729432Y-81980D01*
X721493Y-81730D02*
X722084Y-81517D01*
X728264D02*
X728856Y-81730D01*
X722084Y-81517D02*
X722687Y-81342D01*
X727661D02*
X728264Y-81517D01*
X722687Y-81342D02*
X723300Y-81205D01*
X727048D02*
X727661Y-81342D01*
X723300Y-81205D02*
X723921Y-81107D01*
X726428D02*
X727048Y-81205D01*
X723921Y-81107D02*
X724546Y-81048D01*
X725802D02*
X726428Y-81107D01*
X725174Y-81028D02*
X725802Y-81048D01*
X724546D02*
X725174Y-81028D01*
Y-101028D02*
X725802Y-101008D01*
X726428Y-100949D01*
X727048Y-100851D01*
X727661Y-100714D01*
X728264Y-100539D01*
X728856Y-100326D01*
X729432Y-100076D01*
X729992Y-99791D01*
X730533Y-99471D01*
X731052Y-99118D01*
X731548Y-98733D01*
X732020Y-98318D01*
X732464Y-97873D01*
X724546Y-101008D02*
X725174Y-101028D01*
X723921Y-100949D02*
X724546Y-101008D01*
X723300Y-100851D02*
X723921Y-100949D01*
X722687Y-100714D02*
X723300Y-100851D01*
X722084Y-100539D02*
X722687Y-100714D01*
X721493Y-100326D02*
X722084Y-100539D01*
X720916Y-100076D02*
X721493Y-100326D01*
X720357Y-99791D02*
X720916Y-100076D01*
X719816Y-99471D02*
X720357Y-99791D01*
X719296Y-99118D02*
X719816Y-99471D01*
X718800Y-98733D02*
X719296Y-99118D01*
X718329Y-98318D02*
X718800Y-98733D01*
X717885Y-97873D02*
X718329Y-98318D01*
X717469Y-97402D02*
X717885Y-97873D01*
X717084Y-96906D02*
X717469Y-97402D01*
X716731Y-96386D02*
X717084Y-96906D01*
X716411Y-95846D02*
X716731Y-96386D01*
X716126Y-95286D02*
X716411Y-95846D01*
X720357Y-82265D02*
X720916Y-81980D01*
X734860Y-88541D02*
X734997Y-89154D01*
X734685Y-87938D02*
X734860Y-88541D01*
X734472Y-87347D02*
X734685Y-87938D01*
X729992Y-82265D02*
X730533Y-82585D01*
X719816D02*
X720357Y-82265D01*
X734997Y-89154D02*
X735095Y-89775D01*
X733264Y-96906D02*
X733617Y-96386D01*
X732879Y-97402D02*
X733264Y-96906D01*
X716126Y-86770D02*
X716411Y-86210D01*
X716731Y-85670D01*
X717084Y-85150D01*
X717469Y-84654D01*
X717885Y-84183D01*
X718329Y-83738D01*
X718800Y-83323D01*
X734222Y-86770D02*
X734472Y-87347D01*
X733937Y-86210D02*
X734222Y-86770D01*
X733617Y-85670D02*
X733937Y-86210D01*
X733264Y-85150D02*
X733617Y-85670D01*
X732879Y-84654D02*
X733264Y-85150D01*
X732464Y-84183D02*
X732879Y-84654D01*
X732020Y-83738D02*
X732464Y-84183D01*
X731548Y-83323D02*
X732020Y-83738D01*
X718800Y-83323D02*
X719296Y-82938D01*
X731052D02*
X731548Y-83323D01*
X719296Y-82938D02*
X719816Y-82585D01*
X730533D02*
X731052Y-82938D01*
X732464Y-97873D02*
X732879Y-97402D01*
X735154Y-91656D02*
X735174Y-91028D01*
X733617Y-96386D02*
X733937Y-95846D01*
X734222Y-95286D01*
X734472Y-94709D01*
X734685Y-94118D01*
X734860Y-93515D01*
X734997Y-92902D01*
X735095Y-92281D01*
X735154Y-91656D01*
Y-90400D02*
X735174Y-91028D01*
X735095Y-89775D02*
X735154Y-90400D01*
X297950Y366840D02*
X298950D01*
X297950Y374840D02*
X298950D01*
X484292Y8305D02*
Y59305D01*
X517792Y8305D02*
Y59305D01*
X484292D02*
X517792D01*
X484292Y8305D02*
X517792D01*
X345061Y103850D02*
Y162850D01*
X261999D02*
X345061D01*
X261999Y103850D02*
Y162850D01*
Y103850D02*
X345061D01*
X294280Y108850D02*
X312780D01*
X294280Y157850D02*
X312780D01*
X511310Y-15050D02*
X512310D01*
X511310Y-23050D02*
X512310D01*
X462176Y361483D02*
Y382971D01*
Y361483D02*
X500757D01*
Y382971D01*
X462176D02*
X500757D01*
X475330Y379610D02*
X487330D01*
X475330Y364610D02*
X487330D01*
X488760Y408440D02*
Y409440D01*
X496760Y408440D02*
Y409440D01*
X477710Y408440D02*
Y409440D01*
X469710Y408440D02*
Y409440D01*
X448120Y408440D02*
Y409440D01*
X456120Y408440D02*
Y409440D01*
X370340Y374840D02*
X371340D01*
X370340Y366840D02*
X371340D01*
X437950Y34680D02*
X437950Y30180D01*
X437950Y51680D02*
X437950Y56180D01*
X421700D02*
X437950D01*
X421700Y30180D02*
X437950D01*
X577212Y24795D02*
X605212D01*
X577212Y9795D02*
X605212Y9795D01*
X577212Y23045D02*
Y24795D01*
X605212Y23045D02*
Y24795D01*
X577212Y9795D02*
Y11545D01*
X605212Y9795D02*
Y11545D01*
X565212Y45265D02*
X566962D01*
X565212Y17265D02*
X566962Y17265D01*
X551962Y45265D02*
X553712D01*
X551962Y17265D02*
X553712Y17265D01*
X566962Y45265D02*
X566962Y17265D01*
X551962Y17265D02*
Y45265D01*
X577212Y40825D02*
Y42575D01*
X605212Y40825D02*
Y42575D01*
X577212Y27575D02*
Y29325D01*
X605212Y27575D02*
Y29325D01*
X577212Y42575D02*
X605212Y42575D01*
X577212Y27575D02*
X605212D01*
X128240Y246460D02*
Y256460D01*
X133240Y248460D02*
Y254460D01*
X134240Y246460D02*
Y256460D01*
X129240Y251460D02*
X134240Y256460D01*
X131740Y249960D02*
Y252960D01*
X129240Y251460D02*
X134240Y246460D01*
X100330Y266700D02*
X120080D01*
X100330Y238760D02*
X120080D01*
X144080D02*
X165100D01*
X144080Y266700D02*
X165100D01*
X97790Y241300D02*
Y264160D01*
Y241300D02*
X100330Y238760D01*
X97790Y264160D02*
X100330Y266700D01*
X165100Y238760D02*
Y266700D01*
X9960Y274560D02*
Y304560D01*
X95960Y274560D02*
X111960Y274560D01*
X9960D02*
X76460Y274560D01*
X111960Y274560D02*
Y304560D01*
X45460Y304560D02*
X111960Y304560D01*
X9960D02*
X25960Y304560D01*
X326360Y291620D02*
Y358620D01*
X354360Y291620D02*
Y358620D01*
X326360D02*
X354360D01*
X326360Y291620D02*
X354360D01*
X509270Y420332D02*
X534670D01*
Y313731D02*
Y420332D01*
X509270Y313731D02*
Y420332D01*
Y313731D02*
X534670D01*
X509270Y341630D02*
X534670D01*
X715876Y-87347D02*
X716126Y-86770D01*
X715664Y-87938D02*
X715876Y-87347D01*
X715488Y-88541D02*
X715664Y-87938D01*
X715351Y-89154D02*
X715488Y-88541D01*
X715253Y-89775D02*
X715351Y-89154D01*
X715194Y-90400D02*
X715253Y-89775D01*
X715174Y-91028D02*
X715194Y-90400D01*
X715174Y-91028D02*
X715194Y-91656D01*
X715253Y-92281D01*
X715351Y-92902D01*
X715488Y-93515D02*
X715664Y-94118D01*
X715876Y-94709D01*
X716126Y-95286D01*
X715351Y-92902D02*
X715488Y-93515D01*
X233967Y359926D02*
X234592Y359985D01*
X232733Y359691D02*
X233346Y359828D01*
X232130Y359516D02*
X232733Y359691D01*
X231539Y359303D02*
X232130Y359516D01*
X233346Y359828D02*
X233967Y359926D01*
X230962Y359053D02*
X231539Y359303D01*
X234592Y359985D02*
X235220Y360005D01*
X230403Y358768D02*
X230962Y359053D01*
X229862Y358448D02*
X230403Y358768D01*
X229342Y358095D02*
X229862Y358448D01*
X228846Y357710D02*
X229342Y358095D01*
X228375Y357295D02*
X228846Y357710D01*
X227930Y356851D02*
X228375Y357295D01*
X227515Y356379D02*
X227930Y356851D01*
X227130Y355883D02*
X227515Y356379D01*
X226457Y354823D02*
X226777Y355363D01*
X226172Y354263D02*
X226457Y354823D01*
X226777Y355363D02*
X227130Y355883D01*
X225922Y353686D02*
X226172Y354263D01*
X225709Y353095D02*
X225922Y353686D01*
X225534Y352492D02*
X225709Y353095D01*
X225397Y351879D02*
X225534Y352492D01*
X225299Y351258D02*
X225397Y351879D01*
X225240Y350633D02*
X225299Y351258D01*
X225220Y350005D02*
X225240Y350633D01*
X225220Y350005D02*
X225240Y349377D01*
X225299Y348752D02*
X225397Y348131D01*
X225534Y347518D01*
X225709Y346915D01*
X225922Y346324D01*
X225240Y349377D02*
X225299Y348752D01*
X225922Y346324D02*
X226172Y345747D01*
X226457Y345187D01*
X226777Y344647D01*
X227130Y344127D01*
X227515Y343631D01*
X227930Y343159D01*
X228375Y342715D01*
X228846Y342300D01*
X229342Y341915D02*
X229862Y341562D01*
X230403Y341242D01*
X228846Y342300D02*
X229342Y341915D01*
X230403Y341242D02*
X230962Y340957D01*
X238901Y340707D02*
X239478Y340957D01*
X240037Y341242D01*
X240578Y341562D01*
X241098Y341915D01*
X241594Y342300D01*
X242066Y342715D01*
X242510Y343159D01*
X242925Y343631D02*
X243310Y344127D01*
X243663Y344647D01*
X242510Y343159D02*
X242925Y343631D01*
X243663Y344647D02*
X243983Y345187D01*
X244268Y345747D01*
X244518Y346324D01*
X244731Y346915D01*
X244906Y347518D02*
X245043Y348131D01*
X245141Y348752D01*
X245200Y349377D01*
X245220Y350005D01*
X245200Y350633D02*
X245220Y350005D01*
X245141Y351258D02*
X245200Y350633D01*
X245043Y351879D02*
X245141Y351258D01*
X244906Y352492D02*
X245043Y351879D01*
X244731Y346915D02*
X244906Y347518D01*
X244731Y353095D02*
X244906Y352492D01*
X244518Y353686D02*
X244731Y353095D01*
X244268Y354263D02*
X244518Y353686D01*
X243983Y354823D02*
X244268Y354263D01*
X243310Y355883D02*
X243663Y355363D01*
X242925Y356379D02*
X243310Y355883D01*
X243663Y355363D02*
X243983Y354823D01*
X242510Y356851D02*
X242925Y356379D01*
X242066Y357295D02*
X242510Y356851D01*
X241594Y357710D02*
X242066Y357295D01*
X241098Y358095D02*
X241594Y357710D01*
X240578Y358448D02*
X241098Y358095D01*
X240037Y358768D02*
X240578Y358448D01*
X239478Y359053D02*
X240037Y358768D01*
X238901Y359303D02*
X239478Y359053D01*
X238310Y359516D02*
X238901Y359303D01*
X237707Y359691D02*
X238310Y359516D01*
X237094Y359828D02*
X237707Y359691D01*
X236473Y359926D02*
X237094Y359828D01*
X235848Y359985D02*
X236473Y359926D01*
X235220Y360005D02*
X235848Y359985D01*
X230962Y340957D02*
X231539Y340707D01*
X232130Y340494D01*
X232733Y340319D01*
X233346Y340182D01*
X233967Y340084D01*
X234592Y340025D01*
X235220Y340005D01*
X235848Y340025D02*
X236473Y340084D01*
X237094Y340182D01*
X237707Y340319D01*
X238310Y340494D01*
X235220Y340005D02*
X235848Y340025D01*
X238310Y340494D02*
X238901Y340707D01*
X117981Y-82977D02*
X118540Y-82692D01*
X117440Y-83297D02*
X117981Y-82977D01*
X116920Y-83650D02*
X117440Y-83297D01*
X116424Y-84035D02*
X116920Y-83650D01*
X115953Y-84450D02*
X116424Y-84035D01*
X115509Y-84895D02*
X115953Y-84450D01*
X115093Y-85366D02*
X115509Y-84895D01*
X114708Y-85862D02*
X115093Y-85366D01*
X114035Y-86923D02*
X114355Y-86382D01*
X113750Y-87482D02*
X114035Y-86923D01*
X114355Y-86382D02*
X114708Y-85862D01*
X113500Y-88059D02*
X113750Y-87482D01*
X113288Y-88650D02*
X113500Y-88059D01*
X113112Y-89253D02*
X113288Y-88650D01*
X112975Y-89866D02*
X113112Y-89253D01*
X112877Y-90487D02*
X112975Y-89866D01*
X112818Y-91112D02*
X112877Y-90487D01*
X112798Y-91740D02*
X112818Y-91112D01*
X112798Y-91740D02*
X112818Y-92368D01*
X112877Y-92993D02*
X112975Y-93614D01*
X113112Y-94227D01*
X113288Y-94830D01*
X113500Y-95421D01*
X112818Y-92368D02*
X112877Y-92993D01*
X113500Y-95421D02*
X113750Y-95998D01*
X114035Y-96558D01*
X114355Y-97098D01*
X114708Y-97618D01*
X115093Y-98114D01*
X115509Y-98586D01*
X115953Y-99030D01*
X116424Y-99445D01*
X116920Y-99830D02*
X117440Y-100183D01*
X117981Y-100503D01*
X116424Y-99445D02*
X116920Y-99830D01*
X117981Y-100503D02*
X118540Y-100788D01*
X126480Y-101038D02*
X127056Y-100788D01*
X127616Y-100503D01*
X128156Y-100183D01*
X128676Y-99830D01*
X129172Y-99445D01*
X129644Y-99030D01*
X130088Y-98586D01*
X130503Y-98114D02*
X130888Y-97618D01*
X131242Y-97098D01*
X130088Y-98586D02*
X130503Y-98114D01*
X131242Y-97098D02*
X131561Y-96558D01*
X129644Y-84450D02*
X130088Y-84895D01*
X129172Y-84035D02*
X129644Y-84450D01*
X128676Y-83650D02*
X129172Y-84035D01*
X128156Y-83297D02*
X128676Y-83650D01*
X127616Y-82977D02*
X128156Y-83297D01*
X127056Y-82692D02*
X127616Y-82977D01*
X126480Y-82442D02*
X127056Y-82692D01*
X125888Y-82229D02*
X126480Y-82442D01*
X125285Y-82054D02*
X125888Y-82229D01*
X124672Y-81917D02*
X125285Y-82054D01*
X124052Y-81819D02*
X124672Y-81917D01*
X123426Y-81760D02*
X124052Y-81819D01*
X122798Y-81740D02*
X123426Y-81760D01*
X132096Y-88059D02*
X132309Y-88650D01*
X131847Y-87482D02*
X132096Y-88059D01*
X131561Y-86923D02*
X131847Y-87482D01*
X130888Y-85862D02*
X131242Y-86382D01*
X130503Y-85366D02*
X130888Y-85862D01*
X131242Y-86382D02*
X131561Y-86923D01*
X130088Y-84895D02*
X130503Y-85366D01*
X118540Y-100788D02*
X119117Y-101038D01*
X119708Y-101251D01*
X120311Y-101426D01*
X120924Y-101563D01*
X121545Y-101661D01*
X122170Y-101720D01*
X122798Y-101740D01*
X123426Y-101720D02*
X124052Y-101661D01*
X124672Y-101563D01*
X125285Y-101426D01*
X125888Y-101251D01*
X122798Y-101740D02*
X123426Y-101720D01*
X125888Y-101251D02*
X126480Y-101038D01*
X131561Y-96558D02*
X131847Y-95998D01*
X132096Y-95421D01*
X132309Y-94830D01*
X132484Y-94227D02*
X132621Y-93614D01*
X132719Y-92993D01*
X132779Y-92368D01*
X132798Y-91740D01*
X132779Y-91112D02*
X132798Y-91740D01*
X132719Y-90487D02*
X132779Y-91112D01*
X132621Y-89866D02*
X132719Y-90487D01*
X132484Y-89253D02*
X132621Y-89866D01*
X132309Y-94830D02*
X132484Y-94227D01*
X132309Y-88650D02*
X132484Y-89253D01*
X122170Y-81760D02*
X122798Y-81740D01*
X121545Y-81819D02*
X122170Y-81760D01*
X120311Y-82054D02*
X120924Y-81917D01*
X119708Y-82229D02*
X120311Y-82054D01*
X119117Y-82442D02*
X119708Y-82229D01*
X120924Y-81917D02*
X121545Y-81819D01*
X118540Y-82692D02*
X119117Y-82442D01*
X511310Y-7810D02*
X512310D01*
X511310Y190D02*
X512310Y190D01*
X439230Y371610D02*
Y372610D01*
X447230D02*
X447230Y371610D01*
D11*
X780925Y47171D02*
G03*
X781035Y16518I-26291J-15421D01*
G01*
X92710Y160020D02*
G03*
X113030Y160020I10160J0D01*
G01*
Y210820D02*
G03*
X92710Y210820I-10160J0D01*
G01*
X156160Y208280D02*
G03*
X118160Y208280I-19000J0D01*
G01*
Y165100D02*
G03*
X156160Y165100I19000J0D01*
G01*
X781050Y16764D02*
Y46736D01*
X19050Y38100D02*
Y121920D01*
X1270Y38100D02*
X139700D01*
X1270Y121920D02*
X139700D01*
Y38100D02*
Y121920D01*
X1270Y38100D02*
Y121920D01*
X92710Y160020D02*
Y210820D01*
X113030Y160020D02*
Y210820D01*
X95250Y179070D02*
X109220D01*
X95250Y190500D02*
X109220D01*
X102870Y171450D02*
Y179070D01*
Y190500D02*
Y198120D01*
X156210Y163322D02*
Y208280D01*
X118110Y163322D02*
Y208280D01*
X137922Y189992D02*
Y197612D01*
Y170942D02*
Y178562D01*
X130302Y189992D02*
X144272D01*
X130302Y178562D02*
X144272D01*
D12*
X594360Y-33180D02*
G03*
X591960Y-30380I-2600J200D01*
G01*
Y-55980D02*
G03*
X594360Y-53180I-200J2600D01*
G01*
X391160D02*
G03*
X393560Y-55980I2600J-200D01*
G01*
Y-30380D02*
G03*
X391160Y-33180I200J-2600D01*
G01*
X18950Y182740D02*
G03*
X21750Y180340I2600J200D01*
G01*
X41750Y180340D02*
G03*
X44550Y182740I200J2600D01*
G01*
X21750Y231140D02*
G03*
X18950Y228340I0J-2800D01*
G01*
X44550D02*
G03*
X41750Y231140I-2800J0D01*
G01*
X797460Y15100D02*
G03*
X800260Y12700I2600J200D01*
G01*
X820260Y12700D02*
G03*
X823060Y15100I200J2600D01*
G01*
X800260Y63500D02*
G03*
X797460Y60700I0J-2800D01*
G01*
X823060D02*
G03*
X820260Y63500I-2800J0D01*
G01*
X797460Y69710D02*
G03*
X800260Y67310I2600J200D01*
G01*
X820260Y67310D02*
G03*
X823060Y69710I200J2600D01*
G01*
X800260Y118110D02*
G03*
X797460Y115310I0J-2800D01*
G01*
X823060D02*
G03*
X820260Y118110I-2800J0D01*
G01*
X823060Y170320D02*
G03*
X820260Y172720I-2600J-200D01*
G01*
X800260Y172720D02*
G03*
X797460Y170320I-200J-2600D01*
G01*
X820260Y121920D02*
G03*
X823060Y124720I0J2800D01*
G01*
X797460D02*
G03*
X800260Y121920I2800J0D01*
G01*
X685900Y139840D02*
G03*
X683100Y142240I-2600J-200D01*
G01*
X663100Y142240D02*
G03*
X660300Y139840I-200J-2600D01*
G01*
X683100Y40640D02*
G03*
X685900Y43440I0J2800D01*
G01*
X660300D02*
G03*
X663100Y40640I2800J0D01*
G01*
X568960Y-53340D02*
Y-32920D01*
X594360Y-53180D02*
Y-33180D01*
X568960Y-53340D02*
X571500Y-55880D01*
X566420D02*
X568960Y-53340D01*
X571500Y-30480D02*
Y-30380D01*
X568960Y-33020D02*
X571500Y-30480D01*
X568960Y-33020D02*
Y-32920D01*
X566420Y-30380D02*
X568960Y-32920D01*
X571500Y-55980D02*
X591960D01*
X543560Y-53340D02*
X546100Y-55880D01*
X541020D02*
X543560Y-53340D01*
X546100Y-55980D02*
X566420D01*
X546100D02*
Y-55880D01*
X571600Y-30380D02*
X591960D01*
X571500Y-30480D02*
X571600Y-30380D01*
X546100D02*
X566420D01*
X546100Y-30480D02*
Y-30380D01*
X543560Y-33020D02*
X546100Y-30480D01*
X541020D02*
X543560Y-33020D01*
X495300Y-55980D02*
Y-55880D01*
Y-55980D02*
X515620D01*
X490220Y-55880D02*
X492760Y-53340D01*
X495300Y-55880D01*
X520700Y-55980D02*
X541160D01*
X515620Y-55880D02*
X518160Y-53340D01*
X520700Y-55880D01*
X444500Y-55980D02*
Y-55880D01*
Y-55980D02*
X464820D01*
X439420Y-55880D02*
X441960Y-53340D01*
X444500Y-55880D01*
X469900Y-55980D02*
X490360D01*
X464820Y-55880D02*
X467360Y-53340D01*
X469900Y-55880D01*
X393700Y-55980D02*
X414020D01*
X419100D02*
X439560D01*
X414020Y-55880D02*
X416560Y-53340D01*
X419100Y-55880D01*
X490220Y-30480D02*
X492760Y-33020D01*
X495300Y-30480D01*
Y-30380D01*
X515620D01*
X520700Y-30480D02*
X520800Y-30380D01*
X541160D01*
X515620D02*
X518160Y-32920D01*
Y-33020D02*
Y-32920D01*
Y-33020D02*
X520700Y-30480D01*
Y-30380D01*
X439420Y-30480D02*
X441960Y-33020D01*
X444500Y-30480D01*
Y-30380D01*
X464820D01*
X469900Y-30480D02*
X470000Y-30380D01*
X490360D01*
X464820D02*
X467360Y-32920D01*
Y-33020D02*
Y-32920D01*
Y-33020D02*
X469900Y-30480D01*
Y-30380D01*
X393700D02*
X414020D01*
X419100Y-30480D02*
X419200Y-30380D01*
X439560D01*
X414020D02*
X416560Y-32920D01*
Y-33020D02*
Y-32920D01*
Y-33020D02*
X419100Y-30480D01*
Y-30380D01*
X391160Y-53180D02*
Y-33180D01*
X44450Y228600D02*
X44550D01*
X18950D02*
X19050D01*
X44550Y182740D02*
Y203100D01*
X18950Y182740D02*
Y203200D01*
X21750Y180340D02*
X41750D01*
X21750Y231140D02*
X41750D01*
X44550Y208280D02*
Y228600D01*
X18950Y208280D02*
Y228600D01*
X41910Y205740D02*
X44450Y203200D01*
X41910Y205740D02*
X42010D01*
X44550Y208280D01*
X19050D02*
X21590Y205740D01*
X19050Y203200D02*
X21590Y205740D01*
X822960Y60960D02*
X823060D01*
X797460D02*
X797560D01*
X823060Y15100D02*
Y35460D01*
X797460Y15100D02*
Y35560D01*
X800260Y12700D02*
X820260D01*
X800260Y63500D02*
X820260D01*
X823060Y40640D02*
Y60960D01*
X797460Y40640D02*
Y60960D01*
X820420Y38100D02*
X822960Y35560D01*
X820420Y38100D02*
X820520D01*
X823060Y40640D01*
X797560D02*
X800100Y38100D01*
X797560Y35560D02*
X800100Y38100D01*
X822960Y115570D02*
X823060D01*
X797460D02*
X797560D01*
X823060Y69710D02*
Y90070D01*
X797460Y69710D02*
Y90170D01*
X800260Y67310D02*
X820260D01*
X800260Y118110D02*
X820260D01*
X823060Y95250D02*
Y115570D01*
X797460Y95250D02*
Y115570D01*
X820420Y92710D02*
X822960Y90170D01*
X820420Y92710D02*
X820520D01*
X823060Y95250D01*
X797560D02*
X800100Y92710D01*
X797560Y90170D02*
X800100Y92710D01*
X797460Y124460D02*
X797560D01*
X822960D02*
X823060D01*
X797460Y149960D02*
Y170320D01*
X823060Y149860D02*
Y170320D01*
X800260Y172720D02*
X820260D01*
X800260Y121920D02*
X820260D01*
X797460Y124460D02*
Y144780D01*
X823060Y124460D02*
Y144780D01*
X797560Y149860D02*
X800100Y147320D01*
X800000D02*
X800100D01*
X797460Y144780D02*
X800000Y147320D01*
X820420D02*
X822960Y144780D01*
X820420Y147320D02*
X822960Y149860D01*
X660300Y43180D02*
X660400D01*
X660300Y68580D02*
X660400D01*
X662940Y66040D01*
X662840D02*
X662940D01*
X660300Y68680D02*
Y89040D01*
Y68680D02*
X660400Y68580D01*
X685800Y43180D02*
X685900D01*
X683260Y66040D02*
X685800Y68580D01*
X685900D02*
Y89040D01*
X660400Y88900D02*
X662940Y91440D01*
X660400Y93980D02*
X662940Y91440D01*
X660300Y93980D02*
X660400D01*
X660300D02*
Y114300D01*
Y119480D02*
X660400Y119380D01*
X660300Y119480D02*
Y139840D01*
X685800Y93980D02*
X685900D01*
Y114300D01*
X683260Y91440D02*
X685800Y88900D01*
X683260Y91440D02*
X685800Y93980D01*
X685900Y119380D02*
Y139840D01*
X660300Y114300D02*
X662840Y116840D01*
X662940D01*
X660400Y119380D02*
X662940Y116840D01*
X660300Y119380D02*
X660400D01*
X683260Y116840D02*
X685800Y114300D01*
X683260Y116840D02*
X685800Y119380D01*
X663100Y142240D02*
X683100D01*
X663100Y40640D02*
X683100D01*
X660300Y43180D02*
Y63500D01*
X685900Y43180D02*
Y63500D01*
X660300D02*
X662840Y66040D01*
X683260D02*
X685800Y63500D01*
X662840Y116840D02*
X683260D01*
D13*
X507350Y352170D02*
G03*
X507350Y352170I-1250J0D01*
G01*
X474042Y62355D02*
G03*
X474042Y62355I-1250J0D01*
G01*
X350311Y114300D02*
G03*
X350311Y114300I-1250J0D01*
G01*
X312610Y358620D02*
G03*
X312610Y358620I-1250J0D01*
G01*
D14*
X497292Y49305D02*
G03*
X497292Y49305I-3000J0D01*
G01*
D15*
X305640Y260350D02*
G03*
X305640Y260350I-11000J0D01*
G01*
X573712Y23045D02*
G03*
X573712Y23045I-500J0D01*
G01*
X554212Y13265D02*
G03*
X554212Y13265I-500J0D01*
G01*
X609712Y29325D02*
G03*
X609712Y29325I-500J0D01*
G01*
X404740Y339090D02*
G03*
X404740Y339090I-8500J0D01*
G01*
X280280Y317500D02*
G03*
X280280Y317500I-8500J0D01*
G01*
X448310Y118109D02*
Y125729D01*
X458470D01*
Y118109D02*
Y125729D01*
X448310Y118109D02*
X458470D01*
X447040Y107949D02*
Y135889D01*
X459740D01*
Y130809D02*
Y135889D01*
Y107949D02*
Y130809D01*
X447040Y107949D02*
X459740D01*
X477520Y118111D02*
Y125731D01*
X467360Y118111D02*
X477520D01*
X467360D02*
Y125731D01*
X477520D01*
X478790Y107951D02*
Y135891D01*
X466090Y107951D02*
X478790D01*
X466090D02*
Y113031D01*
Y135891D01*
X478790D01*
X429260Y107949D02*
X441960D01*
Y130809D01*
Y135889D01*
X429260D02*
X441960D01*
X429260Y107949D02*
Y135889D01*
X430530Y118109D02*
X440690D01*
Y125729D01*
X430530D02*
X440690D01*
X430530Y118109D02*
Y125729D01*
X316229Y364490D02*
Y377190D01*
Y364490D02*
X339089D01*
X344169D01*
Y377190D01*
X316229D02*
X344169D01*
X326389Y365760D02*
Y375920D01*
Y365760D02*
X334009D01*
Y375920D01*
X326389D02*
X334009D01*
X759461Y102870D02*
X767081D01*
X759461D02*
Y113030D01*
X767081D01*
Y102870D02*
Y113030D01*
X749301Y101600D02*
X777241D01*
X749301Y114300D02*
X749301Y101600D01*
X749301Y114300D02*
X754381Y114300D01*
X777241D01*
Y101600D02*
Y114300D01*
Y116840D02*
Y129540D01*
X754381D02*
X777241D01*
X749301D02*
X754381D01*
X749301Y116840D02*
Y129540D01*
Y116840D02*
X777241D01*
X767081Y118110D02*
Y128270D01*
X759461D02*
X767081D01*
X759461Y118110D02*
Y128270D01*
Y118110D02*
X767081D01*
X523240Y290829D02*
Y298449D01*
X533400D01*
Y290829D02*
Y298449D01*
X523240Y290829D02*
X533400D01*
X521970Y280669D02*
Y308609D01*
X534670D01*
Y303529D02*
Y308609D01*
Y280669D02*
Y303529D01*
X521970Y280669D02*
X534670D01*
X397509Y375920D02*
X405129D01*
Y365760D02*
Y375920D01*
X397509Y365760D02*
X405129D01*
X397509D02*
Y375920D01*
X387349Y377190D02*
X415289D01*
Y364490D02*
Y377190D01*
X410209Y364490D02*
X415289D01*
X387349D02*
X410209D01*
X387349D02*
Y377190D01*
X389282Y24916D02*
X401982D01*
X389282Y2056D02*
Y24916D01*
Y-3024D02*
Y2056D01*
Y-3024D02*
X401982D01*
Y24916D01*
X390552Y14756D02*
X400712D01*
X390552Y7136D02*
Y14756D01*
Y7136D02*
X400712D01*
Y14756D01*
X404522Y24916D02*
X417222D01*
X404522Y2056D02*
Y24916D01*
Y-3024D02*
Y2056D01*
Y-3024D02*
X417222D01*
Y24916D01*
X405792Y14756D02*
X415952D01*
X405792Y7136D02*
Y14756D01*
Y7136D02*
X415952D01*
Y14756D01*
X545491Y2055D02*
X553111D01*
Y-8105D02*
Y2055D01*
X545491Y-8105D02*
X553111D01*
X545491D02*
Y2055D01*
X535331Y3325D02*
X563271D01*
Y-9375D02*
Y3325D01*
X558191Y-9375D02*
X563271D01*
X535331D02*
X558191D01*
X535331D02*
Y3325D01*
X419762Y-3026D02*
X432462D01*
Y19834D01*
Y24914D01*
X419762D02*
X432462D01*
X419762Y-3026D02*
Y24914D01*
X421032Y7134D02*
X431192D01*
Y14754D01*
X421032D02*
X431192D01*
X421032Y7134D02*
Y14754D01*
X400050Y40641D02*
Y48261D01*
X389890Y40641D02*
X400050D01*
X389890D02*
Y48261D01*
X400050D01*
X401320Y30481D02*
Y58421D01*
X388620Y30481D02*
X401320D01*
X388620D02*
Y35561D01*
Y58421D01*
X401320D01*
X349250Y254001D02*
X361950D01*
X349250Y231141D02*
Y254001D01*
Y226061D02*
Y231141D01*
Y226061D02*
X361950D01*
Y254001D01*
X350520Y243841D02*
X360680D01*
X350520Y236221D02*
Y243841D01*
Y236221D02*
X360680D01*
Y243841D01*
X435002Y24916D02*
X447702D01*
X435002Y2056D02*
Y24916D01*
Y-3024D02*
Y2056D01*
Y-3024D02*
X447702D01*
Y24916D01*
X436272Y14756D02*
X446432D01*
X436272Y7136D02*
Y14756D01*
Y7136D02*
X446432D01*
Y14756D01*
X616611Y43074D02*
X629311D01*
X616611Y20214D02*
Y43074D01*
Y15134D02*
Y20214D01*
Y15134D02*
X629311D01*
Y43074D01*
X617881Y32914D02*
X628041D01*
X617881Y25294D02*
Y32914D01*
Y25294D02*
X628041D01*
Y32914D01*
X447040Y66041D02*
X459740D01*
X447040Y43181D02*
Y66041D01*
Y38101D02*
Y43181D01*
Y38101D02*
X459740D01*
Y66041D01*
X448310Y55881D02*
X458470D01*
X448310Y48261D02*
Y55881D01*
Y48261D02*
X458470D01*
Y55881D01*
X502835Y325642D02*
X502002Y324809D01*
Y323143D01*
X502835Y322310D01*
X506167D01*
X507000Y323143D01*
Y324809D01*
X506167Y325642D01*
X502002Y327308D02*
X507000D01*
Y330641D01*
X502002Y332307D02*
X507000D01*
X505334D01*
X502002Y335639D01*
X504501Y333140D01*
X507000Y335639D01*
X502835Y377712D02*
X502002Y376879D01*
Y375213D01*
X502835Y374380D01*
X506167D01*
X507000Y375213D01*
Y376879D01*
X506167Y377712D01*
X504501D01*
Y376046D01*
X507000Y379378D02*
X502002D01*
X507000Y382711D01*
X502002D01*
Y384377D02*
X507000D01*
Y386876D01*
X506167Y387709D01*
X502835D01*
X502002Y386876D01*
Y384377D01*
X502835Y398510D02*
X502002Y399343D01*
Y401009D01*
X502835Y401842D01*
X503668D01*
X504501Y401009D01*
Y400176D01*
Y401009D01*
X505334Y401842D01*
X506167D01*
X507000Y401009D01*
Y399343D01*
X506167Y398510D01*
X507000Y403508D02*
X506167D01*
Y404342D01*
X507000D01*
Y403508D01*
X502835Y407674D02*
X502002Y408507D01*
Y410173D01*
X502835Y411006D01*
X503668D01*
X504501Y410173D01*
Y409340D01*
Y410173D01*
X505334Y411006D01*
X506167D01*
X507000Y410173D01*
Y408507D01*
X506167Y407674D01*
X309610Y426368D02*
Y421370D01*
X311276Y423036D01*
X312942Y421370D01*
Y426368D01*
X314608D02*
Y421370D01*
Y423036D01*
X317941Y426368D01*
X315441Y423869D01*
X317941Y421370D01*
X319607Y426368D02*
Y422203D01*
X320440Y421370D01*
X322106D01*
X322939Y422203D01*
Y426368D01*
X324605Y421370D02*
Y426368D01*
X327104D01*
X327937Y425535D01*
Y423869D01*
X327104Y423036D01*
X324605D01*
X394700Y421370D02*
Y426368D01*
X397199D01*
X398032Y425535D01*
Y423869D01*
X397199Y423036D01*
X394700D01*
X396366D02*
X398032Y421370D01*
X403031Y425535D02*
X402197Y426368D01*
X400531D01*
X399698Y425535D01*
Y424702D01*
X400531Y423869D01*
X402197D01*
X403031Y423036D01*
Y422203D01*
X402197Y421370D01*
X400531D01*
X399698Y422203D01*
X404697Y426368D02*
X408029D01*
X406363D01*
Y421370D01*
D16*
X247423Y-6478D02*
G03*
X247777Y-6858I-39084J-36785D01*
G01*
X391922Y121666D02*
Y134874D01*
X354838D02*
X391922D01*
X354838Y121666D02*
Y134874D01*
X371602Y121670D02*
Y134870D01*
X375158Y121670D02*
Y134870D01*
X354838Y121666D02*
X391922D01*
X192786Y225806D02*
X239014D01*
X192786D02*
Y244094D01*
X217396Y228438D02*
Y241462D01*
X214404Y228438D02*
Y241462D01*
X192786Y244094D02*
X239014D01*
Y225806D02*
Y244094D01*
X353568Y148336D02*
X353568Y161544D01*
X353568Y148336D02*
X390652D01*
Y161544D01*
X373888Y148340D02*
Y161540D01*
X370332Y148340D02*
Y161540D01*
X353568Y161544D02*
X390652Y161544D01*
X315976Y249174D02*
X334264D01*
X315976Y202946D02*
Y249174D01*
X318608Y224564D02*
X331632D01*
X318608Y227556D02*
X331632D01*
X315976Y202946D02*
X334264D01*
Y249174D01*
X256540Y177546D02*
X292100D01*
X256540Y190754D02*
X292100D01*
Y177546D02*
Y190754D01*
X256540Y177546D02*
Y190754D01*
X272288Y180848D02*
X276352D01*
X272288Y187452D02*
X276352D01*
X353568Y204216D02*
Y217424D01*
Y204216D02*
X390652D01*
Y217424D01*
X373888Y204220D02*
Y217420D01*
X370332Y204220D02*
Y217420D01*
X353568Y217424D02*
X390652D01*
X340868Y183388D02*
Y187452D01*
X347472Y183388D02*
Y187452D01*
X337566Y167640D02*
X350774D01*
X337566Y203200D02*
X350774D01*
X337566Y167640D02*
Y203200D01*
X350774Y167640D02*
Y203200D01*
X305054Y202946D02*
Y249174D01*
X286766Y202946D02*
X305054D01*
X289398Y227556D02*
X302422D01*
X289398Y224564D02*
X302422D01*
X286766Y202946D02*
Y249174D01*
X305054D01*
X314198Y187452D02*
X318262D01*
X314198Y180848D02*
X318262D01*
X298450Y177546D02*
Y190754D01*
X334010Y177546D02*
Y190754D01*
X298450D02*
X334010D01*
X298450Y177546D02*
X334010D01*
X258826Y202946D02*
Y249174D01*
X277114D01*
X261458Y224564D02*
X274482D01*
X261458Y227556D02*
X274482D01*
X277114Y202946D02*
Y249174D01*
X258826Y202946D02*
X277114D01*
X353568Y188214D02*
X390652D01*
X370332Y175010D02*
Y188210D01*
X373888Y175010D02*
Y188210D01*
X390652Y175006D02*
Y188214D01*
X353568Y175006D02*
X390652D01*
X353568D02*
Y188214D01*
D17*
X174252Y299235D02*
G03*
X174252Y299235I-25000J0D01*
G01*
X239780Y63500D02*
G03*
X239780Y63500I-31500J0D01*
G01*
X249940Y287020D02*
G03*
X249940Y287020I-31500J0D01*
G01*
X499550Y298800D02*
Y302700D01*
X495650D02*
X499550D01*
X427550D02*
X431450D01*
X427550Y298800D02*
Y302700D01*
Y230700D02*
Y234600D01*
Y230700D02*
X431450D01*
X495650D02*
X499550D01*
Y234600D01*
X557540Y348690D02*
Y360990D01*
Y180990D02*
Y193290D01*
X717540Y348690D02*
Y360990D01*
Y180990D02*
Y193290D01*
X557540Y180990D02*
X717540D01*
X557540Y360990D02*
X717540D01*
X285750Y376683D02*
X311150D01*
X285750Y364999D02*
X311150D01*
Y376683D01*
X285750Y364999D02*
Y376683D01*
X499110Y-24891D02*
Y-13207D01*
X524510Y-24891D02*
Y-13207D01*
X499110Y-24891D02*
X524510D01*
X499110Y-13207D02*
X524510D01*
X498603Y396240D02*
Y421640D01*
X486919Y396240D02*
Y421640D01*
Y396240D02*
X498603D01*
X486919Y421640D02*
X498603D01*
X467867Y396240D02*
Y421640D01*
X479551Y396240D02*
Y421640D01*
X467867D02*
X479551D01*
X467867Y396240D02*
X479551D01*
X457963Y396240D02*
Y421640D01*
X446279Y396240D02*
Y421640D01*
Y396240D02*
X457963D01*
X446279Y421640D02*
X457963D01*
X358140Y364997D02*
X383540D01*
X358140Y376681D02*
X383540D01*
X358140Y364997D02*
Y376681D01*
X383540Y364997D02*
Y376681D01*
X616358Y-12932D02*
X616358Y6626D01*
X566066Y-12932D02*
X616358Y-12932D01*
X566066Y6626D02*
X566066Y-12932D01*
X566066Y6626D02*
X616358D01*
X281432Y251969D02*
Y302261D01*
X261874D02*
X281432D01*
X261874Y251969D02*
Y302261D01*
Y251969D02*
X281432D01*
X167512Y206760D02*
X182372D01*
X234190D02*
X249050D01*
X167512Y118364D02*
X182370D01*
X167512D02*
Y206760D01*
X249050Y118360D02*
Y206760D01*
X234190Y118364D02*
X249050D01*
X124106Y349274D02*
X143664D01*
X124106D02*
Y399566D01*
X143664D01*
Y349274D02*
Y399566D01*
X618898Y44218D02*
Y63776D01*
X568606Y44218D02*
X618898D01*
X568606D02*
X568606Y63776D01*
X618898D01*
X524510Y-9653D02*
Y2031D01*
X499110Y-9653D02*
Y2031D01*
X524510D01*
X499110Y-9653D02*
X524510D01*
X437387Y359410D02*
X449071D01*
X437387Y384810D02*
X449071D01*
Y359410D02*
Y384810D01*
X437387Y359410D02*
Y384810D01*
X149379Y337485D02*
Y327488D01*
X154378Y332487D02*
X144381D01*
X208408Y108250D02*
Y98253D01*
X213406Y103252D02*
X203409D01*
X263190Y286892D02*
X253193D01*
X258192Y281894D02*
Y291891D01*
D18*
X341884Y381508D02*
Y392938D01*
Y407162D02*
Y418592D01*
X285496D02*
X341884D01*
X285496Y381508D02*
X341884D01*
X300990Y393700D02*
X326390D01*
X300990D02*
Y406400D01*
X326390D01*
Y393700D02*
Y406400D01*
X285496Y381508D02*
Y392938D01*
Y407162D02*
Y418592D01*
X370586Y407162D02*
Y418592D01*
Y381508D02*
Y392938D01*
X411480Y393700D02*
Y406400D01*
X386080D02*
X411480D01*
X386080Y393700D02*
Y406400D01*
Y393700D02*
X411480D01*
X370586Y381508D02*
X426974D01*
X370586Y418592D02*
X426974D01*
Y407162D02*
Y418592D01*
Y381508D02*
Y392938D01*
X774446Y212852D02*
Y224282D01*
Y187198D02*
Y198628D01*
X815340Y199390D02*
Y212090D01*
X789940D02*
X815340D01*
X789940Y199390D02*
Y212090D01*
Y199390D02*
X815340D01*
X774446Y187198D02*
X830834D01*
X774446Y224282D02*
X830834D01*
Y212852D02*
Y224282D01*
Y187198D02*
Y198628D01*
X773176Y264922D02*
Y276352D01*
Y239268D02*
Y250698D01*
X814070Y251460D02*
Y264160D01*
X788670D02*
X814070D01*
X788670Y251460D02*
Y264160D01*
Y251460D02*
X814070D01*
X773176Y239268D02*
X829564D01*
X773176Y276352D02*
X829564D01*
Y264922D02*
Y276352D01*
Y239268D02*
Y250698D01*
X267362Y330985D02*
Y417345D01*
X147728Y330985D02*
X267362Y330985D01*
X147728Y417345D02*
X267362Y417345D01*
X147728Y330985D02*
Y417345D01*
X184277Y-42674D02*
X194434D01*
X189355Y-37596D02*
Y-47753D01*
X66038Y233673D02*
X50802D01*
X58420D01*
Y223517D01*
X66038D01*
X50802D01*
X66038Y218438D02*
X50802D01*
Y210821D01*
X53342Y208282D01*
X63498D01*
X66038Y210821D01*
Y218438D01*
Y193047D02*
X63498Y198125D01*
X58420Y203203D01*
X53342D01*
X50802Y200664D01*
Y195586D01*
X53342Y193047D01*
X55881D01*
X58420Y195586D01*
Y203203D01*
X252733Y34288D02*
X262890Y24132D01*
X252733D02*
X262890Y34288D01*
X252733Y29210D02*
X262890D01*
X257812Y24132D02*
Y34288D01*
X267968Y21593D02*
X273047D01*
X270508D01*
Y36827D01*
X267968Y34288D01*
X727719Y86357D02*
Y71122D01*
X737876D01*
X753111Y86357D02*
X742954D01*
Y71122D01*
X753111D01*
X742954Y78740D02*
X748033D01*
X758189Y86357D02*
Y71122D01*
X765807D01*
X768346Y73662D01*
Y83818D01*
X765807Y86357D01*
X758189D01*
X783581Y71122D02*
X773424D01*
X783581Y81279D01*
Y83818D01*
X781042Y86357D01*
X775963D01*
X773424Y83818D01*
X13104Y149624D02*
X8026D01*
X10565D01*
Y136928D01*
X8026Y134389D01*
X5487D01*
X2948Y136928D01*
X18183Y149624D02*
Y134389D01*
X25800D01*
X28340Y136928D01*
Y147085D01*
X25800Y149624D01*
X18183D01*
X43575Y147085D02*
X41035Y149624D01*
X35957D01*
X33418Y147085D01*
Y136928D01*
X35957Y134389D01*
X41035D01*
X43575Y136928D01*
X48653Y134389D02*
X53731D01*
X51192D01*
Y149624D01*
X48653Y147085D01*
D19*
X583338Y4594D02*
X599086Y4594D01*
X583338Y-10646D02*
X599086Y-10646D01*
X420370Y109220D02*
X421640D01*
Y132080D01*
X420370D02*
X421640D01*
X403860Y109220D02*
X405130D01*
X403860D02*
Y132080D01*
X405130D01*
X264160Y269241D02*
Y284989D01*
X279400Y269241D02*
Y284989D01*
X484532Y4595D02*
Y5865D01*
X461672D02*
X484532D01*
X461672Y4595D02*
Y5865D01*
X484532Y-11915D02*
Y-10645D01*
X461672Y-11915D02*
X484532D01*
X461672D02*
Y-10645D01*
X141632Y366546D02*
Y382294D01*
X126392Y366546D02*
Y382294D01*
X393700Y231140D02*
X394970D01*
Y254000D01*
X393700D02*
X394970D01*
X377190Y231140D02*
X378460D01*
X377190D02*
Y254000D01*
X378460D01*
X585878Y61744D02*
X601626D01*
X585878Y46504D02*
X601626D01*
D20*
X316090Y258826D02*
Y262018D01*
Y286622D02*
Y289814D01*
Y262018D02*
X326090D01*
X316090Y286622D02*
X326090D01*
Y258826D02*
Y261908D01*
Y286622D02*
Y289814D01*
X316090D02*
X362090D01*
Y286622D02*
Y289814D01*
Y258826D02*
Y262018D01*
X316090Y258826D02*
X362090D01*
D21*
X789437Y280481D02*
Y288479D01*
X793436D01*
X794768Y287146D01*
Y284480D01*
X793436Y283147D01*
X789437D01*
X792103D02*
X794768Y280481D01*
X802766Y287146D02*
X801433Y288479D01*
X798767D01*
X797434Y287146D01*
Y285813D01*
X798767Y284480D01*
X801433D01*
X802766Y283147D01*
Y281814D01*
X801433Y280481D01*
X798767D01*
X797434Y281814D01*
X805432Y288479D02*
X810763D01*
X808097D01*
Y280481D01*
D22*
X421407Y-6661D02*
X426072D01*
Y-7827D01*
X421407Y-12493D01*
Y-13659D01*
X428405D02*
Y-12493D01*
X429571D01*
Y-13659D01*
X428405D01*
X438901Y-6661D02*
X434236D01*
Y-10160D01*
X436569Y-8994D01*
X437735D01*
X438901Y-10160D01*
Y-12493D01*
X437735Y-13659D01*
X435403D01*
X434236Y-12493D01*
X441234Y-13659D02*
Y-6661D01*
Y-11326D02*
X444733Y-8994D01*
X441234Y-11326D02*
X444733Y-13659D01*
X390616Y-14929D02*
X392948D01*
X391782D01*
Y-7931D01*
X390616Y-9097D01*
X396447D02*
X397614Y-7931D01*
X399946D01*
X401113Y-9097D01*
Y-13763D01*
X399946Y-14929D01*
X397614D01*
X396447Y-13763D01*
Y-9097D01*
X403445Y-14929D02*
Y-7931D01*
Y-12596D02*
X406944Y-10264D01*
X403445Y-12596D02*
X406944Y-14929D01*
D23*
X313692Y400050D02*
D03*
X398780Y400050D02*
D03*
X802644Y205731D02*
D03*
X801370Y257813D02*
D03*
D24*
X321091Y260422D02*
D03*
X321091Y288218D02*
D03*
M02*
